<?xml version="1.0" encoding="UTF-8"?>
<svg xmlns="http://www.w3.org/2000/svg" xmlns:xlink="http://www.w3.org/1999/xlink" width="1190.25pt" height="1683.749945pt" viewBox="0 0 1190.25 1683.749945" version="1.2">
<defs>
<clipPath id="clip1">
  <path d="M 357.089844 562.144531 L 833.238281 562.144531 L 833.238281 1038.296875 L 357.089844 1038.296875 Z M 357.089844 562.144531 "/>
</clipPath>
</defs>
<g id="surface1">
<g clip-path="url(#clip1)" clip-rule="nonzero">
<path style=" stroke:none;fill-rule:nonzero;fill:rgb(0%,11.369324%,14.509583%);fill-opacity:1;" d="M 357.089844 601.828125 L 357.089844 998.648438 C 357.089844 1020.574219 374.847656 1038.332031 396.773438 1038.332031 L 793.59375 1038.332031 C 815.515625 1038.332031 833.273438 1020.574219 833.273438 998.648438 L 833.273438 601.828125 C 833.273438 579.902344 815.515625 562.144531 793.59375 562.144531 L 396.773438 562.144531 C 374.847656 562.144531 357.089844 579.902344 357.089844 601.828125 Z M 357.089844 601.828125 "/>
<path style=" stroke:none;fill-rule:nonzero;fill:rgb(0%,78.42865%,99.609375%);fill-opacity:1;" d="M 793.59375 581.988281 C 804.523438 581.988281 813.433594 590.894531 813.433594 601.828125 L 813.433594 998.648438 C 813.433594 1009.582031 804.523438 1018.488281 793.59375 1018.488281 L 396.773438 1018.488281 C 385.839844 1018.488281 376.929688 1009.582031 376.929688 998.648438 L 376.929688 601.828125 C 376.929688 590.894531 385.839844 581.988281 396.773438 581.988281 Z M 793.59375 562.144531 L 396.773438 562.144531 C 374.867188 562.144531 357.089844 579.902344 357.089844 601.828125 L 357.089844 998.648438 C 357.089844 1020.574219 374.867188 1038.332031 396.773438 1038.332031 L 793.59375 1038.332031 C 815.496094 1038.332031 833.273438 1020.574219 833.273438 998.648438 L 833.273438 601.828125 C 833.273438 579.902344 815.496094 562.144531 793.59375 562.144531 Z M 793.59375 562.144531 "/>
</g>
<path style=" stroke:none;fill-rule:nonzero;fill:rgb(0%,78.42865%,99.609375%);fill-opacity:1;" d="M 665.71875 889.5625 C 648.335938 889.5625 633.574219 885.929688 625.042969 881.03125 C 623.753906 880.375 623.457031 879.402344 623.457031 877.757812 L 623.457031 848.648438 C 623.457031 846.664062 624.410156 846.011719 625.71875 846.984375 C 638.097656 855.175781 652.542969 858.769531 665.636719 858.769531 C 681.351562 858.769531 687.898438 852.222656 687.898438 843.371094 C 687.898438 836.171875 683.335938 829.941406 663.355469 819.464844 C 635.183594 805.972656 623.394531 792.28125 623.394531 769.324219 C 623.394531 743.789062 643.355469 722.5 678.058594 722.5 C 695.121094 722.5 707.105469 725.121094 713.652344 728.054688 C 715.28125 729.046875 715.636719 730.675781 715.636719 731.984375 L 715.636719 759.167969 C 715.636719 760.8125 714.644531 761.804688 712.660156 761.152344 C 703.851562 755.914062 690.835938 752.621094 678.078125 752.621094 L 678.15625 752.699219 C 662.445312 752.699219 657.207031 760.554688 657.207031 767.101562 C 657.207031 774.304688 660.777344 779.207031 681.75 790.019531 C 712.859375 805.097656 722.660156 819.484375 722.660156 840.753906 C 722.660156 872.5 698.453125 889.5625 665.71875 889.5625 Z M 665.71875 889.5625 "/>
<path style=" stroke:none;fill-rule:nonzero;fill:rgb(0%,78.42865%,99.609375%);fill-opacity:1;" d="M 527.761719 667.582031 C 508.121094 667.582031 489.390625 667.917969 476.613281 668.574219 C 474.945312 668.574219 472.167969 669.546875 472.167969 670.875 L 472.1875 670.875 L 472.1875 884.324219 C 472.1875 885.972656 472.824219 886.566406 474.46875 886.566406 L 505.105469 886.566406 C 506.730469 886.566406 507.386719 885.910156 507.386719 884.265625 L 507.386719 808.035156 C 512.644531 808.035156 515.222656 808.371094 522.761719 808.371094 C 567.601562 808.371094 604.152344 786.746094 604.152344 736.351562 C 604.152344 697.738281 582.761719 667.582031 527.761719 667.582031 Z M 523.457031 776.585938 C 515.582031 776.585938 511.96875 776.585938 507.40625 776.269531 L 507.40625 699.664062 C 511.015625 699.328125 518.535156 699.007812 526.394531 699.007812 C 552.902344 699.007812 568.496094 711.785156 568.496094 736.984375 C 568.496094 768.414062 546.671875 776.585938 523.457031 776.585938 Z M 523.457031 776.585938 "/>
</g>
</svg>
