<?xml version="1.0" encoding="UTF-8"?>
<svg xmlns="http://www.w3.org/2000/svg" xmlns:xlink="http://www.w3.org/1999/xlink" width="1190.25pt" height="1683.749945pt" viewBox="0 0 1190.25 1683.749945" version="1.2">
<defs>
<clipPath id="clip1">
  <path d="M 357.089844 1027 L 833.238281 1027 L 833.238281 1090.011719 L 357.089844 1090.011719 Z M 357.089844 1027 "/>
</clipPath>
<clipPath id="clip2">
  <path d="M 439 593.816406 L 751 593.816406 L 751 698 L 439 698 Z M 439 593.816406 "/>
</clipPath>
</defs>
<g id="surface1">
<path style=" stroke:none;fill-rule:nonzero;fill:rgb(9.799194%,46.269226%,82.348633%);fill-opacity:1;" d="M 429.625 759.214844 L 760.738281 759.214844 C 761.417969 759.214844 762.089844 759.28125 762.757812 759.410156 C 763.421875 759.542969 764.070312 759.742188 764.699219 760 C 765.324219 760.261719 765.921875 760.578125 766.488281 760.957031 C 767.050781 761.332031 767.574219 761.761719 768.054688 762.242188 C 768.535156 762.722656 768.964844 763.242188 769.339844 763.808594 C 769.71875 764.371094 770.039062 764.96875 770.296875 765.59375 C 770.558594 766.222656 770.753906 766.867188 770.886719 767.535156 C 771.019531 768.199219 771.085938 768.871094 771.085938 769.550781 L 771.085938 1038.324219 C 771.085938 1039.003906 771.019531 1039.675781 770.886719 1040.339844 C 770.753906 1041.007812 770.558594 1041.652344 770.296875 1042.28125 C 770.039062 1042.90625 769.71875 1043.503906 769.339844 1044.066406 C 768.964844 1044.632812 768.535156 1045.152344 768.054688 1045.632812 C 767.574219 1046.113281 767.050781 1046.542969 766.488281 1046.917969 C 765.921875 1047.296875 765.324219 1047.613281 764.699219 1047.875 C 764.070312 1048.132812 763.421875 1048.332031 762.757812 1048.460938 C 762.089844 1048.59375 761.417969 1048.660156 760.738281 1048.660156 L 429.625 1048.660156 C 428.945312 1048.660156 428.273438 1048.59375 427.609375 1048.460938 C 426.941406 1048.332031 426.292969 1048.132812 425.667969 1047.875 C 425.039062 1047.613281 424.441406 1047.296875 423.878906 1046.917969 C 423.3125 1046.542969 422.789062 1046.113281 422.308594 1045.632812 C 421.828125 1045.152344 421.402344 1044.632812 421.023438 1044.066406 C 420.644531 1043.503906 420.328125 1042.90625 420.066406 1042.28125 C 419.808594 1041.652344 419.609375 1041.007812 419.476562 1040.339844 C 419.34375 1039.675781 419.277344 1039.003906 419.277344 1038.324219 L 419.277344 769.550781 C 419.277344 768.871094 419.34375 768.199219 419.476562 767.535156 C 419.609375 766.867188 419.808594 766.222656 420.066406 765.59375 C 420.328125 764.96875 420.644531 764.371094 421.023438 763.808594 C 421.402344 763.242188 421.828125 762.722656 422.308594 762.242188 C 422.789062 761.761719 423.3125 761.332031 423.878906 760.957031 C 424.441406 760.578125 425.039062 760.261719 425.667969 760 C 426.292969 759.742188 426.941406 759.542969 427.609375 759.410156 C 428.273438 759.28125 428.945312 759.214844 429.625 759.214844 Z M 429.625 759.214844 "/>
<path style=" stroke:none;fill-rule:nonzero;fill:rgb(98.039246%,98.039246%,98.039246%);fill-opacity:1;" d="M 505.285156 925.003906 L 502.222656 924.488281 C 484.074219 921.53125 481.363281 916.816406 481.363281 914.273438 C 481.363281 910.140625 489.640625 903.9375 502.058594 903.9375 C 514.472656 903.9375 522.378906 909.769531 522.75 913.921875 C 522.816406 914.601562 522.945312 915.269531 523.144531 915.921875 C 523.339844 916.574219 523.597656 917.199219 523.917969 917.804688 C 524.234375 918.40625 524.613281 918.972656 525.042969 919.5 C 525.472656 920.027344 525.953125 920.507812 526.476562 920.941406 C 527.003906 921.378906 527.566406 921.753906 528.167969 922.078125 C 528.769531 922.402344 529.394531 922.664062 530.046875 922.863281 C 530.699219 923.0625 531.367188 923.199219 532.042969 923.269531 C 532.722656 923.335938 533.402344 923.339844 534.082031 923.273438 C 534.761719 923.210938 535.425781 923.082031 536.082031 922.886719 C 536.734375 922.6875 537.363281 922.433594 537.964844 922.113281 C 538.570312 921.792969 539.132812 921.417969 539.664062 920.988281 C 540.191406 920.558594 540.675781 920.078125 541.109375 919.554688 C 541.542969 919.027344 541.921875 918.464844 542.246094 917.867188 C 542.570312 917.265625 542.832031 916.640625 543.035156 915.988281 C 543.234375 915.335938 543.367188 914.671875 543.4375 913.996094 C 543.507812 913.316406 543.511719 912.636719 543.445312 911.960938 C 543.171875 910.84375 542.847656 909.746094 542.476562 908.664062 C 542.101562 907.578125 541.679688 906.511719 541.210938 905.464844 C 540.742188 904.417969 540.226562 903.398438 539.664062 902.398438 C 539.101562 901.398438 538.496094 900.425781 537.84375 899.480469 C 537.195312 898.535156 536.503906 897.621094 535.769531 896.738281 C 535.035156 895.859375 534.265625 895.011719 533.453125 894.199219 C 532.644531 893.386719 531.800781 892.609375 530.917969 891.875 C 530.039062 891.136719 529.128906 890.441406 528.183594 889.789062 C 527.242188 889.136719 526.273438 888.527344 525.273438 887.960938 C 524.273438 887.394531 523.253906 886.875 522.207031 886.398438 C 521.164062 885.925781 520.097656 885.5 519.015625 885.125 C 517.929688 884.746094 516.832031 884.417969 515.71875 884.140625 C 514.605469 883.863281 513.480469 883.632812 512.347656 883.457031 C 511.210938 883.28125 510.074219 883.15625 508.925781 883.082031 C 507.78125 883.007812 506.636719 882.988281 505.488281 883.015625 C 504.339844 883.046875 503.195312 883.128906 502.058594 883.261719 C 478.839844 883.261719 460.667969 896.886719 460.667969 914.273438 C 460.667969 930.464844 473.519531 940.757812 498.910156 944.894531 L 501.933594 945.410156 C 519.128906 948.222656 522.75 952.523438 522.75 955.644531 C 522.75 959.78125 514.472656 965.984375 502.058594 965.984375 C 489.640625 965.984375 481.734375 960.152344 481.363281 955.976562 C 481.296875 955.296875 481.167969 954.632812 480.972656 953.980469 C 480.773438 953.328125 480.515625 952.699219 480.195312 952.097656 C 479.878906 951.496094 479.5 950.929688 479.070312 950.402344 C 478.640625 949.875 478.160156 949.394531 477.632812 948.960938 C 477.109375 948.527344 476.546875 948.148438 475.945312 947.824219 C 475.34375 947.5 474.71875 947.238281 474.066406 947.039062 C 473.414062 946.839844 472.75 946.703125 472.070312 946.636719 C 471.390625 946.566406 470.710938 946.5625 470.035156 946.628906 C 469.355469 946.691406 468.6875 946.824219 468.035156 947.019531 C 467.382812 947.214844 466.753906 947.472656 466.148438 947.789062 C 465.546875 948.109375 464.980469 948.484375 464.453125 948.914062 C 463.921875 949.34375 463.441406 949.824219 463.007812 950.347656 C 462.574219 950.871094 462.191406 951.433594 461.867188 952.035156 C 461.546875 952.632812 461.28125 953.261719 461.082031 953.910156 C 460.882812 954.5625 460.746094 955.226562 460.675781 955.90625 C 460.605469 956.582031 460.605469 957.261719 460.667969 957.941406 C 460.941406 959.054688 461.265625 960.152344 461.636719 961.238281 C 462.011719 962.324219 462.429688 963.386719 462.902344 964.433594 C 463.371094 965.480469 463.886719 966.503906 464.449219 967.503906 C 465.011719 968.503906 465.617188 969.476562 466.265625 970.421875 C 466.917969 971.367188 467.609375 972.28125 468.339844 973.164062 C 469.074219 974.046875 469.847656 974.894531 470.65625 975.707031 C 471.464844 976.519531 472.3125 977.292969 473.191406 978.03125 C 474.070312 978.765625 474.980469 979.460938 475.925781 980.117188 C 476.867188 980.769531 477.839844 981.378906 478.835938 981.945312 C 479.835938 982.511719 480.859375 983.03125 481.902344 983.503906 C 482.949219 983.980469 484.011719 984.402344 485.097656 984.78125 C 486.179688 985.160156 487.28125 985.488281 488.394531 985.765625 C 489.507812 986.042969 490.632812 986.269531 491.765625 986.445312 C 492.902344 986.621094 494.039062 986.746094 495.1875 986.820312 C 496.332031 986.894531 497.476562 986.914062 498.625 986.882812 C 499.773438 986.851562 500.917969 986.769531 502.058594 986.636719 C 525.277344 986.636719 543.445312 973.011719 543.445312 955.625 C 543.445312 939.457031 530.617188 929.160156 505.285156 925.003906 Z M 505.285156 925.003906 "/>
<path style=" stroke:none;fill-rule:nonzero;fill:rgb(98.039246%,98.039246%,98.039246%);fill-opacity:1;" d="M 626.222656 903.9375 C 626.902344 903.9375 627.578125 903.871094 628.242188 903.738281 C 628.910156 903.605469 629.554688 903.410156 630.183594 903.152344 C 630.8125 902.890625 631.40625 902.570312 631.972656 902.195312 C 632.539062 901.816406 633.058594 901.390625 633.539062 900.910156 C 634.019531 900.429688 634.449219 899.90625 634.828125 899.34375 C 635.203125 898.777344 635.523438 898.183594 635.785156 897.554688 C 636.042969 896.929688 636.238281 896.28125 636.371094 895.617188 C 636.503906 894.949219 636.570312 894.277344 636.570312 893.601562 C 636.570312 892.921875 636.503906 892.25 636.371094 891.582031 C 636.238281 890.917969 636.042969 890.269531 635.785156 889.644531 C 635.523438 889.015625 635.203125 888.421875 634.828125 887.855469 C 634.449219 887.292969 634.019531 886.769531 633.539062 886.289062 C 633.058594 885.808594 632.539062 885.382812 631.972656 885.003906 C 631.40625 884.628906 630.8125 884.308594 630.183594 884.050781 C 629.554688 883.789062 628.910156 883.59375 628.242188 883.460938 C 627.578125 883.328125 626.902344 883.261719 626.222656 883.261719 L 574.488281 883.261719 C 573.808594 883.261719 573.136719 883.328125 572.46875 883.460938 C 571.804688 883.59375 571.15625 883.789062 570.527344 884.050781 C 569.902344 884.308594 569.304688 884.628906 568.738281 885.003906 C 568.175781 885.382812 567.652344 885.808594 567.171875 886.289062 C 566.691406 886.769531 566.261719 887.292969 565.882812 887.855469 C 565.507812 888.421875 565.1875 889.015625 564.929688 889.644531 C 564.667969 890.269531 564.472656 890.917969 564.339844 891.582031 C 564.207031 892.25 564.140625 892.921875 564.140625 893.601562 L 564.140625 976.300781 C 564.140625 976.976562 564.207031 977.648438 564.339844 978.316406 C 564.472656 978.980469 564.667969 979.628906 564.929688 980.253906 C 565.1875 980.882812 565.507812 981.476562 565.882812 982.042969 C 566.261719 982.605469 566.691406 983.128906 567.171875 983.609375 C 567.652344 984.089844 568.175781 984.515625 568.738281 984.894531 C 569.304688 985.273438 569.902344 985.589844 570.527344 985.851562 C 571.15625 986.109375 571.804688 986.304688 572.46875 986.4375 C 573.136719 986.570312 573.808594 986.636719 574.488281 986.636719 L 626.222656 986.636719 C 626.902344 986.636719 627.578125 986.570312 628.242188 986.4375 C 628.910156 986.304688 629.554688 986.109375 630.183594 985.851562 C 630.8125 985.589844 631.40625 985.273438 631.972656 984.894531 C 632.539062 984.515625 633.058594 984.089844 633.539062 983.609375 C 634.019531 983.128906 634.449219 982.605469 634.828125 982.042969 C 635.203125 981.476562 635.523438 980.882812 635.785156 980.253906 C 636.042969 979.628906 636.238281 978.980469 636.371094 978.316406 C 636.503906 977.648438 636.570312 976.976562 636.570312 976.300781 C 636.570312 975.621094 636.503906 974.949219 636.371094 974.28125 C 636.238281 973.617188 636.042969 972.96875 635.785156 972.34375 C 635.523438 971.714844 635.203125 971.121094 634.828125 970.554688 C 634.449219 969.992188 634.019531 969.46875 633.539062 968.988281 C 633.058594 968.507812 632.539062 968.082031 631.972656 967.703125 C 631.40625 967.328125 630.8125 967.007812 630.183594 966.75 C 629.554688 966.488281 628.910156 966.292969 628.242188 966.160156 C 627.578125 966.027344 626.902344 965.960938 626.222656 965.960938 L 584.835938 965.960938 L 584.835938 945.285156 L 615.875 945.285156 C 616.554688 945.285156 617.230469 945.222656 617.894531 945.089844 C 618.5625 944.957031 619.207031 944.761719 619.835938 944.5 C 620.464844 944.242188 621.0625 943.921875 621.625 943.542969 C 622.191406 943.167969 622.714844 942.738281 623.195312 942.257812 C 623.675781 941.78125 624.101562 941.257812 624.480469 940.691406 C 624.859375 940.128906 625.175781 939.53125 625.4375 938.90625 C 625.695312 938.277344 625.894531 937.632812 626.023438 936.964844 C 626.15625 936.300781 626.222656 935.628906 626.222656 934.949219 C 626.222656 934.269531 626.15625 933.597656 626.023438 932.933594 C 625.894531 932.265625 625.695312 931.621094 625.4375 930.992188 C 625.175781 930.367188 624.859375 929.769531 624.480469 929.207031 C 624.101562 928.640625 623.675781 928.121094 623.195312 927.640625 C 622.714844 927.160156 622.191406 926.730469 621.625 926.355469 C 621.0625 925.976562 620.464844 925.660156 619.835938 925.398438 C 619.207031 925.140625 618.5625 924.941406 617.894531 924.8125 C 617.230469 924.679688 616.554688 924.613281 615.875 924.613281 L 584.835938 924.613281 L 584.835938 903.9375 Z M 626.222656 903.9375 "/>
<path style=" stroke:none;fill-rule:nonzero;fill:rgb(98.039246%,98.039246%,98.039246%);fill-opacity:1;" d="M 688.308594 883.261719 C 686.953125 883.261719 685.601562 883.328125 684.25 883.460938 C 682.902344 883.59375 681.5625 883.792969 680.234375 884.058594 C 678.902344 884.320312 677.589844 884.648438 676.292969 885.042969 C 674.996094 885.4375 673.722656 885.890625 672.46875 886.410156 C 671.214844 886.929688 669.992188 887.507812 668.796875 888.144531 C 667.601562 888.785156 666.441406 889.480469 665.3125 890.230469 C 664.1875 890.984375 663.097656 891.789062 662.050781 892.648438 C 661.003906 893.507812 660 894.414062 659.042969 895.375 C 658.082031 896.332031 657.171875 897.332031 656.3125 898.378906 C 655.453125 899.425781 654.648438 900.511719 653.894531 901.640625 C 653.140625 902.765625 652.445312 903.925781 651.804688 905.121094 C 651.167969 906.316406 650.589844 907.539062 650.070312 908.789062 C 649.550781 910.039062 649.09375 911.3125 648.699219 912.609375 C 648.308594 913.90625 647.976562 915.21875 647.714844 916.546875 C 647.449219 917.875 647.25 919.210938 647.117188 920.558594 C 646.984375 921.90625 646.917969 923.257812 646.917969 924.613281 L 646.917969 945.285156 C 646.917969 946.640625 646.984375 947.992188 647.117188 949.339844 C 647.25 950.6875 647.449219 952.027344 647.714844 953.355469 C 647.976562 954.683594 648.308594 955.996094 648.699219 957.289062 C 649.09375 958.585938 649.550781 959.859375 650.070312 961.109375 C 650.589844 962.363281 651.167969 963.585938 651.804688 964.777344 C 652.445312 965.972656 653.140625 967.132812 653.894531 968.257812 C 654.648438 969.386719 655.453125 970.472656 656.3125 971.519531 C 657.171875 972.566406 658.082031 973.566406 659.042969 974.527344 C 660 975.484375 661.003906 976.390625 662.050781 977.25 C 663.097656 978.109375 664.1875 978.914062 665.3125 979.667969 C 666.441406 980.421875 667.601562 981.117188 668.796875 981.753906 C 669.992188 982.390625 671.214844 982.972656 672.46875 983.488281 C 673.722656 984.007812 674.996094 984.464844 676.292969 984.855469 C 677.589844 985.25 678.902344 985.578125 680.234375 985.84375 C 681.5625 986.105469 682.902344 986.304688 684.25 986.4375 C 685.601562 986.570312 686.953125 986.636719 688.308594 986.636719 C 689.664062 986.636719 691.015625 986.570312 692.363281 986.4375 C 693.714844 986.304688 695.050781 986.105469 696.382812 985.84375 C 697.710938 985.578125 699.023438 985.25 700.320312 984.855469 C 701.621094 984.464844 702.894531 984.007812 704.144531 983.488281 C 705.398438 982.972656 706.621094 982.390625 707.816406 981.753906 C 709.015625 981.117188 710.175781 980.421875 711.300781 979.667969 C 712.429688 978.914062 713.515625 978.109375 714.566406 977.25 C 715.613281 976.390625 716.617188 975.484375 717.574219 974.527344 C 718.53125 973.566406 719.441406 972.566406 720.300781 971.519531 C 721.160156 970.472656 721.96875 969.386719 722.722656 968.257812 C 723.472656 967.132812 724.171875 965.972656 724.808594 964.777344 C 725.449219 963.585938 726.027344 962.363281 726.546875 961.109375 C 727.066406 959.859375 727.519531 958.585938 727.914062 957.289062 C 728.308594 955.996094 728.636719 954.683594 728.902344 953.355469 C 729.164062 952.027344 729.363281 950.6875 729.496094 949.339844 C 729.628906 947.992188 729.695312 946.640625 729.695312 945.285156 L 729.695312 924.613281 C 729.695312 923.257812 729.628906 921.90625 729.496094 920.558594 C 729.363281 919.210938 729.164062 917.875 728.902344 916.546875 C 728.636719 915.21875 728.308594 913.90625 727.914062 912.609375 C 727.519531 911.3125 727.066406 910.039062 726.546875 908.789062 C 726.027344 907.539062 725.449219 906.3125 724.808594 905.121094 C 724.171875 903.925781 723.472656 902.765625 722.722656 901.640625 C 721.96875 900.511719 721.160156 899.425781 720.300781 898.378906 C 719.441406 897.332031 718.53125 896.332031 717.574219 895.375 C 716.617188 894.414062 715.613281 893.507812 714.566406 892.648438 C 713.515625 891.789062 712.429688 890.984375 711.300781 890.230469 C 710.175781 889.480469 709.015625 888.785156 707.816406 888.144531 C 706.621094 887.507812 705.398438 886.929688 704.144531 886.410156 C 702.894531 885.890625 701.621094 885.4375 700.320312 885.042969 C 699.023438 884.648438 697.710938 884.320312 696.382812 884.058594 C 695.050781 883.792969 693.714844 883.59375 692.363281 883.460938 C 691.015625 883.328125 689.664062 883.261719 688.308594 883.261719 Z M 709.003906 945.285156 C 709.003906 945.964844 708.96875 946.640625 708.902344 947.3125 C 708.835938 947.988281 708.738281 948.65625 708.605469 949.320312 C 708.472656 949.984375 708.308594 950.640625 708.109375 951.289062 C 707.914062 951.9375 707.6875 952.574219 707.425781 953.199219 C 707.167969 953.824219 706.878906 954.4375 706.558594 955.03125 C 706.238281 955.628906 705.890625 956.210938 705.515625 956.773438 C 705.136719 957.335938 704.734375 957.878906 704.304688 958.402344 C 703.875 958.925781 703.421875 959.425781 702.941406 959.90625 C 702.460938 960.386719 701.960938 960.839844 701.4375 961.269531 C 700.914062 961.699219 700.367188 962.101562 699.804688 962.476562 C 699.242188 962.855469 698.660156 963.203125 698.0625 963.519531 C 697.464844 963.839844 696.851562 964.128906 696.226562 964.386719 C 695.601562 964.648438 694.964844 964.875 694.316406 965.070312 C 693.667969 965.269531 693.007812 965.433594 692.34375 965.566406 C 691.679688 965.695312 691.011719 965.796875 690.335938 965.863281 C 689.660156 965.929688 688.984375 965.960938 688.308594 965.960938 C 687.628906 965.960938 686.953125 965.929688 686.277344 965.863281 C 685.605469 965.796875 684.933594 965.695312 684.269531 965.566406 C 683.605469 965.433594 682.949219 965.269531 682.300781 965.070312 C 681.652344 964.875 681.015625 964.648438 680.386719 964.386719 C 679.761719 964.128906 679.148438 963.839844 678.550781 963.519531 C 677.953125 963.203125 677.375 962.855469 676.808594 962.476562 C 676.246094 962.101562 675.703125 961.699219 675.179688 961.269531 C 674.65625 960.839844 674.152344 960.386719 673.675781 959.90625 C 673.195312 959.425781 672.742188 958.925781 672.3125 958.402344 C 671.878906 957.878906 671.476562 957.335938 671.101562 956.773438 C 670.722656 956.210938 670.375 955.628906 670.058594 955.03125 C 669.738281 954.4375 669.449219 953.824219 669.1875 953.199219 C 668.929688 952.574219 668.699219 951.9375 668.503906 951.289062 C 668.308594 950.640625 668.144531 949.984375 668.011719 949.320312 C 667.878906 948.65625 667.777344 947.988281 667.710938 947.3125 C 667.644531 946.640625 667.613281 945.964844 667.613281 945.285156 L 667.613281 924.613281 C 667.613281 923.933594 667.644531 923.257812 667.710938 922.585938 C 667.777344 921.910156 667.878906 921.242188 668.011719 920.578125 C 668.144531 919.914062 668.308594 919.257812 668.503906 918.609375 C 668.699219 917.960938 668.929688 917.324219 669.1875 916.699219 C 669.449219 916.074219 669.738281 915.464844 670.058594 914.867188 C 670.375 914.269531 670.722656 913.6875 671.101562 913.125 C 671.476562 912.5625 671.878906 912.019531 672.3125 911.496094 C 672.742188 910.972656 673.195312 910.472656 673.675781 909.992188 C 674.152344 909.515625 674.65625 909.058594 675.179688 908.628906 C 675.703125 908.199219 676.246094 907.796875 676.808594 907.421875 C 677.375 907.046875 677.953125 906.699219 678.550781 906.378906 C 679.148438 906.058594 679.761719 905.769531 680.386719 905.511719 C 681.015625 905.253906 681.652344 905.023438 682.300781 904.828125 C 682.949219 904.632812 683.605469 904.464844 684.269531 904.335938 C 684.933594 904.203125 685.605469 904.101562 686.277344 904.035156 C 686.953125 903.96875 687.628906 903.9375 688.308594 903.9375 C 688.984375 903.9375 689.660156 903.96875 690.335938 904.035156 C 691.011719 904.101562 691.679688 904.203125 692.34375 904.335938 C 693.007812 904.464844 693.667969 904.632812 694.316406 904.828125 C 694.964844 905.023438 695.601562 905.253906 696.226562 905.511719 C 696.851562 905.769531 697.464844 906.058594 698.0625 906.378906 C 698.660156 906.699219 699.242188 907.046875 699.804688 907.421875 C 700.367188 907.796875 700.914062 908.199219 701.4375 908.628906 C 701.960938 909.058594 702.460938 909.515625 702.941406 909.992188 C 703.421875 910.472656 703.875 910.972656 704.304688 911.496094 C 704.734375 912.019531 705.136719 912.5625 705.515625 913.125 C 705.890625 913.6875 706.238281 914.269531 706.558594 914.867188 C 706.878906 915.464844 707.167969 916.074219 707.425781 916.699219 C 707.6875 917.324219 707.914062 917.960938 708.109375 918.609375 C 708.308594 919.257812 708.472656 919.914062 708.605469 920.578125 C 708.738281 921.242188 708.835938 921.910156 708.902344 922.585938 C 708.96875 923.257812 709.003906 923.933594 709.003906 924.613281 Z M 709.003906 945.285156 "/>
<g clip-path="url(#clip1)" clip-rule="nonzero">
<path style=" stroke:none;fill-rule:nonzero;fill:rgb(12.939453%,58.81958%,95.289612%);fill-opacity:1;" d="M 781.433594 1027.988281 L 408.933594 1027.988281 C 407.238281 1027.988281 405.546875 1028.070312 403.859375 1028.234375 C 402.175781 1028.402344 400.5 1028.648438 398.839844 1028.980469 C 397.175781 1029.308594 395.535156 1029.722656 393.914062 1030.210938 C 392.292969 1030.703125 390.699219 1031.273438 389.132812 1031.921875 C 387.566406 1032.570312 386.039062 1033.292969 384.542969 1034.089844 C 383.050781 1034.886719 381.597656 1035.757812 380.1875 1036.699219 C 378.78125 1037.636719 377.421875 1038.644531 376.109375 1039.71875 C 374.800781 1040.792969 373.546875 1041.929688 372.347656 1043.125 C 371.152344 1044.324219 370.015625 1045.574219 368.9375 1046.882812 C 367.863281 1048.191406 366.855469 1049.550781 365.914062 1050.957031 C 364.972656 1052.367188 364.101562 1053.816406 363.304688 1055.308594 C 362.507812 1056.800781 361.78125 1058.328125 361.132812 1059.894531 C 360.484375 1061.457031 359.914062 1063.050781 359.421875 1064.667969 C 358.933594 1066.289062 358.519531 1067.929688 358.191406 1069.589844 C 357.859375 1071.25 357.609375 1072.921875 357.445312 1074.605469 C 357.277344 1076.292969 357.195312 1077.980469 357.195312 1079.671875 C 357.195312 1080.351562 357.261719 1081.023438 357.394531 1081.691406 C 357.527344 1082.355469 357.722656 1083.003906 357.984375 1083.628906 C 358.242188 1084.257812 358.5625 1084.851562 358.941406 1085.417969 C 359.316406 1085.980469 359.746094 1086.503906 360.226562 1086.984375 C 360.707031 1087.464844 361.230469 1087.890625 361.792969 1088.269531 C 362.359375 1088.644531 362.957031 1088.964844 363.582031 1089.222656 C 364.210938 1089.484375 364.859375 1089.679688 365.523438 1089.8125 C 366.191406 1089.945312 366.863281 1090.011719 367.542969 1090.011719 L 822.820312 1090.011719 C 823.5 1090.011719 824.175781 1089.945312 824.839844 1089.8125 C 825.507812 1089.679688 826.152344 1089.484375 826.78125 1089.222656 C 827.410156 1088.964844 828.003906 1088.644531 828.570312 1088.269531 C 829.136719 1087.890625 829.65625 1087.464844 830.136719 1086.984375 C 830.617188 1086.503906 831.046875 1085.980469 831.425781 1085.417969 C 831.800781 1084.851562 832.121094 1084.257812 832.382812 1083.628906 C 832.640625 1083.003906 832.835938 1082.355469 832.96875 1081.691406 C 833.101562 1081.023438 833.167969 1080.351562 833.167969 1079.671875 C 833.167969 1077.980469 833.085938 1076.292969 832.921875 1074.605469 C 832.753906 1072.921875 832.503906 1071.25 832.175781 1069.589844 C 831.84375 1067.929688 831.433594 1066.289062 830.941406 1064.667969 C 830.449219 1063.050781 829.878906 1061.457031 829.230469 1059.894531 C 828.582031 1058.328125 827.859375 1056.800781 827.058594 1055.308594 C 826.261719 1053.816406 825.390625 1052.363281 824.449219 1050.957031 C 823.507812 1049.550781 822.5 1048.191406 821.425781 1046.882812 C 820.351562 1045.574219 819.214844 1044.324219 818.015625 1043.125 C 816.816406 1041.929688 815.5625 1040.792969 814.253906 1039.71875 C 812.945312 1038.644531 811.585938 1037.636719 810.175781 1036.695312 C 808.765625 1035.757812 807.316406 1034.886719 805.820312 1034.089844 C 804.328125 1033.292969 802.796875 1032.570312 801.230469 1031.921875 C 799.664062 1031.273438 798.074219 1030.703125 796.449219 1030.210938 C 794.828125 1029.71875 793.1875 1029.308594 791.527344 1028.980469 C 789.863281 1028.648438 788.191406 1028.402344 786.503906 1028.234375 C 784.816406 1028.070312 783.128906 1027.988281 781.433594 1027.988281 Z M 781.433594 1027.988281 "/>
</g>
<g clip-path="url(#clip2)" clip-rule="nonzero">
<path style=" stroke:none;fill-rule:nonzero;fill:rgb(9.799194%,46.269226%,82.348633%);fill-opacity:1;" d="M 698.65625 593.816406 L 491.710938 593.816406 C 490.015625 593.816406 488.324219 593.898438 486.640625 594.0625 C 484.953125 594.230469 483.277344 594.476562 481.617188 594.808594 C 479.953125 595.136719 478.3125 595.550781 476.691406 596.039062 C 475.070312 596.53125 473.476562 597.101562 471.910156 597.75 C 470.347656 598.398438 468.816406 599.121094 467.320312 599.917969 C 465.828125 600.714844 464.375 601.585938 462.96875 602.527344 C 461.558594 603.464844 460.199219 604.472656 458.890625 605.546875 C 457.578125 606.621094 456.324219 607.757812 455.125 608.953125 C 453.929688 610.152344 452.792969 611.402344 451.71875 612.710938 C 450.640625 614.019531 449.632812 615.378906 448.691406 616.785156 C 447.75 618.195312 446.882812 619.644531 446.082031 621.136719 C 445.285156 622.628906 444.558594 624.15625 443.910156 625.722656 C 443.261719 627.285156 442.691406 628.878906 442.203125 630.496094 C 441.710938 632.117188 441.296875 633.757812 440.96875 635.417969 C 440.636719 637.078125 440.390625 638.75 440.222656 640.4375 C 440.058594 642.121094 439.972656 643.808594 439.972656 645.5 L 439.972656 686.851562 C 439.972656 687.53125 440.039062 688.203125 440.171875 688.867188 C 440.304688 689.535156 440.5 690.179688 440.761719 690.808594 C 441.019531 691.433594 441.339844 692.03125 441.71875 692.59375 C 442.09375 693.160156 442.523438 693.679688 443.003906 694.160156 C 443.484375 694.640625 444.007812 695.070312 444.574219 695.445312 C 445.136719 695.824219 445.734375 696.140625 446.359375 696.402344 C 446.988281 696.660156 447.636719 696.859375 448.300781 696.992188 C 448.96875 697.121094 449.640625 697.1875 450.320312 697.1875 L 740.042969 697.1875 C 740.722656 697.1875 741.394531 697.121094 742.0625 696.992188 C 742.730469 696.859375 743.375 696.660156 744.003906 696.402344 C 744.632812 696.140625 745.226562 695.824219 745.792969 695.445312 C 746.355469 695.070312 746.878906 694.640625 747.359375 694.160156 C 747.839844 693.679688 748.269531 693.160156 748.648438 692.59375 C 749.023438 692.03125 749.34375 691.433594 749.601562 690.808594 C 749.863281 690.179688 750.058594 689.535156 750.191406 688.867188 C 750.324219 688.203125 750.390625 687.53125 750.390625 686.851562 L 750.390625 645.5 C 750.390625 643.808594 750.308594 642.121094 750.140625 640.4375 C 749.976562 638.75 749.726562 637.078125 749.398438 635.417969 C 749.066406 633.757812 748.65625 632.117188 748.164062 630.496094 C 747.671875 628.878906 747.101562 627.285156 746.453125 625.722656 C 745.804688 624.15625 745.082031 622.628906 744.28125 621.136719 C 743.484375 619.644531 742.613281 618.195312 741.671875 616.785156 C 740.730469 615.378906 739.722656 614.019531 738.648438 612.710938 C 737.574219 611.402344 736.4375 610.152344 735.238281 608.953125 C 734.039062 607.757812 732.785156 606.621094 731.476562 605.546875 C 730.167969 604.472656 728.808594 603.464844 727.398438 602.527344 C 725.988281 601.585938 724.539062 600.714844 723.042969 599.917969 C 721.546875 599.121094 720.019531 598.398438 718.453125 597.75 C 716.886719 597.101562 715.292969 596.53125 713.671875 596.039062 C 712.050781 595.550781 710.410156 595.136719 708.75 594.808594 C 707.085938 594.476562 705.414062 594.230469 703.726562 594.0625 C 702.039062 593.898438 700.347656 593.816406 698.65625 593.816406 Z M 698.65625 593.816406 "/>
</g>
<path style=" stroke:none;fill-rule:nonzero;fill:rgb(12.939453%,58.81958%,95.289612%);fill-opacity:1;" d="M 450.320312 686.851562 L 388.238281 790.226562 C 388.238281 791.578125 388.304688 792.929688 388.4375 794.277344 C 388.570312 795.625 388.769531 796.964844 389.03125 798.292969 C 389.296875 799.621094 389.625 800.933594 390.019531 802.230469 C 390.414062 803.523438 390.871094 804.796875 391.386719 806.050781 C 391.90625 807.300781 392.484375 808.523438 393.125 809.71875 C 393.761719 810.914062 394.460938 812.074219 395.210938 813.199219 C 395.964844 814.324219 396.773438 815.410156 397.632812 816.457031 C 398.492188 817.503906 399.402344 818.507812 400.359375 819.464844 C 401.320312 820.421875 402.320312 821.332031 403.371094 822.191406 C 404.417969 823.046875 405.503906 823.855469 406.632812 824.605469 C 407.757812 825.359375 408.921875 826.054688 410.117188 826.691406 C 411.3125 827.332031 412.535156 827.910156 413.789062 828.429688 C 415.039062 828.945312 416.316406 829.402344 417.613281 829.792969 C 418.910156 830.1875 420.222656 830.515625 421.550781 830.78125 C 422.882812 831.046875 424.21875 831.242188 425.570312 831.375 C 426.917969 831.507812 428.269531 831.574219 429.625 831.574219 C 430.980469 831.574219 432.335938 831.507812 433.683594 831.375 C 435.03125 831.242188 436.371094 831.046875 437.699219 830.78125 C 439.03125 830.515625 440.34375 830.1875 441.640625 829.792969 C 442.9375 829.402344 444.214844 828.945312 445.464844 828.429688 C 446.71875 827.910156 447.941406 827.332031 449.136719 826.691406 C 450.332031 826.054688 451.492188 825.359375 452.621094 824.605469 C 453.75 823.855469 454.835938 823.046875 455.882812 822.191406 C 456.929688 821.332031 457.933594 820.421875 458.894531 819.464844 C 459.851562 818.507812 460.761719 817.503906 461.621094 816.457031 C 462.480469 815.410156 463.285156 814.324219 464.039062 813.199219 C 464.792969 812.074219 465.488281 810.914062 466.128906 809.71875 C 466.765625 808.523438 467.347656 807.300781 467.863281 806.050781 C 468.382812 804.796875 468.839844 803.523438 469.234375 802.230469 C 469.625 800.933594 469.957031 799.621094 470.21875 798.292969 C 470.484375 796.964844 470.683594 795.625 470.816406 794.277344 C 470.949219 792.929688 471.015625 791.578125 471.015625 790.226562 L 491.710938 686.851562 Z M 450.320312 686.851562 "/>
<path style=" stroke:none;fill-rule:nonzero;fill:rgb(12.939453%,58.81958%,95.289612%);fill-opacity:1;" d="M 553.792969 686.851562 L 553.792969 790.226562 C 553.792969 791.578125 553.859375 792.929688 553.992188 794.277344 C 554.125 795.625 554.324219 796.964844 554.589844 798.292969 C 554.851562 799.621094 555.183594 800.933594 555.574219 802.230469 C 555.96875 803.523438 556.425781 804.796875 556.945312 806.050781 C 557.460938 807.300781 558.042969 808.523438 558.679688 809.71875 C 559.320312 810.914062 560.015625 812.074219 560.769531 813.199219 C 561.523438 814.324219 562.328125 815.410156 563.1875 816.457031 C 564.046875 817.503906 564.957031 818.507812 565.914062 819.464844 C 566.875 820.421875 567.878906 821.332031 568.925781 822.191406 C 569.972656 823.046875 571.0625 823.855469 572.1875 824.605469 C 573.316406 825.359375 574.476562 826.054688 575.671875 826.691406 C 576.867188 827.332031 578.089844 827.910156 579.34375 828.429688 C 580.597656 828.945312 581.871094 829.402344 583.167969 829.792969 C 584.464844 830.1875 585.777344 830.515625 587.109375 830.78125 C 588.4375 831.046875 589.777344 831.242188 591.125 831.375 C 592.476562 831.507812 593.828125 831.574219 595.183594 831.574219 C 596.539062 831.574219 597.890625 831.507812 599.238281 831.375 C 600.589844 831.242188 601.925781 831.046875 603.257812 830.78125 C 604.585938 830.515625 605.898438 830.1875 607.195312 829.792969 C 608.496094 829.402344 609.769531 828.945312 611.019531 828.429688 C 612.273438 827.910156 613.496094 827.332031 614.691406 826.691406 C 615.886719 826.054688 617.050781 825.359375 618.175781 824.605469 C 619.304688 823.855469 620.390625 823.046875 621.4375 822.191406 C 622.488281 821.332031 623.492188 820.421875 624.449219 819.464844 C 625.40625 818.507812 626.316406 817.503906 627.175781 816.457031 C 628.035156 815.410156 628.84375 814.324219 629.597656 813.199219 C 630.347656 812.074219 631.046875 810.914062 631.683594 809.71875 C 632.324219 808.523438 632.902344 807.300781 633.421875 806.050781 C 633.941406 804.796875 634.394531 803.523438 634.789062 802.230469 C 635.183594 800.933594 635.511719 799.621094 635.777344 798.292969 C 636.039062 796.964844 636.238281 795.625 636.371094 794.277344 C 636.503906 792.929688 636.570312 791.578125 636.570312 790.226562 L 636.570312 686.851562 Z M 553.792969 686.851562 "/>
<path style=" stroke:none;fill-rule:nonzero;fill:rgb(39.219666%,70.979309%,96.469116%);fill-opacity:1;" d="M 553.792969 686.851562 L 553.792969 790.226562 C 553.792969 791.578125 553.726562 792.929688 553.59375 794.277344 C 553.460938 795.625 553.261719 796.964844 553 798.292969 C 552.734375 799.621094 552.40625 800.933594 552.011719 802.230469 C 551.617188 803.523438 551.160156 804.796875 550.644531 806.050781 C 550.125 807.300781 549.546875 808.523438 548.90625 809.71875 C 548.265625 810.914062 547.570312 812.074219 546.816406 813.199219 C 546.066406 814.324219 545.257812 815.410156 544.398438 816.457031 C 543.539062 817.503906 542.628906 818.507812 541.671875 819.464844 C 540.710938 820.421875 539.710938 821.332031 538.660156 822.191406 C 537.613281 823.046875 536.527344 823.855469 535.398438 824.605469 C 534.273438 825.359375 533.109375 826.054688 531.914062 826.691406 C 530.71875 827.332031 529.496094 827.910156 528.242188 828.429688 C 526.992188 828.945312 525.714844 829.402344 524.417969 829.792969 C 523.121094 830.1875 521.808594 830.515625 520.480469 830.78125 C 519.148438 831.046875 517.808594 831.242188 516.460938 831.375 C 515.113281 831.507812 513.761719 831.574219 512.40625 831.574219 C 511.050781 831.574219 509.695312 831.507812 508.347656 831.375 C 507 831.242188 505.660156 831.046875 504.328125 830.78125 C 503 830.515625 501.6875 830.1875 500.390625 829.792969 C 499.09375 829.402344 497.816406 828.945312 496.566406 828.429688 C 495.3125 827.910156 494.089844 827.332031 492.894531 826.691406 C 491.699219 826.054688 490.535156 825.359375 489.410156 824.605469 C 488.28125 823.855469 487.195312 823.046875 486.148438 822.191406 C 485.101562 821.332031 484.097656 820.421875 483.136719 819.464844 C 482.179688 818.507812 481.269531 817.503906 480.410156 816.457031 C 479.550781 815.410156 478.742188 814.324219 477.992188 813.199219 C 477.238281 812.074219 476.542969 810.914062 475.902344 809.71875 C 475.261719 808.523438 474.683594 807.300781 474.167969 806.050781 C 473.648438 804.796875 473.191406 803.523438 472.796875 802.230469 C 472.402344 800.933594 472.074219 799.621094 471.8125 798.292969 C 471.546875 796.964844 471.347656 795.625 471.214844 794.277344 C 471.082031 792.929688 471.015625 791.578125 471.015625 790.226562 L 491.710938 686.851562 Z M 553.792969 686.851562 "/>
<path style=" stroke:none;fill-rule:nonzero;fill:rgb(12.939453%,58.81958%,95.289612%);fill-opacity:1;" d="M 740.042969 686.851562 L 802.128906 790.226562 C 802.128906 791.578125 802.0625 792.929688 801.929688 794.277344 C 801.796875 795.625 801.597656 796.964844 801.332031 798.292969 C 801.066406 799.621094 800.738281 800.933594 800.34375 802.230469 C 799.953125 803.523438 799.496094 804.796875 798.976562 806.050781 C 798.457031 807.300781 797.878906 808.523438 797.238281 809.71875 C 796.601562 810.914062 795.90625 812.074219 795.152344 813.199219 C 794.398438 814.324219 793.59375 815.410156 792.734375 816.457031 C 791.871094 817.503906 790.964844 818.507812 790.003906 819.464844 C 789.046875 820.421875 788.042969 821.332031 786.996094 822.191406 C 785.949219 823.046875 784.859375 823.855469 783.734375 824.605469 C 782.605469 825.359375 781.445312 826.054688 780.25 826.691406 C 779.054688 827.332031 777.828125 827.910156 776.578125 828.429688 C 775.324219 828.945312 774.050781 829.402344 772.753906 829.792969 C 771.457031 830.1875 770.140625 830.515625 768.8125 830.78125 C 767.484375 831.046875 766.144531 831.242188 764.796875 831.375 C 763.445312 831.507812 762.09375 831.574219 760.738281 831.574219 C 759.382812 831.574219 758.03125 831.507812 756.679688 831.375 C 755.332031 831.242188 753.992188 831.046875 752.664062 830.78125 C 751.335938 830.515625 750.019531 830.1875 748.722656 829.792969 C 747.425781 829.402344 746.152344 828.945312 744.898438 828.429688 C 743.648438 827.910156 742.421875 827.332031 741.226562 826.691406 C 740.03125 826.054688 738.871094 825.359375 737.742188 824.605469 C 736.617188 823.855469 735.53125 823.046875 734.480469 822.191406 C 733.433594 821.332031 732.429688 820.421875 731.472656 819.464844 C 730.511719 818.507812 729.605469 817.503906 728.746094 816.457031 C 727.882812 815.410156 727.078125 814.324219 726.324219 813.199219 C 725.570312 812.074219 724.875 810.914062 724.238281 809.71875 C 723.597656 808.523438 723.019531 807.300781 722.5 806.050781 C 721.980469 804.796875 721.523438 803.523438 721.132812 802.230469 C 720.738281 800.933594 720.410156 799.621094 720.144531 798.292969 C 719.878906 796.964844 719.679688 795.625 719.546875 794.277344 C 719.414062 792.929688 719.347656 791.578125 719.347656 790.226562 L 698.65625 686.851562 Z M 740.042969 686.851562 "/>
<path style=" stroke:none;fill-rule:nonzero;fill:rgb(39.219666%,70.979309%,96.469116%);fill-opacity:1;" d="M 636.570312 686.851562 L 636.570312 790.226562 C 636.570312 791.578125 636.636719 792.929688 636.769531 794.277344 C 636.902344 795.625 637.101562 796.964844 637.367188 798.292969 C 637.632812 799.621094 637.960938 800.933594 638.355469 802.230469 C 638.746094 803.523438 639.203125 804.796875 639.722656 806.050781 C 640.242188 807.300781 640.820312 808.523438 641.457031 809.71875 C 642.097656 810.914062 642.792969 812.074219 643.546875 813.199219 C 644.300781 814.324219 645.105469 815.410156 645.964844 816.457031 C 646.828125 817.503906 647.734375 818.507812 648.695312 819.464844 C 649.652344 820.421875 650.65625 821.332031 651.703125 822.191406 C 652.75 823.046875 653.839844 823.855469 654.964844 824.605469 C 656.09375 825.359375 657.253906 826.054688 658.449219 826.691406 C 659.644531 827.332031 660.867188 827.910156 662.121094 828.429688 C 663.375 828.945312 664.648438 829.402344 665.945312 829.792969 C 667.242188 830.1875 668.554688 830.515625 669.886719 830.78125 C 671.214844 831.046875 672.554688 831.242188 673.902344 831.375 C 675.253906 831.507812 676.605469 831.574219 677.960938 831.574219 C 679.316406 831.574219 680.667969 831.507812 682.015625 831.375 C 683.367188 831.242188 684.707031 831.046875 686.035156 830.78125 C 687.363281 830.515625 688.679688 830.1875 689.976562 829.792969 C 691.273438 829.402344 692.546875 828.945312 693.800781 828.429688 C 695.050781 827.910156 696.277344 827.332031 697.472656 826.691406 C 698.667969 826.054688 699.828125 825.359375 700.953125 824.605469 C 702.082031 823.855469 703.167969 823.046875 704.21875 822.191406 C 705.265625 821.332031 706.269531 820.421875 707.226562 819.464844 C 708.183594 818.507812 709.09375 817.503906 709.953125 816.457031 C 710.816406 815.410156 711.621094 814.324219 712.375 813.199219 C 713.128906 812.074219 713.824219 810.914062 714.460938 809.71875 C 715.101562 808.523438 715.679688 807.300781 716.199219 806.050781 C 716.71875 804.796875 717.171875 803.523438 717.566406 802.230469 C 717.960938 800.933594 718.289062 799.621094 718.554688 798.292969 C 718.820312 796.964844 719.015625 795.625 719.148438 794.277344 C 719.28125 792.929688 719.347656 791.578125 719.347656 790.226562 L 698.65625 686.851562 Z M 636.570312 686.851562 "/>
</g>
</svg>
