<?xml version="1.0" encoding="UTF-8"?>
<svg xmlns="http://www.w3.org/2000/svg" xmlns:xlink="http://www.w3.org/1999/xlink" width="1190.25pt" height="1683.749945pt" viewBox="0 0 1190.25 1683.749945" version="1.2">
<defs>
<clipPath id="clip1">
  <path d="M 357.089844 542.199219 L 833.238281 542.199219 L 833.238281 1142.074219 L 357.089844 1142.074219 Z M 357.089844 542.199219 "/>
</clipPath>
<clipPath id="clip2">
  <path d="M 357.089844 976 L 833.238281 976 L 833.238281 1142.074219 L 357.089844 1142.074219 Z M 357.089844 976 "/>
</clipPath>
<clipPath id="clip3">
  <path d="M 708 542.199219 L 833.238281 542.199219 L 833.238281 667 L 708 667 Z M 708 542.199219 "/>
</clipPath>
</defs>
<g id="surface1">
<g clip-path="url(#clip1)" clip-rule="nonzero">
<path style=" stroke:none;fill-rule:nonzero;fill:rgb(83.529663%,81.568909%,92.549133%);fill-opacity:1;" d="M 771.019531 1142.121094 L 419.34375 1142.121094 C 385.066406 1142.121094 357.285156 1114.335938 357.285156 1080.058594 L 357.285156 604.261719 C 357.285156 569.980469 385.066406 542.199219 419.34375 542.199219 L 708.960938 542.199219 L 833.078125 666.320312 L 833.078125 1080.058594 C 833.078125 1114.335938 805.296875 1142.121094 771.019531 1142.121094 "/>
</g>
<g clip-path="url(#clip2)" clip-rule="nonzero">
<path style=" stroke:none;fill-rule:nonzero;fill:rgb(32.548523%,33.329773%,68.629456%);fill-opacity:1;" d="M 771.019531 1142.121094 L 419.34375 1142.121094 C 385.066406 1142.121094 357.285156 1114.335938 357.285156 1080.058594 L 357.285156 976.625 L 833.078125 976.625 L 833.078125 1080.058594 C 833.078125 1114.335938 805.296875 1142.121094 771.019531 1142.121094 "/>
</g>
<g clip-path="url(#clip3)" clip-rule="nonzero">
<path style=" stroke:none;fill-rule:nonzero;fill:rgb(51.759338%,51.759338%,79.219055%);fill-opacity:1;" d="M 833.078125 666.320312 L 771.019531 666.320312 C 736.742188 666.320312 708.960938 638.539062 708.960938 604.261719 L 708.960938 542.199219 L 833.078125 666.320312 "/>
</g>
<path style=" stroke:none;fill-rule:nonzero;fill:rgb(51.759338%,51.759338%,79.219055%);fill-opacity:1;" d="M 646.898438 790.441406 C 646.898438 796.15625 642.269531 800.785156 636.554688 800.785156 C 630.84375 800.785156 626.210938 796.15625 626.210938 790.441406 C 626.210938 784.730469 630.84375 780.097656 636.554688 780.097656 C 642.269531 780.097656 646.898438 784.730469 646.898438 790.441406 "/>
<path style=" stroke:none;fill-rule:nonzero;fill:rgb(51.759338%,51.759338%,79.219055%);fill-opacity:1;" d="M 564.152344 790.441406 C 564.152344 796.15625 559.519531 800.785156 553.808594 800.785156 C 548.097656 800.785156 543.464844 796.15625 543.464844 790.441406 C 543.464844 784.730469 548.097656 780.097656 553.808594 780.097656 C 559.519531 780.097656 564.152344 784.730469 564.152344 790.441406 "/>
<path style=" stroke:none;fill-rule:nonzero;fill:rgb(51.759338%,51.759338%,79.219055%);fill-opacity:1;" d="M 605.527344 790.441406 C 605.527344 796.15625 600.894531 800.785156 595.183594 800.785156 C 589.46875 800.785156 584.839844 796.15625 584.839844 790.441406 C 584.839844 784.730469 589.46875 780.097656 595.183594 780.097656 C 600.894531 780.097656 605.527344 784.730469 605.527344 790.441406 "/>
<path style=" stroke:none;fill-rule:nonzero;fill:rgb(51.759338%,51.759338%,79.219055%);fill-opacity:1;" d="M 502.09375 862.847656 C 496.390625 862.847656 491.75 858.203125 491.75 852.503906 L 491.75 811.128906 C 491.75 803.183594 488.75 795.9375 483.820312 790.441406 C 488.75 784.945312 491.75 777.699219 491.75 769.753906 L 491.75 728.382812 C 491.75 722.679688 496.390625 718.039062 502.09375 718.039062 C 507.804688 718.039062 512.433594 713.40625 512.433594 707.695312 C 512.433594 701.984375 507.804688 697.351562 502.09375 697.351562 C 484.980469 697.351562 471.0625 711.269531 471.0625 728.382812 L 471.0625 769.753906 C 471.0625 775.457031 466.421875 780.097656 460.71875 780.097656 C 455.007812 780.097656 450.375 784.730469 450.375 790.441406 C 450.375 796.15625 455.007812 800.785156 460.71875 800.785156 C 466.421875 800.785156 471.0625 805.425781 471.0625 811.128906 L 471.0625 852.503906 C 471.0625 869.613281 484.980469 883.535156 502.09375 883.535156 C 507.804688 883.535156 512.433594 878.902344 512.433594 873.191406 C 512.433594 867.476562 507.804688 862.847656 502.09375 862.847656 "/>
<path style=" stroke:none;fill-rule:nonzero;fill:rgb(51.759338%,51.759338%,79.219055%);fill-opacity:1;" d="M 729.644531 780.097656 C 723.945312 780.097656 719.304688 775.457031 719.304688 769.753906 L 719.304688 728.382812 C 719.304688 711.269531 705.382812 697.351562 688.273438 697.351562 C 682.5625 697.351562 677.929688 701.984375 677.929688 707.695312 C 677.929688 713.40625 682.5625 718.039062 688.273438 718.039062 C 693.976562 718.039062 698.617188 722.679688 698.617188 728.382812 L 698.617188 769.753906 C 698.617188 777.699219 701.617188 784.945312 706.546875 790.441406 C 701.617188 795.9375 698.617188 803.183594 698.617188 811.128906 L 698.617188 852.503906 C 698.617188 858.203125 693.976562 862.847656 688.273438 862.847656 C 682.5625 862.847656 677.929688 867.476562 677.929688 873.191406 C 677.929688 878.902344 682.5625 883.535156 688.273438 883.535156 C 705.382812 883.535156 719.304688 869.613281 719.304688 852.503906 L 719.304688 811.128906 C 719.304688 805.425781 723.945312 800.785156 729.644531 800.785156 C 735.359375 800.785156 739.988281 796.15625 739.988281 790.441406 C 739.988281 784.730469 735.359375 780.097656 729.644531 780.097656 "/>
<path style=" stroke:none;fill-rule:nonzero;fill:rgb(100%,100%,100%);fill-opacity:1;" d="M 574.496094 1007.65625 C 568.785156 1007.65625 564.152344 1012.285156 564.152344 1018 L 564.152344 1080.058594 C 564.152344 1085.761719 559.511719 1090.402344 553.808594 1090.402344 C 548.105469 1090.402344 543.464844 1085.761719 543.464844 1080.058594 C 543.464844 1074.347656 538.835938 1069.714844 533.121094 1069.714844 C 527.410156 1069.714844 522.777344 1074.347656 522.777344 1080.058594 C 522.777344 1097.171875 536.699219 1111.089844 553.808594 1111.089844 C 570.921875 1111.089844 584.839844 1097.171875 584.839844 1080.058594 L 584.839844 1018 C 584.839844 1012.285156 580.207031 1007.65625 574.496094 1007.65625 "/>
<path style=" stroke:none;fill-rule:nonzero;fill:rgb(100%,100%,100%);fill-opacity:1;" d="M 636.554688 1028.339844 L 657.242188 1028.339844 C 662.953125 1028.339844 667.585938 1023.710938 667.585938 1018 C 667.585938 1012.285156 662.953125 1007.65625 657.242188 1007.65625 L 636.554688 1007.65625 C 619.445312 1007.65625 605.527344 1021.574219 605.527344 1038.683594 C 605.527344 1055.796875 619.445312 1069.714844 636.554688 1069.714844 C 642.257812 1069.714844 646.898438 1074.355469 646.898438 1080.058594 C 646.898438 1085.761719 642.257812 1090.402344 636.554688 1090.402344 L 615.871094 1090.402344 C 610.15625 1090.402344 605.527344 1095.035156 605.527344 1100.746094 C 605.527344 1106.457031 610.15625 1111.089844 615.871094 1111.089844 L 636.554688 1111.089844 C 653.667969 1111.089844 667.585938 1097.171875 667.585938 1080.058594 C 667.585938 1062.949219 653.667969 1049.027344 636.554688 1049.027344 C 630.855469 1049.027344 626.210938 1044.386719 626.210938 1038.683594 C 626.210938 1032.984375 630.855469 1028.339844 636.554688 1028.339844 "/>
</g>
</svg>
