<?xml version="1.0" encoding="UTF-8"?>
<svg xmlns="http://www.w3.org/2000/svg" xmlns:xlink="http://www.w3.org/1999/xlink" width="1190.25pt" height="1683.749945pt" viewBox="0 0 1190.25 1683.749945" version="1.2">
<defs>
<clipPath id="clip1">
  <path d="M 714 752 L 833.238281 752 L 833.238281 1021 L 714 1021 Z M 714 752 "/>
</clipPath>
<clipPath id="clip2">
  <path d="M 714 678 L 833.238281 678 L 833.238281 753 L 714 753 Z M 714 678 "/>
</clipPath>
<clipPath id="clip3">
  <path d="M 714 1020 L 833.238281 1020 L 833.238281 1036 L 714 1036 Z M 714 1020 "/>
</clipPath>
<clipPath id="clip4">
  <path d="M 357.089844 752 L 477 752 L 477 1021 L 357.089844 1021 Z M 357.089844 752 "/>
</clipPath>
<clipPath id="clip5">
  <path d="M 357.089844 678 L 477 678 L 477 753 L 357.089844 753 Z M 357.089844 678 "/>
</clipPath>
<clipPath id="clip6">
  <path d="M 357.089844 1020 L 477 1020 L 477 1036 L 357.089844 1036 Z M 357.089844 1020 "/>
</clipPath>
<clipPath id="clip7">
  <path d="M 401 604.058594 L 789 604.058594 L 789 679 L 401 679 Z M 401 604.058594 "/>
</clipPath>
<clipPath id="clip8">
  <path d="M 595 909 L 640 909 L 640 1080.207031 L 595 1080.207031 Z M 595 909 "/>
</clipPath>
<clipPath id="clip9">
  <path d="M 550 909 L 596 909 L 596 1080.207031 L 550 1080.207031 Z M 550 909 "/>
</clipPath>
</defs>
<g id="surface1">
<g clip-path="url(#clip1)" clip-rule="nonzero">
<path style=" stroke:none;fill-rule:nonzero;fill:rgb(81.17981%,82.749939%,83.918762%);fill-opacity:1;" d="M 714.230469 752.863281 L 833.273438 752.863281 L 833.273438 1020.71875 L 714.230469 1020.71875 Z M 714.230469 752.863281 "/>
</g>
<g clip-path="url(#clip2)" clip-rule="nonzero">
<path style=" stroke:none;fill-rule:nonzero;fill:rgb(27.839661%,27.059937%,27.059937%);fill-opacity:1;" d="M 833.273438 752.863281 L 714.230469 752.863281 L 714.230469 693.34375 C 714.230469 689.53125 715.679688 685.730469 718.589844 682.820312 C 721.496094 679.914062 725.300781 678.460938 729.109375 678.460938 L 818.394531 678.460938 C 822.203125 678.460938 826.003906 679.914062 828.914062 682.820312 C 831.824219 685.730469 833.273438 689.53125 833.273438 693.34375 Z M 833.273438 752.863281 "/>
</g>
<g clip-path="url(#clip3)" clip-rule="nonzero">
<path style=" stroke:none;fill-rule:nonzero;fill:rgb(81.17981%,82.749939%,83.918762%);fill-opacity:1;" d="M 833.273438 1020.71875 L 714.230469 1020.71875 C 714.230469 1024.527344 715.679688 1028.332031 718.589844 1031.238281 C 721.496094 1034.148438 725.300781 1035.601562 729.109375 1035.601562 L 818.394531 1035.601562 C 822.203125 1035.601562 826.003906 1034.148438 828.914062 1031.238281 C 831.824219 1028.332031 833.273438 1024.527344 833.273438 1020.71875 Z M 833.273438 1020.71875 "/>
</g>
<g clip-path="url(#clip4)" clip-rule="nonzero">
<path style=" stroke:none;fill-rule:nonzero;fill:rgb(81.17981%,82.749939%,83.918762%);fill-opacity:1;" d="M 357.089844 752.863281 L 476.136719 752.863281 L 476.136719 1020.71875 L 357.089844 1020.71875 Z M 357.089844 752.863281 "/>
</g>
<g clip-path="url(#clip5)" clip-rule="nonzero">
<path style=" stroke:none;fill-rule:nonzero;fill:rgb(27.839661%,27.059937%,27.059937%);fill-opacity:1;" d="M 476.136719 752.863281 L 357.089844 752.863281 L 357.089844 693.34375 C 357.089844 689.53125 358.539062 685.730469 361.449219 682.820312 C 364.359375 679.914062 368.160156 678.460938 371.972656 678.460938 L 461.253906 678.460938 C 465.066406 678.460938 468.867188 679.914062 471.777344 682.820312 C 474.683594 685.730469 476.136719 689.53125 476.136719 693.34375 Z M 476.136719 752.863281 "/>
</g>
<g clip-path="url(#clip6)" clip-rule="nonzero">
<path style=" stroke:none;fill-rule:nonzero;fill:rgb(81.17981%,82.749939%,83.918762%);fill-opacity:1;" d="M 476.136719 1020.71875 L 357.089844 1020.71875 C 357.089844 1024.527344 358.539062 1028.332031 361.449219 1031.238281 C 364.359375 1034.148438 368.160156 1035.601562 371.972656 1035.601562 L 461.253906 1035.601562 C 465.066406 1035.601562 468.867188 1034.148438 471.777344 1031.238281 C 474.683594 1028.332031 476.136719 1024.527344 476.136719 1020.71875 Z M 476.136719 1020.71875 "/>
</g>
<path style=" stroke:none;fill-rule:nonzero;fill:rgb(87.449646%,89.019775%,90.19928%);fill-opacity:1;" d="M 401.730469 678.460938 L 788.632812 678.460938 L 788.632812 1035.601562 L 401.730469 1035.601562 Z M 401.730469 678.460938 "/>
<path style=" stroke:none;fill-rule:nonzero;fill:rgb(100%,100%,100%);fill-opacity:1;" d="M 431.492188 708.222656 L 758.871094 708.222656 L 758.871094 1005.839844 L 431.492188 1005.839844 Z M 431.492188 708.222656 "/>
<g clip-path="url(#clip7)" clip-rule="nonzero">
<path style=" stroke:none;fill-rule:nonzero;fill:rgb(36.859131%,36.079407%,36.079407%);fill-opacity:1;" d="M 788.632812 678.460938 L 401.730469 678.460938 L 401.730469 618.9375 C 401.730469 615.128906 403.183594 611.328125 406.09375 608.417969 C 409 605.507812 412.804688 604.058594 416.613281 604.058594 L 773.75 604.058594 C 777.5625 604.058594 781.363281 605.507812 784.273438 608.417969 C 787.183594 611.328125 788.632812 615.128906 788.632812 618.9375 Z M 788.632812 678.460938 "/>
</g>
<path style=" stroke:none;fill-rule:nonzero;fill:rgb(81.17981%,82.749939%,83.918762%);fill-opacity:1;" d="M 788.632812 1035.601562 L 401.730469 1035.601562 C 401.730469 1039.410156 403.183594 1043.210938 406.09375 1046.121094 C 409 1049.03125 412.804688 1050.480469 416.613281 1050.480469 L 773.75 1050.480469 C 777.5625 1050.480469 781.363281 1049.03125 784.273438 1046.121094 C 787.183594 1043.210938 788.632812 1039.410156 788.632812 1035.601562 Z M 788.632812 1035.601562 "/>
<path style="fill:none;stroke-width:2;stroke-linecap:butt;stroke-linejoin:miter;stroke:rgb(100%,100%,100%);stroke-opacity:1;stroke-miterlimit:10;" d="M 9.999765 4.999789 L 12.000039 4.999789 " transform="matrix(7.440387,0,0,7.440387,357.090064,604.057449)"/>
<path style="fill:none;stroke-width:2;stroke-linecap:butt;stroke-linejoin:miter;stroke:rgb(100%,100%,100%);stroke-opacity:1;stroke-miterlimit:10;" d="M 13.999788 4.999789 L 16.000062 4.999789 " transform="matrix(7.440387,0,0,7.440387,357.090064,604.057449)"/>
<path style="fill:none;stroke-width:2;stroke-linecap:butt;stroke-linejoin:miter;stroke:rgb(100%,100%,100%);stroke-opacity:1;stroke-miterlimit:10;" d="M 17.999811 4.999789 L 20.000085 4.999789 " transform="matrix(7.440387,0,0,7.440387,357.090064,604.057449)"/>
<g clip-path="url(#clip8)" clip-rule="nonzero">
<path style=" stroke:none;fill-rule:nonzero;fill:rgb(100%,79.60968%,34.899902%);fill-opacity:1;" d="M 595.183594 909.113281 L 595.183594 1050.480469 L 632.382812 1080.242188 L 639.824219 1072.800781 L 639.824219 909.113281 Z M 595.183594 909.113281 "/>
</g>
<g clip-path="url(#clip9)" clip-rule="nonzero">
<path style=" stroke:none;fill-rule:nonzero;fill:rgb(100%,86.268616%,45.098877%);fill-opacity:1;" d="M 595.183594 909.113281 L 595.183594 1050.480469 L 557.980469 1080.242188 L 550.539062 1072.800781 L 550.539062 909.113281 Z M 595.183594 909.113281 "/>
</g>
<path style="fill:none;stroke-width:2;stroke-linecap:butt;stroke-linejoin:miter;stroke:rgb(36.859131%,36.079407%,36.079407%);stroke-opacity:1;stroke-miterlimit:10;" d="M 48.999857 31.999812 L 51.000131 31.999812 " transform="matrix(7.440387,0,0,7.440387,357.090064,604.057449)"/>
<path style="fill:none;stroke-width:2;stroke-linecap:butt;stroke-linejoin:miter;stroke:rgb(36.859131%,36.079407%,36.079407%);stroke-opacity:1;stroke-miterlimit:10;" d="M 13.000176 31.999812 L 14.999925 31.999812 " transform="matrix(7.440387,0,0,7.440387,357.090064,604.057449)"/>
<path style=" stroke:none;fill-rule:nonzero;fill:rgb(85.099792%,25.489807%,41.958618%);fill-opacity:1;" d="M 699.347656 842.148438 C 699.347656 843.855469 699.304688 845.558594 699.222656 847.261719 C 699.140625 848.964844 699.011719 850.664062 698.847656 852.359375 C 698.679688 854.054688 698.46875 855.746094 698.21875 857.433594 C 697.96875 859.121094 697.679688 860.800781 697.347656 862.472656 C 697.015625 864.144531 696.640625 865.804688 696.226562 867.460938 C 695.8125 869.113281 695.355469 870.757812 694.863281 872.386719 C 694.367188 874.019531 693.832031 875.636719 693.257812 877.242188 C 692.683594 878.847656 692.070312 880.4375 691.417969 882.011719 C 690.765625 883.585938 690.074219 885.144531 689.347656 886.6875 C 688.617188 888.226562 687.851562 889.75 687.046875 891.253906 C 686.246094 892.757812 685.40625 894.238281 684.527344 895.703125 C 683.652344 897.164062 682.738281 898.605469 681.792969 900.019531 C 680.84375 901.4375 679.863281 902.832031 678.847656 904.199219 C 677.832031 905.570312 676.785156 906.914062 675.703125 908.230469 C 674.621094 909.550781 673.507812 910.839844 672.363281 912.101562 C 671.21875 913.367188 670.042969 914.601562 668.839844 915.804688 C 667.632812 917.011719 666.398438 918.1875 665.136719 919.332031 C 663.871094 920.476562 662.582031 921.589844 661.265625 922.671875 C 659.945312 923.753906 658.601562 924.800781 657.234375 925.816406 C 655.863281 926.832031 654.472656 927.8125 653.054688 928.761719 C 651.636719 929.707031 650.195312 930.617188 648.734375 931.496094 C 647.273438 932.371094 645.789062 933.210938 644.285156 934.015625 C 642.78125 934.820312 641.261719 935.585938 639.71875 936.3125 C 638.179688 937.042969 636.621094 937.734375 635.042969 938.386719 C 633.46875 939.039062 631.878906 939.652344 630.273438 940.226562 C 628.667969 940.800781 627.050781 941.335938 625.421875 941.828125 C 623.789062 942.324219 622.144531 942.777344 620.492188 943.195312 C 618.839844 943.609375 617.175781 943.980469 615.503906 944.3125 C 613.832031 944.644531 612.152344 944.9375 610.464844 945.1875 C 608.78125 945.4375 607.089844 945.648438 605.390625 945.8125 C 603.695312 945.980469 601.996094 946.105469 600.292969 946.191406 C 598.589844 946.273438 596.886719 946.316406 595.183594 946.316406 C 593.476562 946.316406 591.773438 946.273438 590.070312 946.191406 C 588.367188 946.105469 586.667969 945.980469 584.972656 945.8125 C 583.277344 945.648438 581.585938 945.4375 579.898438 945.1875 C 578.210938 944.9375 576.53125 944.644531 574.859375 944.3125 C 573.1875 943.980469 571.527344 943.609375 569.871094 943.195312 C 568.21875 942.78125 566.574219 942.324219 564.945312 941.828125 C 563.3125 941.335938 561.695312 940.800781 560.089844 940.226562 C 558.484375 939.652344 556.894531 939.039062 555.320312 938.386719 C 553.746094 937.734375 552.1875 937.042969 550.644531 936.3125 C 549.105469 935.585938 547.582031 934.820312 546.078125 934.015625 C 544.574219 933.210938 543.09375 932.371094 541.628906 931.496094 C 540.167969 930.617188 538.730469 929.707031 537.3125 928.761719 C 535.894531 927.8125 534.5 926.832031 533.132812 925.816406 C 531.761719 924.800781 530.417969 923.753906 529.101562 922.671875 C 527.78125 921.589844 526.492188 920.476562 525.230469 919.332031 C 523.964844 918.1875 522.730469 917.011719 521.527344 915.804688 C 520.320312 914.601562 519.144531 913.367188 518 912.101562 C 516.855469 910.839844 515.742188 909.550781 514.660156 908.230469 C 513.578125 906.914062 512.53125 905.570312 511.515625 904.199219 C 510.5 902.832031 509.519531 901.4375 508.570312 900.019531 C 507.625 898.605469 506.714844 897.164062 505.835938 895.703125 C 504.960938 894.238281 504.121094 892.757812 503.316406 891.253906 C 502.511719 889.75 501.746094 888.226562 501.019531 886.6875 C 500.289062 885.144531 499.597656 883.585938 498.945312 882.011719 C 498.292969 880.4375 497.679688 878.847656 497.105469 877.242188 C 496.53125 875.636719 495.996094 874.019531 495.503906 872.386719 C 495.007812 870.757812 494.554688 869.113281 494.140625 867.460938 C 493.722656 865.804688 493.351562 864.144531 493.019531 862.472656 C 492.6875 860.800781 492.394531 859.121094 492.144531 857.433594 C 491.894531 855.746094 491.6875 854.054688 491.519531 852.359375 C 491.351562 850.664062 491.226562 848.964844 491.140625 847.261719 C 491.058594 845.558594 491.015625 843.855469 491.015625 842.148438 C 491.015625 840.445312 491.058594 838.742188 491.140625 837.039062 C 491.226562 835.335938 491.351562 833.636719 491.519531 831.941406 C 491.6875 830.242188 491.894531 828.550781 492.144531 826.867188 C 492.394531 825.179688 492.6875 823.5 493.019531 821.828125 C 493.351562 820.15625 493.722656 818.492188 494.140625 816.839844 C 494.554688 815.1875 495.007812 813.542969 495.503906 811.914062 C 495.996094 810.28125 496.53125 808.664062 497.105469 807.058594 C 497.679688 805.453125 498.292969 803.863281 498.945312 802.289062 C 499.597656 800.710938 500.289062 799.15625 501.019531 797.613281 C 501.746094 796.074219 502.511719 794.550781 503.316406 793.046875 C 504.121094 791.542969 504.960938 790.058594 505.835938 788.597656 C 506.714844 787.136719 507.625 785.695312 508.570312 784.277344 C 509.519531 782.859375 510.5 781.46875 511.515625 780.097656 C 512.53125 778.730469 513.578125 777.386719 514.660156 776.066406 C 515.742188 774.75 516.855469 773.460938 518 772.195312 C 519.144531 770.933594 520.320312 769.699219 521.527344 768.492188 C 522.730469 767.289062 523.964844 766.113281 525.230469 764.96875 C 526.492188 763.824219 527.78125 762.710938 529.101562 761.628906 C 530.417969 760.546875 531.761719 759.5 533.132812 758.484375 C 534.5 757.46875 535.894531 756.488281 537.3125 755.539062 C 538.730469 754.59375 540.167969 753.679688 541.628906 752.804688 C 543.09375 751.929688 544.574219 751.085938 546.078125 750.285156 C 547.582031 749.480469 549.105469 748.714844 550.644531 747.984375 C 552.1875 747.257812 553.746094 746.566406 555.320312 745.914062 C 556.894531 745.261719 558.484375 744.648438 560.089844 744.074219 C 561.695312 743.5 563.3125 742.964844 564.945312 742.46875 C 566.574219 741.976562 568.21875 741.519531 569.871094 741.105469 C 571.527344 740.691406 573.1875 740.320312 574.859375 739.984375 C 576.53125 739.652344 578.210938 739.363281 579.898438 739.113281 C 581.585938 738.863281 583.277344 738.652344 584.972656 738.484375 C 586.667969 738.320312 588.367188 738.195312 590.070312 738.109375 C 591.773438 738.027344 593.476562 737.984375 595.183594 737.984375 C 596.886719 737.984375 598.589844 738.027344 600.292969 738.109375 C 601.996094 738.195312 603.695312 738.320312 605.390625 738.484375 C 607.089844 738.652344 608.78125 738.863281 610.464844 739.113281 C 612.152344 739.363281 613.832031 739.652344 615.503906 739.984375 C 617.175781 740.320312 618.839844 740.691406 620.492188 741.105469 C 622.144531 741.519531 623.789062 741.976562 625.421875 742.46875 C 627.050781 742.964844 628.667969 743.5 630.273438 744.074219 C 631.878906 744.648438 633.46875 745.261719 635.042969 745.914062 C 636.621094 746.566406 638.179688 747.257812 639.71875 747.984375 C 641.261719 748.714844 642.78125 749.480469 644.285156 750.285156 C 645.789062 751.085938 647.273438 751.929688 648.734375 752.804688 C 650.195312 753.679688 651.636719 754.59375 653.054688 755.539062 C 654.472656 756.488281 655.863281 757.46875 657.234375 758.484375 C 658.601562 759.5 659.945312 760.546875 661.265625 761.628906 C 662.582031 762.710938 663.871094 763.824219 665.136719 764.96875 C 666.398438 766.113281 667.632812 767.289062 668.839844 768.492188 C 670.042969 769.699219 671.21875 770.933594 672.363281 772.195312 C 673.507812 773.460938 674.621094 774.75 675.703125 776.066406 C 676.785156 777.386719 677.832031 778.730469 678.847656 780.097656 C 679.863281 781.46875 680.847656 782.859375 681.792969 784.277344 C 682.738281 785.695312 683.652344 787.136719 684.527344 788.597656 C 685.40625 790.058594 686.246094 791.542969 687.046875 793.046875 C 687.851562 794.550781 688.617188 796.074219 689.347656 797.613281 C 690.074219 799.15625 690.765625 800.710938 691.417969 802.289062 C 692.070312 803.863281 692.683594 805.453125 693.257812 807.058594 C 693.832031 808.664062 694.367188 810.28125 694.863281 811.914062 C 695.355469 813.542969 695.8125 815.1875 696.226562 816.839844 C 696.640625 818.492188 697.015625 820.15625 697.347656 821.828125 C 697.679688 823.5 697.96875 825.179688 698.21875 826.867188 C 698.46875 828.550781 698.679688 830.242188 698.847656 831.941406 C 699.011719 833.636719 699.140625 835.335938 699.222656 837.039062 C 699.304688 838.742188 699.347656 840.445312 699.347656 842.148438 Z M 699.347656 842.148438 "/>
<path style=" stroke:none;fill-rule:nonzero;fill:rgb(95.689392%,37.649536%,54.119873%);fill-opacity:1;" d="M 669.585938 842.148438 C 669.585938 843.367188 669.554688 844.585938 669.496094 845.800781 C 669.4375 847.015625 669.347656 848.230469 669.226562 849.441406 C 669.109375 850.65625 668.960938 851.863281 668.78125 853.066406 C 668.601562 854.273438 668.394531 855.472656 668.15625 856.664062 C 667.917969 857.859375 667.652344 859.046875 667.355469 860.226562 C 667.0625 861.410156 666.734375 862.582031 666.382812 863.75 C 666.027344 864.914062 665.648438 866.070312 665.238281 867.214844 C 664.828125 868.363281 664.386719 869.496094 663.921875 870.621094 C 663.457031 871.746094 662.964844 872.859375 662.441406 873.960938 C 661.921875 875.0625 661.375 876.148438 660.800781 877.222656 C 660.226562 878.296875 659.625 879.355469 659 880.402344 C 658.375 881.445312 657.722656 882.472656 657.046875 883.488281 C 656.371094 884.5 655.667969 885.492188 654.945312 886.472656 C 654.21875 887.449219 653.46875 888.410156 652.699219 889.351562 C 651.925781 890.292969 651.128906 891.214844 650.3125 892.117188 C 649.496094 893.019531 648.65625 893.898438 647.792969 894.761719 C 646.933594 895.621094 646.050781 896.460938 645.148438 897.28125 C 644.246094 898.097656 643.324219 898.890625 642.382812 899.664062 C 641.441406 900.4375 640.484375 901.1875 639.503906 901.910156 C 638.527344 902.636719 637.53125 903.335938 636.519531 904.015625 C 635.507812 904.691406 634.476562 905.34375 633.433594 905.96875 C 632.390625 906.59375 631.328125 907.195312 630.257812 907.769531 C 629.183594 908.34375 628.09375 908.890625 626.996094 909.410156 C 625.894531 909.929688 624.78125 910.425781 623.65625 910.890625 C 622.53125 911.355469 621.394531 911.792969 620.25 912.203125 C 619.101562 912.613281 617.945312 912.996094 616.78125 913.351562 C 615.617188 913.703125 614.441406 914.027344 613.261719 914.324219 C 612.078125 914.621094 610.890625 914.886719 609.699219 915.125 C 608.503906 915.363281 607.304688 915.570312 606.101562 915.75 C 604.894531 915.925781 603.6875 916.074219 602.476562 916.195312 C 601.261719 916.316406 600.050781 916.40625 598.832031 916.464844 C 597.617188 916.523438 596.398438 916.554688 595.183594 916.554688 C 593.964844 916.554688 592.746094 916.523438 591.53125 916.464844 C 590.316406 916.40625 589.101562 916.316406 587.890625 916.195312 C 586.679688 916.074219 585.46875 915.925781 584.265625 915.75 C 583.0625 915.570312 581.859375 915.363281 580.667969 915.125 C 579.472656 914.886719 578.285156 914.621094 577.105469 914.324219 C 575.921875 914.027344 574.75 913.703125 573.585938 913.351562 C 572.417969 912.996094 571.261719 912.613281 570.117188 912.203125 C 568.96875 911.792969 567.835938 911.355469 566.710938 910.890625 C 565.585938 910.425781 564.472656 909.929688 563.371094 909.410156 C 562.269531 908.890625 561.183594 908.34375 560.109375 907.769531 C 559.035156 907.195312 557.976562 906.59375 556.929688 905.96875 C 555.886719 905.34375 554.859375 904.691406 553.847656 904.015625 C 552.832031 903.335938 551.839844 902.636719 550.859375 901.910156 C 549.882812 901.1875 548.921875 900.4375 547.980469 899.664062 C 547.039062 898.890625 546.117188 898.097656 545.214844 897.28125 C 544.3125 896.460938 543.433594 895.621094 542.570312 894.761719 C 541.710938 893.898438 540.871094 893.019531 540.054688 892.117188 C 539.234375 891.214844 538.441406 890.292969 537.667969 889.351562 C 536.894531 888.410156 536.144531 887.449219 535.421875 886.472656 C 534.695312 885.492188 533.996094 884.5 533.316406 883.488281 C 532.640625 882.472656 531.988281 881.445312 531.363281 880.402344 C 530.738281 879.355469 530.136719 878.296875 529.5625 877.222656 C 528.988281 876.148438 528.441406 875.0625 527.921875 873.960938 C 527.402344 872.859375 526.910156 871.746094 526.441406 870.621094 C 525.976562 869.496094 525.539062 868.363281 525.128906 867.214844 C 524.71875 866.070312 524.335938 864.914062 523.980469 863.75 C 523.628906 862.582031 523.304688 861.410156 523.007812 860.226562 C 522.710938 859.046875 522.445312 857.859375 522.207031 856.664062 C 521.96875 855.472656 521.761719 854.273438 521.582031 853.066406 C 521.40625 851.863281 521.257812 850.65625 521.136719 849.441406 C 521.015625 848.230469 520.929688 847.015625 520.867188 845.800781 C 520.808594 844.585938 520.777344 843.367188 520.777344 842.148438 C 520.777344 840.933594 520.808594 839.714844 520.867188 838.5 C 520.929688 837.28125 521.015625 836.070312 521.136719 834.855469 C 521.257812 833.644531 521.40625 832.4375 521.582031 831.234375 C 521.761719 830.027344 521.96875 828.828125 522.207031 827.632812 C 522.445312 826.441406 522.710938 825.253906 523.007812 824.070312 C 523.304688 822.890625 523.628906 821.714844 523.980469 820.550781 C 524.335938 819.386719 524.71875 818.230469 525.128906 817.082031 C 525.539062 815.9375 525.976562 814.800781 526.441406 813.675781 C 526.910156 812.550781 527.402344 811.4375 527.921875 810.339844 C 528.441406 809.238281 528.988281 808.148438 529.5625 807.074219 C 530.136719 806.003906 530.738281 804.941406 531.363281 803.898438 C 531.988281 802.855469 532.640625 801.824219 533.316406 800.8125 C 533.996094 799.800781 534.695312 798.804688 535.421875 797.828125 C 536.144531 796.847656 536.894531 795.890625 537.667969 794.949219 C 538.441406 794.007812 539.234375 793.085938 540.054688 792.183594 C 540.871094 791.28125 541.710938 790.398438 542.570312 789.539062 C 543.433594 788.675781 544.3125 787.839844 545.214844 787.019531 C 546.117188 786.203125 547.039062 785.40625 547.980469 784.636719 C 548.921875 783.863281 549.882812 783.113281 550.859375 782.386719 C 551.839844 781.664062 552.832031 780.960938 553.847656 780.285156 C 554.859375 779.609375 555.886719 778.957031 556.929688 778.332031 C 557.976562 777.707031 559.035156 777.105469 560.109375 776.53125 C 561.183594 775.957031 562.269531 775.410156 563.371094 774.890625 C 564.472656 774.367188 565.585938 773.875 566.710938 773.410156 C 567.835938 772.945312 568.96875 772.503906 570.117188 772.09375 C 571.261719 771.683594 572.417969 771.304688 573.585938 770.949219 C 574.75 770.597656 575.921875 770.273438 577.105469 769.976562 C 578.285156 769.679688 579.472656 769.414062 580.667969 769.175781 C 581.859375 768.9375 583.0625 768.730469 584.265625 768.550781 C 585.46875 768.371094 586.679688 768.222656 587.890625 768.105469 C 589.101562 767.984375 590.316406 767.894531 591.53125 767.835938 C 592.746094 767.777344 593.964844 767.746094 595.183594 767.746094 C 596.398438 767.746094 597.617188 767.777344 598.832031 767.835938 C 600.050781 767.894531 601.261719 767.984375 602.476562 768.105469 C 603.6875 768.222656 604.894531 768.371094 606.101562 768.550781 C 607.304688 768.730469 608.503906 768.9375 609.699219 769.175781 C 610.890625 769.414062 612.078125 769.679688 613.261719 769.976562 C 614.441406 770.273438 615.617188 770.597656 616.78125 770.949219 C 617.945312 771.304688 619.101562 771.683594 620.25 772.09375 C 621.394531 772.503906 622.53125 772.945312 623.65625 773.410156 C 624.78125 773.875 625.894531 774.367188 626.996094 774.890625 C 628.09375 775.410156 629.183594 775.957031 630.257812 776.53125 C 631.328125 777.105469 632.390625 777.707031 633.433594 778.332031 C 634.476562 778.957031 635.507812 779.609375 636.519531 780.285156 C 637.53125 780.960938 638.527344 781.664062 639.503906 782.386719 C 640.484375 783.113281 641.441406 783.863281 642.382812 784.636719 C 643.324219 785.40625 644.246094 786.203125 645.148438 787.019531 C 646.050781 787.839844 646.933594 788.675781 647.792969 789.539062 C 648.65625 790.398438 649.496094 791.28125 650.3125 792.183594 C 651.128906 793.085938 651.925781 794.007812 652.699219 794.949219 C 653.46875 795.890625 654.21875 796.847656 654.945312 797.828125 C 655.667969 798.804688 656.371094 799.800781 657.046875 800.8125 C 657.722656 801.824219 658.375 802.855469 659 803.898438 C 659.625 804.941406 660.226562 806.003906 660.800781 807.074219 C 661.375 808.148438 661.921875 809.238281 662.441406 810.339844 C 662.964844 811.4375 663.457031 812.550781 663.921875 813.675781 C 664.386719 814.800781 664.828125 815.9375 665.238281 817.082031 C 665.648438 818.230469 666.027344 819.386719 666.382812 820.550781 C 666.734375 821.714844 667.0625 822.890625 667.355469 824.070312 C 667.652344 825.253906 667.917969 826.441406 668.15625 827.632812 C 668.394531 828.828125 668.601562 830.027344 668.78125 831.234375 C 668.960938 832.4375 669.109375 833.644531 669.226562 834.855469 C 669.347656 836.070312 669.4375 837.28125 669.496094 838.5 C 669.554688 839.714844 669.585938 840.933594 669.585938 842.148438 Z M 669.585938 842.148438 "/>
<path style="fill:none;stroke-width:2;stroke-linecap:butt;stroke-linejoin:miter;stroke:rgb(100%,100%,100%);stroke-opacity:1;stroke-miterlimit:10;" d="M 28.999743 27.999789 L 32.000153 27.999789 L 32.000153 35.999835 " transform="matrix(7.440387,0,0,7.440387,357.090064,604.057449)"/>
<path style="fill:none;stroke-width:2;stroke-linecap:butt;stroke-linejoin:miter;stroke:rgb(100%,100%,100%);stroke-opacity:1;stroke-miterlimit:10;" d="M 28.999743 35.999835 L 35.000039 35.999835 " transform="matrix(7.440387,0,0,7.440387,357.090064,604.057449)"/>
</g>
</svg>
