<?xml version="1.0" encoding="UTF-8"?>
<svg xmlns="http://www.w3.org/2000/svg" xmlns:xlink="http://www.w3.org/1999/xlink" width="1190.25pt" height="1683.749945pt" viewBox="0 0 1190.25 1683.749945" version="1.2">
<defs>
<clipPath id="clip1">
  <path d="M 357.089844 604.058594 L 833.238281 604.058594 L 833.238281 1080.207031 L 357.089844 1080.207031 Z M 357.089844 604.058594 "/>
</clipPath>
<clipPath id="clip2">
  <path d="M 372.085938 619.054688 L 848.238281 619.054688 L 848.238281 1095.203125 L 372.085938 1095.203125 Z M 372.085938 619.054688 "/>
</clipPath>
</defs>
<g id="surface1">
<g clip-path="url(#clip1)" clip-rule="nonzero">
<path style=" stroke:none;fill-rule:nonzero;fill:rgb(21.958923%,16.859436%,45.098877%);fill-opacity:1;" d="M 833.273438 842.148438 C 833.273438 973.644531 726.675781 1080.242188 595.183594 1080.242188 C 463.6875 1080.242188 357.089844 973.644531 357.089844 842.148438 C 357.089844 710.65625 463.6875 604.058594 595.183594 604.058594 C 726.675781 604.058594 833.273438 710.65625 833.273438 842.148438 "/>
</g>
<path style=" stroke:none;fill-rule:nonzero;fill:rgb(27.839661%,18.818665%,50.19989%);fill-opacity:1;" d="M 801.167969 842.148438 C 801.167969 955.914062 708.945312 1048.136719 595.183594 1048.136719 C 481.417969 1048.136719 389.195312 955.914062 389.195312 842.148438 C 389.195312 728.386719 481.417969 636.164062 595.183594 636.164062 C 708.945312 636.164062 801.167969 728.386719 801.167969 842.148438 "/>
<path style=" stroke:none;fill-rule:nonzero;fill:rgb(21.958923%,16.859436%,45.098877%);fill-opacity:1;" d="M 707.292969 772.992188 L 656.761719 772.992188 L 656.761719 721.863281 C 656.761719 717.429688 653.164062 713.832031 648.730469 713.832031 L 541.636719 713.832031 C 537.199219 713.832031 533.601562 717.429688 533.601562 721.863281 L 533.601562 772.992188 L 483.074219 772.992188 C 474.140625 772.992188 466.898438 780.234375 466.898438 789.167969 L 466.898438 970.246094 C 466.898438 979.179688 474.140625 986.421875 483.074219 986.421875 L 707.292969 986.421875 C 716.226562 986.421875 723.46875 979.179688 723.46875 970.246094 L 723.46875 789.167969 C 723.46875 780.234375 716.226562 772.992188 707.292969 772.992188 "/>
<path style=" stroke:none;fill-rule:nonzero;fill:rgb(81.959534%,82.749939%,83.139038%);fill-opacity:1;" d="M 707.289062 972.460938 L 483.074219 972.460938 C 474.140625 972.460938 466.898438 965.21875 466.898438 956.285156 L 466.898438 783.183594 C 466.898438 774.253906 474.140625 767.007812 483.074219 767.007812 L 707.289062 767.007812 C 716.226562 767.007812 723.46875 774.253906 723.46875 783.183594 L 723.46875 956.285156 C 723.46875 965.21875 716.226562 972.460938 707.289062 972.460938 "/>
<path style=" stroke:none;fill-rule:nonzero;fill:rgb(100%,100%,100%);fill-opacity:1;" d="M 707.289062 964.484375 L 483.074219 964.484375 C 474.140625 964.484375 466.898438 957.246094 466.898438 948.308594 L 466.898438 775.207031 C 466.898438 766.273438 474.140625 759.035156 483.074219 759.035156 L 707.289062 759.035156 C 716.226562 759.035156 723.46875 766.273438 723.46875 775.207031 L 723.46875 948.308594 C 723.46875 957.246094 716.226562 964.484375 707.289062 964.484375 "/>
<path style=" stroke:none;fill-rule:nonzero;fill:rgb(96.859741%,79.60968%,8.239746%);fill-opacity:1;" d="M 503.707031 824.847656 L 506.894531 834.660156 C 507.078125 835.222656 507.601562 835.601562 508.191406 835.601562 L 518.507812 835.601562 C 519.828125 835.601562 520.378906 837.292969 519.308594 838.066406 L 510.960938 844.132812 C 510.484375 844.480469 510.285156 845.097656 510.464844 845.65625 L 513.65625 855.46875 C 514.0625 856.726562 512.625 857.769531 511.558594 856.996094 L 503.210938 850.929688 C 502.734375 850.582031 502.085938 850.582031 501.609375 850.929688 L 493.261719 856.996094 C 492.191406 857.769531 490.753906 856.726562 491.164062 855.46875 L 494.351562 845.65625 C 494.535156 845.097656 494.335938 844.480469 493.855469 844.132812 L 485.507812 838.066406 C 484.441406 837.292969 484.992188 835.601562 486.3125 835.601562 L 496.628906 835.601562 C 497.21875 835.601562 497.742188 835.222656 497.925781 834.660156 L 501.113281 824.847656 C 501.519531 823.59375 503.296875 823.59375 503.707031 824.847656 "/>
<path style=" stroke:none;fill-rule:nonzero;fill:rgb(96.859741%,79.60968%,8.239746%);fill-opacity:1;" d="M 550.09375 824.847656 L 553.28125 834.660156 C 553.460938 835.222656 553.988281 835.601562 554.578125 835.601562 L 564.894531 835.601562 C 566.214844 835.601562 566.765625 837.292969 565.695312 838.066406 L 557.347656 844.132812 C 556.871094 844.480469 556.671875 845.097656 556.855469 845.65625 L 560.042969 855.46875 C 560.449219 856.726562 559.011719 857.769531 557.941406 856.996094 L 549.597656 850.929688 C 549.121094 850.582031 548.472656 850.582031 547.996094 850.929688 L 539.648438 856.996094 C 538.578125 857.769531 537.140625 856.726562 537.550781 855.46875 L 540.738281 845.65625 C 540.921875 845.097656 540.71875 844.480469 540.242188 844.132812 L 531.894531 838.066406 C 530.828125 837.292969 531.378906 835.601562 532.695312 835.601562 L 543.015625 835.601562 C 543.605469 835.601562 544.128906 835.222656 544.3125 834.660156 L 547.5 824.847656 C 547.90625 823.59375 549.683594 823.59375 550.09375 824.847656 "/>
<path style=" stroke:none;fill-rule:nonzero;fill:rgb(96.859741%,79.60968%,8.239746%);fill-opacity:1;" d="M 596.476562 824.847656 L 599.667969 834.660156 C 599.847656 835.222656 600.371094 835.601562 600.960938 835.601562 L 611.28125 835.601562 C 612.601562 835.601562 613.148438 837.292969 612.082031 838.066406 L 603.734375 844.132812 C 603.257812 844.480469 603.058594 845.097656 603.238281 845.65625 L 606.429688 855.46875 C 606.835938 856.726562 605.398438 857.769531 604.332031 856.996094 L 595.980469 850.929688 C 595.503906 850.582031 594.859375 850.582031 594.382812 850.929688 L 586.03125 856.996094 C 584.964844 857.769531 583.527344 856.726562 583.9375 855.46875 L 587.125 845.65625 C 587.308594 845.097656 587.105469 844.480469 586.628906 844.132812 L 578.28125 838.066406 C 577.214844 837.292969 577.761719 835.601562 579.082031 835.601562 L 589.402344 835.601562 C 589.992188 835.601562 590.515625 835.222656 590.699219 834.660156 L 593.886719 824.847656 C 594.292969 823.59375 596.070312 823.59375 596.476562 824.847656 "/>
<path style=" stroke:none;fill-rule:nonzero;fill:rgb(96.859741%,79.60968%,8.239746%);fill-opacity:1;" d="M 642.863281 824.847656 L 646.054688 834.660156 C 646.238281 835.222656 646.757812 835.605469 647.347656 835.605469 L 657.667969 835.605469 C 658.988281 835.605469 659.535156 837.292969 658.46875 838.066406 L 650.121094 844.132812 C 649.644531 844.480469 649.441406 845.097656 649.625 845.65625 L 652.8125 855.46875 C 653.222656 856.726562 651.785156 857.769531 650.714844 856.992188 L 642.371094 850.929688 C 641.890625 850.582031 641.242188 850.582031 640.765625 850.929688 L 632.421875 856.992188 C 631.351562 857.769531 629.914062 856.726562 630.320312 855.46875 L 633.511719 845.65625 C 633.695312 845.097656 633.492188 844.480469 633.015625 844.132812 L 624.667969 838.066406 C 623.601562 837.292969 624.148438 835.605469 625.46875 835.605469 L 635.785156 835.605469 C 636.378906 835.605469 636.902344 835.222656 637.082031 834.660156 L 640.269531 824.847656 C 640.679688 823.59375 642.457031 823.59375 642.863281 824.847656 "/>
<path style=" stroke:none;fill-rule:nonzero;fill:rgb(81.959534%,82.749939%,83.139038%);fill-opacity:1;" d="M 689.25 824.847656 L 692.4375 834.660156 C 692.621094 835.222656 693.144531 835.601562 693.734375 835.601562 L 704.054688 835.601562 C 705.375 835.601562 705.921875 837.292969 704.851562 838.066406 L 696.507812 844.132812 C 696.03125 844.480469 695.832031 845.097656 696.011719 845.65625 L 699.203125 855.46875 C 699.609375 856.726562 698.171875 857.769531 697.105469 856.992188 L 688.753906 850.929688 C 688.277344 850.582031 687.628906 850.582031 687.152344 850.929688 L 678.804688 856.992188 C 677.738281 857.769531 676.300781 856.726562 676.710938 855.46875 L 679.898438 845.65625 C 680.078125 845.097656 679.878906 844.480469 679.402344 844.132812 L 671.054688 838.066406 C 669.988281 837.292969 670.535156 835.601562 671.855469 835.601562 L 682.171875 835.601562 C 682.761719 835.601562 683.289062 835.222656 683.46875 834.660156 L 686.660156 824.847656 C 687.066406 823.59375 688.84375 823.59375 689.25 824.847656 "/>
<path style=" stroke:none;fill-rule:nonzero;fill:rgb(90.19928%,90.589905%,90.979004%);fill-opacity:1;" d="M 644.359375 945.71875 L 546.003906 945.71875 C 542.703125 945.71875 540.023438 943.039062 540.023438 939.734375 C 540.023438 936.429688 542.703125 933.753906 546.003906 933.753906 L 644.359375 933.753906 C 647.664062 933.753906 650.34375 936.429688 650.34375 939.734375 C 650.34375 943.039062 647.664062 945.71875 644.359375 945.71875 "/>
<path style=" stroke:none;fill-rule:nonzero;fill:rgb(81.959534%,82.749939%,83.139038%);fill-opacity:1;" d="M 668.589844 892.421875 L 529.242188 892.421875 C 525.9375 892.421875 523.261719 889.742188 523.261719 886.4375 C 523.261719 883.132812 525.9375 880.457031 529.242188 880.457031 L 668.589844 880.457031 C 671.894531 880.457031 674.570312 883.132812 674.570312 886.4375 C 674.570312 889.742188 671.894531 892.421875 668.589844 892.421875 "/>
<path style=" stroke:none;fill-rule:nonzero;fill:rgb(81.959534%,82.749939%,83.139038%);fill-opacity:1;" d="M 596.632812 914.355469 L 507.398438 914.355469 C 504.09375 914.355469 501.417969 911.679688 501.417969 908.375 C 501.417969 905.070312 504.09375 902.390625 507.398438 902.390625 L 596.632812 902.390625 C 599.9375 902.390625 602.617188 905.070312 602.617188 908.375 C 602.617188 911.679688 599.9375 914.355469 596.632812 914.355469 "/>
<path style=" stroke:none;fill-rule:nonzero;fill:rgb(81.959534%,82.749939%,83.139038%);fill-opacity:1;" d="M 682.964844 914.355469 L 619.988281 914.355469 C 616.6875 914.355469 614.007812 911.679688 614.007812 908.375 C 614.007812 905.070312 616.6875 902.390625 619.988281 902.390625 L 682.964844 902.390625 C 686.269531 902.390625 688.949219 905.070312 688.949219 908.375 C 688.949219 911.679688 686.269531 914.355469 682.964844 914.355469 "/>
<path style=" stroke:none;fill-rule:nonzero;fill:rgb(90.19928%,90.589905%,90.979004%);fill-opacity:1;" d="M 648.730469 816.519531 L 541.636719 816.519531 C 537.199219 816.519531 533.601562 812.921875 533.601562 808.488281 L 533.601562 713.886719 C 533.601562 709.453125 537.199219 705.855469 541.636719 705.855469 L 648.730469 705.855469 C 653.164062 705.855469 656.761719 709.453125 656.761719 713.886719 L 656.761719 808.488281 C 656.761719 812.921875 653.164062 816.519531 648.730469 816.519531 "/>
<path style=" stroke:none;fill-rule:nonzero;fill:rgb(10.978699%,68.238831%,89.408875%);fill-opacity:1;" d="M 648.730469 810.535156 L 541.636719 810.535156 C 537.199219 810.535156 533.601562 806.941406 533.601562 802.503906 L 533.601562 707.90625 C 533.601562 703.46875 537.199219 699.871094 541.636719 699.871094 L 648.730469 699.871094 C 653.164062 699.871094 656.761719 703.46875 656.761719 707.90625 L 656.761719 802.503906 C 656.761719 806.941406 653.164062 810.535156 648.730469 810.535156 "/>
<path style=" stroke:none;fill-rule:nonzero;fill:rgb(0%,60.389709%,86.669922%);fill-opacity:1;" d="M 642.203125 766.757812 C 642.203125 766.285156 642.128906 765.832031 642.023438 765.394531 C 642.015625 765.363281 642.019531 765.332031 642.011719 765.304688 C 642.007812 765.3125 642.007812 765.320312 642.003906 765.328125 C 641.363281 762.847656 639.128906 761.003906 636.445312 761.003906 L 632.722656 761.003906 C 633.519531 761.003906 634.277344 760.839844 634.964844 760.550781 C 637.03125 759.675781 638.480469 757.628906 638.480469 755.246094 C 638.480469 754.773438 638.410156 754.320312 638.300781 753.878906 C 638.292969 753.851562 638.296875 753.820312 638.289062 753.792969 C 638.289062 753.800781 638.285156 753.808594 638.28125 753.816406 C 637.644531 751.332031 635.40625 749.488281 632.722656 749.488281 L 614.226562 749.488281 L 624.84375 736.699219 C 625.296875 736.160156 625.683594 735.585938 626.015625 734.992188 C 628.34375 730.835938 627.835938 725.558594 624.542969 721.910156 L 624.261719 721.601562 L 624.035156 721.347656 C 624.027344 721.34375 624.019531 721.339844 624.015625 721.332031 C 623.785156 721.089844 623.519531 720.910156 623.242188 720.761719 C 623.148438 720.710938 623.058594 720.664062 622.957031 720.625 C 622.90625 720.605469 622.859375 720.570312 622.808594 720.550781 C 622.816406 720.566406 622.820312 720.578125 622.828125 720.59375 C 621.859375 720.253906 620.746094 720.402344 619.929688 721.136719 C 613.140625 729.476562 605.34375 736.945312 596.722656 743.371094 L 588.519531 749.488281 L 571.945312 749.488281 L 571.945312 748.21875 C 571.945312 746.613281 570.644531 745.3125 569.039062 745.3125 L 551.066406 745.3125 C 549.460938 745.3125 548.160156 746.613281 548.160156 748.21875 L 548.160156 785.796875 C 548.160156 787.402344 549.460938 788.703125 551.066406 788.703125 L 569.039062 788.703125 C 570.644531 788.703125 571.945312 787.402344 571.945312 785.796875 L 571.945312 783.980469 L 578.792969 783.980469 C 580.148438 783.980469 581.417969 784.5625 582.304688 785.535156 C 582.601562 785.859375 582.855469 786.226562 583.054688 786.632812 C 583.722656 787.996094 584.574219 789.234375 585.566406 790.328125 C 587.054688 791.960938 588.867188 793.265625 590.875 794.160156 C 592.210938 794.757812 593.636719 795.171875 595.113281 795.382812 C 595.851562 795.488281 596.605469 795.542969 597.363281 795.542969 L 621.269531 795.542969 C 621.269531 795.542969 621.269531 795.542969 621.273438 795.542969 L 626.894531 795.542969 L 626.894531 795.488281 C 629.4375 795.257812 631.507812 793.398438 632.011719 790.945312 C 632.085938 790.566406 632.128906 790.179688 632.128906 789.785156 C 632.128906 789.3125 632.054688 788.859375 631.945312 788.417969 C 631.941406 788.390625 631.941406 788.359375 631.9375 788.332031 C 631.933594 788.339844 631.929688 788.347656 631.925781 788.355469 C 631.332031 786.035156 629.339844 784.304688 626.894531 784.078125 L 626.894531 784.027344 L 631.90625 784.027344 C 635.085938 784.027344 637.664062 781.453125 637.664062 778.269531 C 637.664062 777.796875 637.59375 777.347656 637.484375 776.90625 C 637.476562 776.878906 637.480469 776.847656 637.472656 776.820312 C 637.472656 776.828125 637.464844 776.832031 637.464844 776.84375 C 636.824219 774.359375 634.589844 772.515625 631.90625 772.515625 L 636.445312 772.515625 C 639.625 772.515625 642.203125 769.9375 642.203125 766.757812 "/>
<path style=" stroke:none;fill-rule:nonzero;fill:rgb(100%,100%,100%);fill-opacity:1;" d="M 624.847656 728.71875 C 628.433594 724.398438 628.300781 718.101562 624.539062 713.933594 L 624.03125 713.371094 C 622.957031 712.179688 621.121094 712.085938 619.929688 713.160156 C 613.140625 721.5 605.34375 728.964844 596.722656 735.394531 L 588.519531 741.511719 L 571.945312 741.511719 L 571.945312 776.003906 L 578.792969 776.003906 C 580.601562 776.003906 582.253906 777.03125 583.050781 778.65625 C 585.734375 784.109375 591.285156 787.566406 597.363281 787.566406 L 626.890625 787.566406 L 626.890625 741.511719 L 614.226562 741.511719 L 624.847656 728.71875 "/>
<path style=" stroke:none;fill-rule:nonzero;fill:rgb(81.959534%,82.749939%,83.139038%);fill-opacity:1;" d="M 626.890625 741.515625 L 626.890625 787.5625 L 600.5625 787.5625 C 605.71875 785.441406 609.34375 780.382812 609.34375 774.460938 C 609.34375 768.59375 605.777344 763.5625 600.695312 761.414062 C 599.730469 761.007812 599.730469 759.597656 600.695312 759.191406 C 605.386719 757.207031 608.78125 752.761719 609.277344 747.476562 C 609.320312 747.039062 609.34375 746.589844 609.34375 746.140625 C 609.34375 744.628906 609.109375 743.175781 608.660156 741.8125 C 608.632812 741.710938 608.601562 741.609375 608.566406 741.515625 L 626.890625 741.515625 "/>
<path style=" stroke:none;fill-rule:nonzero;fill:rgb(81.959534%,82.749939%,83.139038%);fill-opacity:1;" d="M 583.054688 775.027344 C 582.253906 773.402344 580.601562 772.375 578.792969 772.375 L 571.945312 772.375 L 571.945312 776.007812 L 578.792969 776.007812 C 580.601562 776.007812 582.253906 777.035156 583.054688 778.65625 C 585.738281 784.109375 591.285156 787.566406 597.363281 787.566406 L 626.890625 787.566406 L 626.890625 783.933594 L 597.363281 783.933594 C 591.285156 783.933594 585.738281 780.480469 583.054688 775.027344 "/>
<path style=" stroke:none;fill-rule:nonzero;fill:rgb(81.959534%,82.749939%,83.139038%);fill-opacity:1;" d="M 577.027344 741.511719 L 571.945312 741.511719 L 571.945312 776.003906 L 577.027344 776.003906 L 577.027344 741.511719 "/>
<path style=" stroke:none;fill-rule:nonzero;fill:rgb(99.609375%,87.059021%,22.749329%);fill-opacity:1;" d="M 551.066406 780.726562 L 569.039062 780.726562 C 570.644531 780.726562 571.945312 779.425781 571.945312 777.824219 L 571.945312 740.242188 C 571.945312 738.636719 570.644531 737.335938 569.039062 737.335938 L 551.066406 737.335938 C 549.460938 737.335938 548.160156 738.636719 548.160156 740.242188 L 548.160156 777.824219 C 548.160156 779.425781 549.460938 780.726562 551.066406 780.726562 "/>
<path style=" stroke:none;fill-rule:nonzero;fill:rgb(96.859741%,79.60968%,8.239746%);fill-opacity:1;" d="M 569.039062 773.464844 L 551.066406 773.464844 C 549.460938 773.464844 548.164062 772.164062 548.164062 770.558594 L 548.164062 777.820312 C 548.164062 779.425781 549.460938 780.726562 551.066406 780.726562 L 569.039062 780.726562 C 570.644531 780.726562 571.945312 779.425781 571.945312 777.820312 L 571.945312 770.558594 C 571.945312 772.164062 570.644531 773.464844 569.039062 773.464844 "/>
<path style=" stroke:none;fill-rule:nonzero;fill:rgb(100%,100%,100%);fill-opacity:1;" d="M 632.726562 753.027344 L 618.429688 753.027344 C 615.25 753.027344 612.671875 750.445312 612.671875 747.265625 C 612.671875 744.085938 615.25 741.511719 618.429688 741.511719 L 632.726562 741.511719 C 635.90625 741.511719 638.480469 744.085938 638.480469 747.265625 C 638.480469 750.445312 635.90625 753.027344 632.726562 753.027344 "/>
<path style=" stroke:none;fill-rule:nonzero;fill:rgb(90.19928%,90.589905%,90.979004%);fill-opacity:1;" d="M 632.722656 750.121094 L 618.429688 750.121094 C 615.75 750.121094 613.507812 748.292969 612.863281 745.816406 C 612.742188 746.28125 612.671875 746.765625 612.671875 747.269531 C 612.671875 750.449219 615.25 753.027344 618.429688 753.027344 L 632.722656 753.027344 C 635.90625 753.027344 638.480469 750.449219 638.480469 747.269531 C 638.480469 746.765625 638.410156 746.28125 638.289062 745.816406 C 637.644531 748.292969 635.398438 750.121094 632.722656 750.121094 "/>
<path style=" stroke:none;fill-rule:nonzero;fill:rgb(90.19928%,90.589905%,90.979004%);fill-opacity:1;" d="M 624.847656 728.71875 L 614.222656 741.515625 L 609.277344 747.476562 C 609.320312 747.039062 609.34375 746.589844 609.34375 746.136719 C 609.34375 744.628906 609.109375 743.175781 608.660156 741.808594 L 608.910156 741.515625 L 621.945312 725.8125 C 625.109375 722 625.371094 716.648438 622.808594 712.574219 C 623.257812 712.734375 623.6875 712.988281 624.035156 713.375 L 624.542969 713.933594 C 628.304688 718.101562 628.433594 724.398438 624.847656 728.71875 "/>
<path style=" stroke:none;fill-rule:nonzero;fill:rgb(100%,100%,100%);fill-opacity:1;" d="M 636.445312 764.539062 L 617.035156 764.539062 C 613.855469 764.539062 611.277344 761.960938 611.277344 758.78125 C 611.277344 755.601562 613.855469 753.027344 617.035156 753.027344 L 636.445312 753.027344 C 639.625 753.027344 642.203125 755.601562 642.203125 758.78125 C 642.203125 761.960938 639.625 764.539062 636.445312 764.539062 "/>
<path style=" stroke:none;fill-rule:nonzero;fill:rgb(90.19928%,90.589905%,90.979004%);fill-opacity:1;" d="M 636.445312 761.632812 L 617.035156 761.632812 C 614.359375 761.632812 612.117188 759.804688 611.472656 757.328125 C 611.351562 757.792969 611.28125 758.28125 611.28125 758.78125 C 611.28125 761.960938 613.855469 764.539062 617.035156 764.539062 L 636.445312 764.539062 C 639.625 764.539062 642.203125 761.960938 642.203125 758.78125 C 642.203125 758.28125 642.128906 757.792969 642.011719 757.328125 C 641.367188 759.804688 639.125 761.632812 636.445312 761.632812 "/>
<path style=" stroke:none;fill-rule:nonzero;fill:rgb(100%,100%,100%);fill-opacity:1;" d="M 631.910156 776.050781 L 618.429688 776.050781 C 615.25 776.050781 612.671875 773.476562 612.671875 770.292969 C 612.671875 767.117188 615.25 764.539062 618.429688 764.539062 L 631.910156 764.539062 C 635.085938 764.539062 637.664062 767.117188 637.664062 770.292969 C 637.664062 773.476562 635.085938 776.050781 631.910156 776.050781 "/>
<path style=" stroke:none;fill-rule:nonzero;fill:rgb(90.19928%,90.589905%,90.979004%);fill-opacity:1;" d="M 631.910156 773.144531 L 618.429688 773.144531 C 615.75 773.144531 613.507812 771.316406 612.863281 768.84375 C 612.742188 769.308594 612.671875 769.792969 612.671875 770.292969 C 612.671875 773.476562 615.25 776.050781 618.429688 776.050781 L 631.910156 776.050781 C 635.085938 776.050781 637.664062 773.476562 637.664062 770.292969 C 637.664062 769.792969 637.59375 769.308594 637.472656 768.84375 C 636.828125 771.316406 634.582031 773.144531 631.910156 773.144531 "/>
<path style=" stroke:none;fill-rule:nonzero;fill:rgb(100%,100%,100%);fill-opacity:1;" d="M 626.371094 787.5625 L 621.273438 787.5625 C 618.09375 787.5625 615.515625 784.984375 615.515625 781.804688 C 615.515625 778.628906 618.09375 776.050781 621.273438 776.050781 L 626.371094 776.050781 C 629.550781 776.050781 632.128906 778.628906 632.128906 781.804688 C 632.128906 784.984375 629.550781 787.5625 626.371094 787.5625 "/>
<path style=" stroke:none;fill-rule:nonzero;fill:rgb(90.19928%,90.589905%,90.979004%);fill-opacity:1;" d="M 626.371094 784.660156 L 621.273438 784.660156 C 618.59375 784.660156 616.351562 782.828125 615.707031 780.355469 C 615.585938 780.820312 615.515625 781.304688 615.515625 781.804688 C 615.515625 784.988281 618.09375 787.566406 621.273438 787.566406 L 626.371094 787.566406 C 629.550781 787.566406 632.128906 784.988281 632.128906 781.804688 C 632.128906 781.304688 632.054688 780.820312 631.9375 780.355469 C 631.289062 782.828125 629.046875 784.660156 626.371094 784.660156 "/>
<path style=" stroke:none;fill-rule:nonzero;fill:rgb(96.859741%,79.60968%,8.239746%);fill-opacity:1;" d="M 566.136719 780.726562 L 561.050781 780.726562 L 561.050781 737.335938 L 566.136719 737.335938 L 566.136719 780.726562 "/>
<g clip-path="url(#clip2)" clip-rule="nonzero">
<path style=" stroke:none;fill-rule:nonzero;fill:rgb(21.958923%,16.859436%,45.098877%);fill-opacity:1;" d="M 848.273438 857.148438 C 848.273438 988.640625 741.671875 1095.238281 610.179688 1095.238281 C 478.683594 1095.238281 372.085938 988.640625 372.085938 857.148438 C 372.085938 725.652344 478.683594 619.054688 610.179688 619.054688 C 741.671875 619.054688 848.273438 725.652344 848.273438 857.148438 "/>
</g>
<path style=" stroke:none;fill-rule:nonzero;fill:rgb(27.839661%,18.818665%,50.19989%);fill-opacity:1;" d="M 816.164062 857.148438 C 816.164062 970.910156 723.941406 1063.132812 610.179688 1063.132812 C 496.417969 1063.132812 404.195312 970.910156 404.195312 857.148438 C 404.195312 743.386719 496.417969 651.160156 610.179688 651.160156 C 723.941406 651.160156 816.164062 743.386719 816.164062 857.148438 "/>
<path style=" stroke:none;fill-rule:nonzero;fill:rgb(21.958923%,16.859436%,45.098877%);fill-opacity:1;" d="M 496.441406 850.617188 L 510.925781 850.617188 L 510.925781 878.941406 C 510.925781 883.429688 516.351562 885.679688 519.527344 882.503906 L 551.414062 850.617188 L 692.386719 850.617188 C 696.558594 850.617188 699.945312 847.234375 699.945312 843.058594 L 699.945312 786.484375 L 703.445312 789.03125 C 705.222656 790.320312 707.546875 788.890625 707.453125 786.90625 L 707.453125 779.9375 C 707.457031 779.925781 707.449219 779.910156 707.449219 779.898438 C 707.457031 779.613281 707.425781 779.316406 707.328125 779.011719 C 707.324219 779.007812 707.328125 779.007812 707.328125 779.007812 L 705.4375 773.195312 L 702.757812 764.949219 L 717.78125 754.03125 C 718.542969 753.480469 718.855469 752.679688 718.824219 751.902344 L 718.824219 744.933594 C 718.824219 744.894531 718.816406 744.855469 718.816406 744.816406 C 718.816406 744.765625 718.8125 744.714844 718.8125 744.664062 C 718.800781 744.460938 718.765625 744.265625 718.710938 744.078125 C 718.703125 744.046875 718.699219 744.019531 718.6875 743.992188 C 718.617188 743.78125 718.519531 743.582031 718.394531 743.398438 C 718.367188 743.351562 718.335938 743.3125 718.300781 743.265625 C 718.179688 743.097656 718.039062 742.945312 717.871094 742.8125 C 717.855469 742.800781 717.847656 742.785156 717.832031 742.773438 C 717.652344 742.636719 717.445312 742.53125 717.222656 742.445312 C 717.167969 742.425781 717.113281 742.40625 717.058594 742.390625 C 716.824219 742.320312 716.574219 742.269531 716.304688 742.269531 C 716.300781 742.269531 716.300781 742.269531 716.300781 742.269531 L 697.21875 742.269531 C 696.535156 742.269531 695.925781 741.972656 695.460938 741.511719 C 695.183594 741.234375 694.949219 740.914062 694.820312 740.527344 L 688.925781 722.378906 C 688.171875 720.054688 684.886719 720.054688 684.128906 722.378906 L 678.234375 740.527344 C 678.152344 740.785156 678.027344 741.023438 677.871094 741.238281 C 677.40625 741.871094 676.65625 742.269531 675.835938 742.269531 L 656.757812 742.269531 C 656.757812 742.269531 656.757812 742.269531 656.753906 742.269531 C 656.480469 742.269531 656.234375 742.320312 656 742.390625 C 655.945312 742.40625 655.890625 742.425781 655.835938 742.445312 C 655.613281 742.53125 655.40625 742.636719 655.226562 742.773438 C 655.210938 742.785156 655.199219 742.800781 655.1875 742.8125 C 655.019531 742.945312 654.878906 743.097656 654.753906 743.265625 C 654.722656 743.3125 654.691406 743.351562 654.660156 743.398438 C 654.542969 743.582031 654.4375 743.78125 654.367188 743.992188 C 654.359375 744.019531 654.355469 744.046875 654.347656 744.078125 C 654.289062 744.265625 654.257812 744.460938 654.246094 744.664062 C 654.246094 744.714844 654.242188 744.765625 654.242188 744.816406 C 654.242188 744.855469 654.234375 744.894531 654.234375 744.933594 L 654.234375 751.902344 C 654.199219 752.679688 654.515625 753.480469 655.277344 754.03125 L 656.71875 755.078125 L 496.441406 755.078125 C 492.269531 755.078125 488.886719 758.464844 488.886719 762.636719 L 488.886719 843.058594 C 488.886719 847.234375 492.269531 850.617188 496.441406 850.617188 "/>
<path style=" stroke:none;fill-rule:nonzero;fill:rgb(21.958923%,16.859436%,45.098877%);fill-opacity:1;" d="M 731.320312 894.535156 C 731.316406 894.511719 731.316406 894.488281 731.3125 894.464844 C 731.308594 894.472656 731.308594 894.476562 731.304688 894.484375 C 730.769531 892.40625 728.902344 890.867188 726.660156 890.867188 L 723.546875 890.867188 C 725.542969 890.867188 727.253906 889.652344 727.980469 887.925781 C 728.226562 887.351562 728.363281 886.71875 728.363281 886.054688 C 728.363281 885.65625 728.300781 885.28125 728.210938 884.914062 C 728.203125 884.890625 728.203125 884.863281 728.199219 884.839844 C 728.199219 884.84375 728.195312 884.851562 728.195312 884.859375 C 727.660156 882.78125 725.789062 881.242188 723.546875 881.242188 L 708.082031 881.242188 L 716.960938 870.546875 C 717.335938 870.097656 717.664062 869.617188 717.941406 869.121094 C 719.886719 865.648438 719.460938 861.234375 716.707031 858.1875 L 716.480469 857.9375 L 716.28125 857.714844 C 716.277344 857.710938 716.269531 857.707031 716.261719 857.703125 C 716.074219 857.496094 715.851562 857.351562 715.621094 857.226562 C 715.542969 857.183594 715.464844 857.144531 715.382812 857.113281 C 715.339844 857.09375 715.300781 857.066406 715.257812 857.050781 C 715.265625 857.0625 715.265625 857.074219 715.277344 857.082031 C 714.464844 856.800781 713.535156 856.921875 712.851562 857.539062 C 707.175781 864.511719 700.660156 870.753906 693.453125 876.128906 L 686.59375 881.242188 L 672.734375 881.242188 L 672.734375 880.179688 C 672.734375 878.835938 671.648438 877.75 670.308594 877.75 L 655.28125 877.75 C 653.941406 877.75 652.855469 878.835938 652.855469 880.179688 L 652.855469 892.664062 L 496.441406 892.664062 C 492.269531 892.664062 488.886719 896.046875 488.886719 900.222656 L 488.886719 980.644531 C 488.886719 984.816406 492.269531 988.199219 496.441406 988.199219 L 637.414062 988.199219 L 669.300781 1020.089844 C 672.476562 1023.261719 677.902344 1021.015625 677.902344 1016.523438 L 677.902344 988.199219 L 692.386719 988.199219 C 696.558594 988.199219 699.941406 984.816406 699.941406 980.644531 L 699.941406 919.742188 L 718.671875 919.742188 L 718.671875 919.695312 C 719.5 919.621094 720.273438 919.359375 720.925781 918.917969 C 721.4375 918.574219 721.882812 918.132812 722.226562 917.621094 C 722.746094 916.851562 723.046875 915.925781 723.046875 914.925781 C 723.046875 914.53125 722.988281 914.152344 722.898438 913.785156 C 722.890625 913.761719 722.894531 913.738281 722.890625 913.714844 C 722.886719 913.71875 722.882812 913.726562 722.878906 913.734375 C 722.382812 911.796875 720.71875 910.347656 718.671875 910.160156 L 718.671875 910.117188 L 722.863281 910.117188 C 725.523438 910.117188 727.679688 907.960938 727.679688 905.300781 C 727.679688 904.90625 727.617188 904.527344 727.527344 904.160156 C 727.519531 904.136719 727.523438 904.113281 727.515625 904.089844 C 727.515625 904.097656 727.511719 904.101562 727.511719 904.109375 C 726.976562 902.03125 725.105469 900.492188 722.863281 900.492188 L 726.660156 900.492188 C 727.65625 900.492188 728.582031 900.1875 729.347656 899.667969 C 730.628906 898.804688 731.472656 897.339844 731.472656 895.679688 C 731.472656 895.28125 731.410156 894.902344 731.320312 894.535156 "/>
<path style=" stroke:none;fill-rule:nonzero;fill:rgb(65.489197%,16.079712%,45.098877%);fill-opacity:1;" d="M 692.386719 748.378906 L 496.441406 748.378906 C 492.269531 748.378906 488.886719 751.761719 488.886719 755.9375 L 488.886719 829.101562 C 488.886719 833.273438 492.269531 836.660156 496.441406 836.660156 L 510.925781 836.660156 L 510.925781 864.984375 C 510.925781 869.472656 516.351562 871.71875 519.527344 868.546875 L 551.414062 836.660156 L 692.386719 836.660156 C 696.558594 836.660156 699.945312 833.273438 699.945312 829.101562 L 699.945312 755.9375 C 699.945312 751.761719 696.558594 748.378906 692.386719 748.378906 "/>
<path style=" stroke:none;fill-rule:nonzero;fill:rgb(93.728638%,35.289001%,61.569214%);fill-opacity:1;" d="M 692.386719 741.121094 L 496.441406 741.121094 C 492.269531 741.121094 488.886719 744.503906 488.886719 748.679688 L 488.886719 821.84375 C 488.886719 826.015625 492.269531 829.398438 496.441406 829.398438 L 510.925781 829.398438 L 510.925781 855.652344 C 510.925781 860.140625 516.351562 862.386719 519.527344 859.210938 L 549.339844 829.398438 L 692.386719 829.398438 C 696.558594 829.398438 699.941406 826.015625 699.941406 821.84375 L 699.941406 748.679688 C 699.941406 744.503906 696.558594 741.121094 692.386719 741.121094 "/>
<path style=" stroke:none;fill-rule:nonzero;fill:rgb(100%,100%,100%);fill-opacity:1;" d="M 604.171875 792.257812 L 508.386719 792.257812 C 505.3125 792.257812 502.820312 789.765625 502.820312 786.691406 C 502.820312 783.617188 505.3125 781.125 508.386719 781.125 L 604.171875 781.125 C 607.246094 781.125 609.738281 783.617188 609.738281 786.691406 C 609.738281 789.765625 607.246094 792.257812 604.171875 792.257812 "/>
<path style=" stroke:none;fill-rule:nonzero;fill:rgb(100%,100%,100%);fill-opacity:1;" d="M 646.0625 792.257812 L 622.730469 792.257812 C 619.652344 792.257812 617.160156 789.765625 617.160156 786.691406 C 617.160156 783.617188 619.652344 781.125 622.730469 781.125 L 646.0625 781.125 C 649.136719 781.125 651.628906 783.617188 651.628906 786.691406 C 651.628906 789.765625 649.136719 792.257812 646.0625 792.257812 "/>
<path style=" stroke:none;fill-rule:nonzero;fill:rgb(65.489197%,16.079712%,45.098877%);fill-opacity:1;" d="M 604.171875 765.351562 L 508.386719 765.351562 C 505.3125 765.351562 502.820312 762.859375 502.820312 759.785156 C 502.820312 756.710938 505.3125 754.21875 508.386719 754.21875 L 604.171875 754.21875 C 607.246094 754.21875 609.738281 756.710938 609.738281 759.785156 C 609.738281 762.859375 607.246094 765.351562 604.171875 765.351562 "/>
<path style=" stroke:none;fill-rule:nonzero;fill:rgb(100%,100%,100%);fill-opacity:1;" d="M 568.617188 812.671875 L 508.246094 812.671875 C 505.171875 812.671875 502.679688 810.175781 502.679688 807.101562 C 502.679688 804.027344 505.171875 801.535156 508.246094 801.535156 L 568.617188 801.535156 C 571.695312 801.535156 574.183594 804.027344 574.183594 807.101562 C 574.183594 810.175781 571.695312 812.671875 568.617188 812.671875 "/>
<path style=" stroke:none;fill-rule:nonzero;fill:rgb(100%,100%,100%);fill-opacity:1;" d="M 629.621094 812.671875 L 587.800781 812.671875 C 584.726562 812.671875 582.234375 810.175781 582.234375 807.101562 C 582.234375 804.027344 584.726562 801.535156 587.800781 801.535156 L 629.621094 801.535156 C 632.695312 801.535156 635.1875 804.027344 635.1875 807.101562 C 635.1875 810.175781 632.695312 812.671875 629.621094 812.671875 "/>
<path style=" stroke:none;fill-rule:nonzero;fill:rgb(100%,100%,100%);fill-opacity:1;" d="M 675.394531 812.667969 L 648.179688 812.667969 C 645.105469 812.667969 642.609375 810.175781 642.609375 807.101562 C 642.609375 804.027344 645.105469 801.535156 648.179688 801.535156 L 675.394531 801.535156 C 678.46875 801.535156 680.960938 804.027344 680.960938 807.101562 C 680.960938 810.175781 678.46875 812.667969 675.394531 812.667969 "/>
<path style=" stroke:none;fill-rule:nonzero;fill:rgb(89.408875%,23.919678%,56.858826%);fill-opacity:1;" d="M 699.941406 748.679688 C 699.941406 744.503906 696.558594 741.121094 692.386719 741.121094 L 654.234375 741.121094 L 654.234375 747.222656 C 654.199219 748 654.515625 748.800781 655.273438 749.351562 L 670.300781 760.265625 L 665.730469 774.328125 C 665.628906 774.636719 665.597656 774.933594 665.605469 775.21875 C 665.609375 775.230469 665.601562 775.242188 665.601562 775.253906 L 665.601562 782.226562 C 665.511719 784.214844 667.835938 785.640625 669.609375 784.351562 L 685.046875 773.132812 C 685.929688 772.492188 687.128906 772.492188 688.011719 773.132812 L 699.941406 781.804688 L 699.941406 748.679688 "/>
<path style=" stroke:none;fill-rule:nonzero;fill:rgb(90.589905%,67.83905%,15.289307%);fill-opacity:1;" d="M 707.453125 765.976562 C 707.46875 765.679688 707.429688 765.371094 707.324219 765.050781 L 702.757812 750.992188 L 717.78125 740.074219 C 718.542969 739.523438 718.855469 738.722656 718.824219 737.945312 L 718.824219 730.976562 C 718.886719 729.648438 717.898438 728.3125 716.300781 728.3125 L 697.21875 728.3125 C 696.128906 728.3125 695.160156 727.605469 694.824219 726.566406 L 688.925781 708.421875 C 688.171875 706.097656 684.882812 706.097656 684.128906 708.421875 L 678.234375 726.566406 C 677.894531 727.605469 676.929688 728.3125 675.835938 728.3125 L 656.757812 728.3125 C 655.160156 728.3125 654.171875 729.648438 654.234375 730.976562 L 654.234375 737.945312 C 654.199219 738.722656 654.515625 739.523438 655.277344 740.074219 L 670.300781 750.992188 L 665.730469 765.050781 C 665.628906 765.371094 665.585938 765.679688 665.601562 765.976562 L 665.601562 772.949219 C 665.511719 774.9375 667.835938 776.363281 669.609375 775.074219 L 685.046875 763.859375 C 685.929688 763.214844 687.125 763.214844 688.007812 763.859375 L 703.445312 775.074219 C 705.222656 776.363281 707.546875 774.9375 707.453125 772.949219 L 707.453125 765.976562 "/>
<path style=" stroke:none;fill-rule:nonzero;fill:rgb(99.609375%,87.059021%,22.749329%);fill-opacity:1;" d="M 688.925781 708.421875 L 694.824219 726.566406 C 695.160156 727.605469 696.128906 728.3125 697.21875 728.3125 L 716.300781 728.3125 C 718.742188 728.3125 719.757812 731.4375 717.78125 732.871094 L 702.34375 744.085938 C 701.460938 744.730469 701.09375 745.867188 701.429688 746.902344 L 707.324219 765.050781 C 708.078125 767.375 705.421875 769.304688 703.445312 767.871094 L 688.007812 756.652344 C 687.125 756.015625 685.929688 756.015625 685.046875 756.652344 L 669.609375 767.871094 C 667.632812 769.304688 664.976562 767.375 665.730469 765.050781 L 671.628906 746.902344 C 671.964844 745.867188 671.59375 744.730469 670.710938 744.085938 L 655.277344 732.871094 C 653.300781 731.4375 654.3125 728.3125 656.757812 728.3125 L 675.835938 728.3125 C 676.929688 728.3125 677.894531 727.605469 678.234375 726.566406 L 684.128906 708.421875 C 684.882812 706.097656 688.171875 706.097656 688.925781 708.421875 "/>
<path style=" stroke:none;fill-rule:nonzero;fill:rgb(7.449341%,42.749023%,62.748718%);fill-opacity:1;" d="M 692.386719 885.964844 L 496.441406 885.964844 C 492.269531 885.964844 488.886719 889.347656 488.886719 893.519531 L 488.886719 966.683594 C 488.886719 970.859375 492.269531 974.242188 496.441406 974.242188 L 637.414062 974.242188 L 669.300781 1006.128906 C 672.476562 1009.300781 677.902344 1007.054688 677.902344 1002.566406 L 677.902344 974.242188 L 692.386719 974.242188 C 696.558594 974.242188 699.945312 970.859375 699.945312 966.683594 L 699.945312 893.519531 C 699.945312 889.347656 696.558594 885.964844 692.386719 885.964844 "/>
<path style=" stroke:none;fill-rule:nonzero;fill:rgb(10.978699%,68.238831%,89.408875%);fill-opacity:1;" d="M 692.386719 878.703125 L 496.441406 878.703125 C 492.269531 878.703125 488.886719 882.089844 488.886719 886.261719 L 488.886719 959.425781 C 488.886719 963.597656 492.269531 966.980469 496.441406 966.980469 L 639.488281 966.980469 L 669.300781 996.796875 C 672.476562 999.96875 677.902344 997.722656 677.902344 993.234375 L 677.902344 966.980469 L 692.386719 966.980469 C 696.558594 966.980469 699.945312 963.597656 699.945312 959.425781 L 699.945312 886.261719 C 699.945312 882.089844 696.558594 878.703125 692.386719 878.703125 "/>
<path style=" stroke:none;fill-rule:nonzero;fill:rgb(100%,100%,100%);fill-opacity:1;" d="M 604.171875 931.660156 L 508.386719 931.660156 C 505.3125 931.660156 502.820312 929.164062 502.820312 926.089844 C 502.820312 923.015625 505.3125 920.523438 508.386719 920.523438 L 604.171875 920.523438 C 607.246094 920.523438 609.738281 923.015625 609.738281 926.089844 C 609.738281 929.164062 607.246094 931.660156 604.171875 931.660156 "/>
<path style=" stroke:none;fill-rule:nonzero;fill:rgb(100%,100%,100%);fill-opacity:1;" d="M 646.0625 931.660156 L 622.726562 931.660156 C 619.652344 931.660156 617.160156 929.164062 617.160156 926.089844 C 617.160156 923.015625 619.652344 920.523438 622.726562 920.523438 L 646.0625 920.523438 C 649.136719 920.523438 651.628906 923.015625 651.628906 926.089844 C 651.628906 929.164062 649.136719 931.660156 646.0625 931.660156 "/>
<path style=" stroke:none;fill-rule:nonzero;fill:rgb(7.449341%,42.749023%,62.748718%);fill-opacity:1;" d="M 604.171875 904.753906 L 508.386719 904.753906 C 505.3125 904.753906 502.820312 902.261719 502.820312 899.1875 C 502.820312 896.109375 505.3125 893.621094 508.386719 893.621094 L 604.171875 893.621094 C 607.246094 893.621094 609.738281 896.109375 609.738281 899.1875 C 609.738281 902.261719 607.246094 904.753906 604.171875 904.753906 "/>
<path style=" stroke:none;fill-rule:nonzero;fill:rgb(100%,100%,100%);fill-opacity:1;" d="M 568.617188 952.070312 L 508.242188 952.070312 C 505.171875 952.070312 502.679688 949.578125 502.679688 946.503906 C 502.679688 943.429688 505.171875 940.9375 508.242188 940.9375 L 568.617188 940.9375 C 571.691406 940.9375 574.183594 943.429688 574.183594 946.503906 C 574.183594 949.578125 571.691406 952.070312 568.617188 952.070312 "/>
<path style=" stroke:none;fill-rule:nonzero;fill:rgb(100%,100%,100%);fill-opacity:1;" d="M 629.621094 952.070312 L 587.804688 952.070312 C 584.726562 952.070312 582.234375 949.578125 582.234375 946.503906 C 582.234375 943.429688 584.726562 940.9375 587.804688 940.9375 L 629.621094 940.9375 C 632.695312 940.9375 635.1875 943.429688 635.1875 946.503906 C 635.1875 949.578125 632.695312 952.070312 629.621094 952.070312 "/>
<path style=" stroke:none;fill-rule:nonzero;fill:rgb(100%,100%,100%);fill-opacity:1;" d="M 675.394531 952.070312 L 648.179688 952.070312 C 645.105469 952.070312 642.609375 949.578125 642.609375 946.503906 C 642.609375 943.429688 645.105469 940.9375 648.179688 940.9375 L 675.394531 940.9375 C 678.46875 940.9375 680.960938 943.429688 680.960938 946.503906 C 680.960938 949.578125 678.46875 952.070312 675.394531 952.070312 "/>
<path style=" stroke:none;fill-rule:nonzero;fill:rgb(0%,60.389709%,86.669922%);fill-opacity:1;" d="M 699.945312 886.261719 C 699.945312 882.089844 696.5625 878.703125 692.386719 878.703125 L 652.855469 878.703125 L 652.855469 906.914062 C 652.855469 908.253906 653.941406 909.34375 655.28125 909.34375 L 670.308594 909.34375 C 671.648438 909.34375 672.738281 908.253906 672.738281 906.914062 L 672.738281 905.394531 L 678.460938 905.394531 C 679.976562 905.394531 681.355469 906.253906 682.023438 907.613281 C 683.425781 910.464844 685.761719 912.660156 688.5625 913.90625 C 690.238281 914.652344 692.082031 915.058594 693.988281 915.058594 L 699.945312 915.058594 L 699.945312 886.261719 "/>
<path style=" stroke:none;fill-rule:nonzero;fill:rgb(100%,100%,100%);fill-opacity:1;" d="M 716.960938 856.589844 C 719.960938 852.980469 719.851562 847.710938 716.707031 844.230469 L 716.28125 843.757812 C 715.382812 842.761719 713.847656 842.683594 712.851562 843.578125 C 707.175781 850.550781 700.660156 856.796875 693.453125 862.167969 L 686.59375 867.28125 L 672.738281 867.28125 L 672.738281 896.121094 L 678.460938 896.121094 C 679.972656 896.121094 681.355469 896.980469 682.023438 898.335938 C 684.265625 902.894531 688.90625 905.78125 693.988281 905.78125 L 718.671875 905.78125 L 718.671875 867.28125 L 708.085938 867.28125 L 716.960938 856.589844 "/>
<path style=" stroke:none;fill-rule:nonzero;fill:rgb(81.959534%,82.749939%,83.139038%);fill-opacity:1;" d="M 718.671875 867.285156 L 718.671875 905.78125 L 696.660156 905.78125 C 700.972656 904.007812 704 899.773438 704 894.828125 C 704 889.921875 701.019531 885.714844 696.773438 883.917969 C 695.964844 883.578125 695.964844 882.398438 696.773438 882.058594 C 700.691406 880.402344 703.535156 876.6875 703.945312 872.265625 C 703.984375 871.902344 704 871.527344 704 871.152344 C 704 869.886719 703.808594 868.675781 703.433594 867.53125 C 703.40625 867.445312 703.382812 867.363281 703.351562 867.285156 L 718.671875 867.285156 "/>
<path style=" stroke:none;fill-rule:nonzero;fill:rgb(81.959534%,82.749939%,83.139038%);fill-opacity:1;" d="M 682.023438 895.300781 C 681.355469 893.941406 679.976562 893.082031 678.464844 893.082031 L 672.738281 893.082031 L 672.738281 896.121094 L 678.464844 896.121094 C 679.976562 896.121094 681.355469 896.980469 682.023438 898.335938 C 684.265625 902.894531 688.90625 905.78125 693.988281 905.78125 L 718.671875 905.78125 L 718.671875 902.746094 L 693.988281 902.746094 C 688.90625 902.746094 684.265625 899.859375 682.023438 895.300781 "/>
<path style=" stroke:none;fill-rule:nonzero;fill:rgb(81.959534%,82.749939%,83.139038%);fill-opacity:1;" d="M 676.988281 867.28125 L 672.738281 867.28125 L 672.738281 896.121094 L 676.988281 896.121094 L 676.988281 867.28125 "/>
<path style=" stroke:none;fill-rule:nonzero;fill:rgb(99.609375%,87.059021%,22.749329%);fill-opacity:1;" d="M 655.28125 900.0625 L 670.308594 900.0625 C 671.648438 900.0625 672.738281 898.976562 672.738281 897.636719 L 672.738281 866.21875 C 672.738281 864.878906 671.648438 863.789062 670.308594 863.789062 L 655.28125 863.789062 C 653.941406 863.789062 652.855469 864.878906 652.855469 866.21875 L 652.855469 897.636719 C 652.855469 898.976562 653.941406 900.0625 655.28125 900.0625 "/>
<path style=" stroke:none;fill-rule:nonzero;fill:rgb(96.859741%,79.60968%,8.239746%);fill-opacity:1;" d="M 670.308594 893.992188 L 655.28125 893.992188 C 653.941406 893.992188 652.855469 892.90625 652.855469 891.566406 L 652.855469 897.636719 C 652.855469 898.976562 653.941406 900.0625 655.28125 900.0625 L 670.308594 900.0625 C 671.648438 900.0625 672.738281 898.976562 672.738281 897.636719 L 672.738281 891.566406 C 672.738281 892.90625 671.648438 893.992188 670.308594 893.992188 "/>
<path style=" stroke:none;fill-rule:nonzero;fill:rgb(100%,100%,100%);fill-opacity:1;" d="M 723.550781 876.90625 L 711.597656 876.90625 C 708.9375 876.90625 706.785156 874.753906 706.785156 872.09375 C 706.785156 869.4375 708.9375 867.28125 711.597656 867.28125 L 723.550781 867.28125 C 726.207031 867.28125 728.363281 869.4375 728.363281 872.09375 C 728.363281 874.753906 726.207031 876.90625 723.550781 876.90625 "/>
<path style=" stroke:none;fill-rule:nonzero;fill:rgb(90.19928%,90.589905%,90.979004%);fill-opacity:1;" d="M 723.550781 874.476562 L 711.597656 874.476562 C 709.359375 874.476562 707.484375 872.949219 706.945312 870.878906 C 706.84375 871.269531 706.785156 871.671875 706.785156 872.09375 C 706.785156 874.753906 708.9375 876.90625 711.597656 876.90625 L 723.550781 876.90625 C 726.207031 876.90625 728.363281 874.753906 728.363281 872.09375 C 728.363281 871.671875 728.304688 871.269531 728.199219 870.878906 C 727.664062 872.949219 725.785156 874.476562 723.550781 874.476562 "/>
<path style=" stroke:none;fill-rule:nonzero;fill:rgb(90.19928%,90.589905%,90.979004%);fill-opacity:1;" d="M 716.964844 856.589844 L 708.082031 867.285156 L 703.945312 872.269531 C 703.984375 871.902344 704.003906 871.527344 704.003906 871.152344 C 704.003906 869.890625 703.808594 868.675781 703.429688 867.53125 L 703.636719 867.285156 L 714.535156 854.160156 C 717.179688 850.972656 717.398438 846.5 715.257812 843.09375 C 715.632812 843.222656 715.992188 843.4375 716.28125 843.761719 L 716.707031 844.226562 C 719.851562 847.710938 719.960938 852.976562 716.964844 856.589844 "/>
<path style=" stroke:none;fill-rule:nonzero;fill:rgb(100%,100%,100%);fill-opacity:1;" d="M 726.660156 886.53125 L 710.433594 886.53125 C 707.773438 886.53125 705.621094 884.378906 705.621094 881.71875 C 705.621094 879.0625 707.773438 876.90625 710.433594 876.90625 L 726.660156 876.90625 C 729.320312 876.90625 731.472656 879.0625 731.472656 881.71875 C 731.472656 884.378906 729.320312 886.53125 726.660156 886.53125 "/>
<path style=" stroke:none;fill-rule:nonzero;fill:rgb(90.19928%,90.589905%,90.979004%);fill-opacity:1;" d="M 726.660156 884.105469 L 710.433594 884.105469 C 708.195312 884.105469 706.320312 882.574219 705.78125 880.503906 C 705.679688 880.894531 705.621094 881.300781 705.621094 881.71875 C 705.621094 884.378906 707.773438 886.53125 710.433594 886.53125 L 726.660156 886.53125 C 729.320312 886.53125 731.472656 884.378906 731.472656 881.71875 C 731.472656 881.300781 731.414062 880.894531 731.3125 880.503906 C 730.773438 882.574219 728.898438 884.105469 726.660156 884.105469 "/>
<path style=" stroke:none;fill-rule:nonzero;fill:rgb(100%,100%,100%);fill-opacity:1;" d="M 722.867188 896.15625 L 711.597656 896.15625 C 708.9375 896.15625 706.785156 894.003906 706.785156 891.34375 C 706.785156 888.6875 708.9375 886.53125 711.597656 886.53125 L 722.867188 886.53125 C 725.527344 886.53125 727.679688 888.6875 727.679688 891.34375 C 727.679688 894.003906 725.527344 896.15625 722.867188 896.15625 "/>
<path style=" stroke:none;fill-rule:nonzero;fill:rgb(90.19928%,90.589905%,90.979004%);fill-opacity:1;" d="M 722.867188 893.726562 L 711.597656 893.726562 C 709.359375 893.726562 707.484375 892.199219 706.945312 890.128906 C 706.84375 890.519531 706.785156 890.921875 706.785156 891.34375 C 706.785156 894.003906 708.9375 896.15625 711.597656 896.15625 L 722.867188 896.15625 C 725.527344 896.15625 727.679688 894.003906 727.679688 891.34375 C 727.679688 890.921875 727.621094 890.519531 727.519531 890.128906 C 726.980469 892.199219 725.105469 893.726562 722.867188 893.726562 "/>
<path style=" stroke:none;fill-rule:nonzero;fill:rgb(100%,100%,100%);fill-opacity:1;" d="M 718.238281 905.78125 L 713.972656 905.78125 C 711.316406 905.78125 709.160156 903.628906 709.160156 900.96875 C 709.160156 898.3125 711.316406 896.15625 713.972656 896.15625 L 718.238281 896.15625 C 720.894531 896.15625 723.050781 898.3125 723.050781 900.96875 C 723.050781 903.628906 720.894531 905.78125 718.238281 905.78125 "/>
<path style=" stroke:none;fill-rule:nonzero;fill:rgb(90.19928%,90.589905%,90.979004%);fill-opacity:1;" d="M 718.238281 903.355469 L 713.972656 903.355469 C 711.738281 903.355469 709.859375 901.824219 709.324219 899.753906 C 709.222656 900.144531 709.160156 900.550781 709.160156 900.96875 C 709.160156 903.628906 711.316406 905.78125 713.972656 905.78125 L 718.238281 905.78125 C 720.894531 905.78125 723.050781 903.628906 723.050781 900.96875 C 723.050781 900.550781 722.988281 900.144531 722.886719 899.753906 C 722.347656 901.824219 720.472656 903.355469 718.238281 903.355469 "/>
<path style=" stroke:none;fill-rule:nonzero;fill:rgb(96.859741%,79.60968%,8.239746%);fill-opacity:1;" d="M 667.882812 900.0625 L 663.632812 900.0625 L 663.632812 863.789062 L 667.882812 863.789062 L 667.882812 900.0625 "/>
</g>
</svg>
