<?xml version="1.0" encoding="UTF-8"?>
<svg xmlns="http://www.w3.org/2000/svg" xmlns:xlink="http://www.w3.org/1999/xlink" width="1190.25pt" height="1683.749945pt" viewBox="0 0 1190.25 1683.749945" version="1.2">
<defs>
<clipPath id="clip1">
  <path d="M 357.089844 604.058594 L 833.238281 604.058594 L 833.238281 1080.207031 L 357.089844 1080.207031 Z M 357.089844 604.058594 "/>
</clipPath>
</defs>
<g id="surface1">
<g clip-path="url(#clip1)" clip-rule="nonzero">
<path style=" stroke:none;fill-rule:nonzero;fill:rgb(21.958923%,16.859436%,45.098877%);fill-opacity:1;" d="M 833.273438 842.148438 C 833.273438 973.644531 726.675781 1080.242188 595.183594 1080.242188 C 463.6875 1080.242188 357.089844 973.644531 357.089844 842.148438 C 357.089844 710.65625 463.6875 604.054688 595.183594 604.054688 C 726.675781 604.054688 833.273438 710.65625 833.273438 842.148438 "/>
</g>
<path style=" stroke:none;fill-rule:nonzero;fill:rgb(27.839661%,18.818665%,50.19989%);fill-opacity:1;" d="M 801.167969 842.148438 C 801.167969 955.914062 708.945312 1048.136719 595.183594 1048.136719 C 481.417969 1048.136719 389.195312 955.914062 389.195312 842.148438 C 389.195312 728.386719 481.417969 636.164062 595.183594 636.164062 C 708.945312 636.164062 801.167969 728.386719 801.167969 842.148438 "/>
<path style=" stroke:none;fill-rule:nonzero;fill:rgb(21.958923%,16.859436%,45.098877%);fill-opacity:1;" d="M 707.292969 772.988281 L 656.761719 772.988281 L 656.761719 721.863281 C 656.761719 717.429688 653.164062 713.832031 648.730469 713.832031 L 541.636719 713.832031 C 537.199219 713.832031 533.601562 717.429688 533.601562 721.863281 L 533.601562 772.988281 L 483.074219 772.988281 C 474.140625 772.988281 466.898438 780.234375 466.898438 789.167969 L 466.898438 970.246094 C 466.898438 979.175781 474.140625 986.421875 483.074219 986.421875 L 707.292969 986.421875 C 716.226562 986.421875 723.46875 979.175781 723.46875 970.246094 L 723.46875 789.167969 C 723.46875 780.234375 716.226562 772.988281 707.292969 772.988281 "/>
<path style=" stroke:none;fill-rule:nonzero;fill:rgb(81.959534%,82.749939%,83.139038%);fill-opacity:1;" d="M 707.289062 972.460938 L 483.074219 972.460938 C 474.140625 972.460938 466.898438 965.21875 466.898438 956.285156 L 466.898438 783.183594 C 466.898438 774.25 474.140625 767.007812 483.074219 767.007812 L 707.289062 767.007812 C 716.226562 767.007812 723.46875 774.25 723.46875 783.183594 L 723.46875 956.285156 C 723.46875 965.21875 716.226562 972.460938 707.289062 972.460938 "/>
<path style=" stroke:none;fill-rule:nonzero;fill:rgb(100%,100%,100%);fill-opacity:1;" d="M 707.289062 964.484375 L 483.074219 964.484375 C 474.140625 964.484375 466.898438 957.242188 466.898438 948.308594 L 466.898438 775.207031 C 466.898438 766.273438 474.140625 759.03125 483.074219 759.03125 L 707.289062 759.03125 C 716.226562 759.03125 723.46875 766.273438 723.46875 775.207031 L 723.46875 948.308594 C 723.46875 957.242188 716.226562 964.484375 707.289062 964.484375 "/>
<path style=" stroke:none;fill-rule:nonzero;fill:rgb(96.859741%,79.60968%,8.239746%);fill-opacity:1;" d="M 503.707031 824.847656 L 506.894531 834.660156 C 507.078125 835.222656 507.601562 835.601562 508.191406 835.601562 L 518.507812 835.601562 C 519.828125 835.601562 520.378906 837.292969 519.308594 838.066406 L 510.960938 844.132812 C 510.484375 844.480469 510.285156 845.09375 510.464844 845.65625 L 513.65625 855.46875 C 514.0625 856.726562 512.625 857.769531 511.558594 856.992188 L 503.210938 850.929688 C 502.734375 850.582031 502.085938 850.582031 501.609375 850.929688 L 493.261719 856.992188 C 492.191406 857.769531 490.753906 856.726562 491.164062 855.46875 L 494.351562 845.65625 C 494.535156 845.09375 494.335938 844.480469 493.855469 844.132812 L 485.507812 838.066406 C 484.441406 837.292969 484.992188 835.601562 486.3125 835.601562 L 496.628906 835.601562 C 497.21875 835.601562 497.742188 835.222656 497.925781 834.660156 L 501.113281 824.847656 C 501.519531 823.589844 503.296875 823.589844 503.707031 824.847656 "/>
<path style=" stroke:none;fill-rule:nonzero;fill:rgb(96.859741%,79.60968%,8.239746%);fill-opacity:1;" d="M 550.09375 824.847656 L 553.28125 834.660156 C 553.460938 835.222656 553.988281 835.601562 554.578125 835.601562 L 564.894531 835.601562 C 566.214844 835.601562 566.765625 837.292969 565.695312 838.066406 L 557.347656 844.132812 C 556.871094 844.480469 556.671875 845.09375 556.855469 845.65625 L 560.042969 855.46875 C 560.449219 856.726562 559.011719 857.769531 557.941406 856.992188 L 549.597656 850.929688 C 549.121094 850.582031 548.472656 850.582031 547.996094 850.929688 L 539.648438 856.992188 C 538.578125 857.769531 537.140625 856.726562 537.550781 855.46875 L 540.738281 845.65625 C 540.921875 845.09375 540.71875 844.480469 540.242188 844.132812 L 531.894531 838.066406 C 530.828125 837.292969 531.378906 835.601562 532.695312 835.601562 L 543.015625 835.601562 C 543.605469 835.601562 544.128906 835.222656 544.3125 834.660156 L 547.5 824.847656 C 547.90625 823.589844 549.683594 823.589844 550.09375 824.847656 "/>
<path style=" stroke:none;fill-rule:nonzero;fill:rgb(96.859741%,79.60968%,8.239746%);fill-opacity:1;" d="M 596.476562 824.847656 L 599.667969 834.660156 C 599.847656 835.222656 600.371094 835.601562 600.960938 835.601562 L 611.28125 835.601562 C 612.601562 835.601562 613.148438 837.292969 612.082031 838.066406 L 603.734375 844.132812 C 603.257812 844.480469 603.058594 845.09375 603.238281 845.65625 L 606.429688 855.46875 C 606.835938 856.726562 605.398438 857.769531 604.332031 856.992188 L 595.980469 850.929688 C 595.503906 850.582031 594.859375 850.582031 594.382812 850.929688 L 586.03125 856.992188 C 584.964844 857.769531 583.527344 856.726562 583.9375 855.46875 L 587.125 845.65625 C 587.308594 845.09375 587.105469 844.480469 586.628906 844.132812 L 578.28125 838.066406 C 577.214844 837.292969 577.761719 835.601562 579.082031 835.601562 L 589.402344 835.601562 C 589.992188 835.601562 590.515625 835.222656 590.699219 834.660156 L 593.886719 824.847656 C 594.292969 823.589844 596.070312 823.589844 596.476562 824.847656 "/>
<path style=" stroke:none;fill-rule:nonzero;fill:rgb(96.859741%,79.60968%,8.239746%);fill-opacity:1;" d="M 642.863281 824.847656 L 646.054688 834.660156 C 646.238281 835.222656 646.757812 835.601562 647.347656 835.601562 L 657.667969 835.601562 C 658.988281 835.601562 659.535156 837.292969 658.46875 838.066406 L 650.121094 844.132812 C 649.644531 844.480469 649.441406 845.097656 649.625 845.65625 L 652.8125 855.46875 C 653.222656 856.722656 651.785156 857.769531 650.714844 856.992188 L 642.371094 850.925781 C 641.890625 850.582031 641.242188 850.582031 640.765625 850.925781 L 632.421875 856.992188 C 631.351562 857.769531 629.914062 856.722656 630.320312 855.46875 L 633.511719 845.65625 C 633.695312 845.097656 633.492188 844.480469 633.015625 844.132812 L 624.667969 838.066406 C 623.601562 837.292969 624.148438 835.601562 625.46875 835.601562 L 635.785156 835.601562 C 636.378906 835.601562 636.902344 835.222656 637.082031 834.660156 L 640.269531 824.847656 C 640.679688 823.59375 642.457031 823.59375 642.863281 824.847656 "/>
<path style=" stroke:none;fill-rule:nonzero;fill:rgb(81.959534%,82.749939%,83.139038%);fill-opacity:1;" d="M 689.25 824.847656 L 692.4375 834.660156 C 692.621094 835.222656 693.144531 835.601562 693.734375 835.601562 L 704.054688 835.601562 C 705.375 835.601562 705.921875 837.292969 704.851562 838.066406 L 696.507812 844.132812 C 696.03125 844.480469 695.832031 845.097656 696.011719 845.65625 L 699.203125 855.46875 C 699.609375 856.726562 698.171875 857.769531 697.105469 856.992188 L 688.753906 850.925781 C 688.277344 850.582031 687.628906 850.582031 687.152344 850.925781 L 678.804688 856.992188 C 677.738281 857.769531 676.300781 856.726562 676.710938 855.46875 L 679.898438 845.65625 C 680.078125 845.097656 679.878906 844.480469 679.402344 844.132812 L 671.054688 838.066406 C 669.988281 837.292969 670.535156 835.601562 671.855469 835.601562 L 682.171875 835.601562 C 682.761719 835.601562 683.289062 835.222656 683.46875 834.660156 L 686.660156 824.847656 C 687.066406 823.59375 688.84375 823.59375 689.25 824.847656 "/>
<path style=" stroke:none;fill-rule:nonzero;fill:rgb(90.19928%,90.589905%,90.979004%);fill-opacity:1;" d="M 644.359375 945.714844 L 546.003906 945.714844 C 542.703125 945.714844 540.023438 943.039062 540.023438 939.734375 C 540.023438 936.429688 542.703125 933.753906 546.003906 933.753906 L 644.359375 933.753906 C 647.664062 933.753906 650.34375 936.429688 650.34375 939.734375 C 650.34375 943.039062 647.664062 945.714844 644.359375 945.714844 "/>
<path style=" stroke:none;fill-rule:nonzero;fill:rgb(81.959534%,82.749939%,83.139038%);fill-opacity:1;" d="M 668.589844 892.421875 L 529.242188 892.421875 C 525.9375 892.421875 523.261719 889.742188 523.261719 886.4375 C 523.261719 883.132812 525.9375 880.457031 529.242188 880.457031 L 668.589844 880.457031 C 671.894531 880.457031 674.570312 883.132812 674.570312 886.4375 C 674.570312 889.742188 671.894531 892.421875 668.589844 892.421875 "/>
<path style=" stroke:none;fill-rule:nonzero;fill:rgb(81.959534%,82.749939%,83.139038%);fill-opacity:1;" d="M 596.632812 914.355469 L 507.398438 914.355469 C 504.09375 914.355469 501.417969 911.679688 501.417969 908.375 C 501.417969 905.070312 504.09375 902.390625 507.398438 902.390625 L 596.632812 902.390625 C 599.9375 902.390625 602.617188 905.070312 602.617188 908.375 C 602.617188 911.679688 599.9375 914.355469 596.632812 914.355469 "/>
<path style=" stroke:none;fill-rule:nonzero;fill:rgb(81.959534%,82.749939%,83.139038%);fill-opacity:1;" d="M 682.964844 914.355469 L 619.988281 914.355469 C 616.6875 914.355469 614.007812 911.679688 614.007812 908.375 C 614.007812 905.070312 616.6875 902.390625 619.988281 902.390625 L 682.964844 902.390625 C 686.269531 902.390625 688.949219 905.070312 688.949219 908.375 C 688.949219 911.679688 686.269531 914.355469 682.964844 914.355469 "/>
<path style=" stroke:none;fill-rule:nonzero;fill:rgb(90.19928%,90.589905%,90.979004%);fill-opacity:1;" d="M 648.730469 816.519531 L 541.636719 816.519531 C 537.199219 816.519531 533.601562 812.921875 533.601562 808.488281 L 533.601562 713.886719 C 533.601562 709.453125 537.199219 705.855469 541.636719 705.855469 L 648.730469 705.855469 C 653.164062 705.855469 656.761719 709.453125 656.761719 713.886719 L 656.761719 808.488281 C 656.761719 812.921875 653.164062 816.519531 648.730469 816.519531 "/>
<path style=" stroke:none;fill-rule:nonzero;fill:rgb(10.978699%,68.238831%,89.408875%);fill-opacity:1;" d="M 648.730469 810.535156 L 541.636719 810.535156 C 537.199219 810.535156 533.601562 806.941406 533.601562 802.503906 L 533.601562 707.90625 C 533.601562 703.46875 537.199219 699.871094 541.636719 699.871094 L 648.730469 699.871094 C 653.164062 699.871094 656.761719 703.46875 656.761719 707.90625 L 656.761719 802.503906 C 656.761719 806.941406 653.164062 810.535156 648.730469 810.535156 "/>
<path style=" stroke:none;fill-rule:nonzero;fill:rgb(0%,60.389709%,86.669922%);fill-opacity:1;" d="M 642.203125 766.757812 C 642.203125 766.285156 642.128906 765.832031 642.023438 765.394531 C 642.015625 765.363281 642.019531 765.332031 642.011719 765.304688 C 642.007812 765.3125 642.007812 765.320312 642.003906 765.328125 C 641.363281 762.847656 639.128906 761.003906 636.445312 761.003906 L 632.722656 761.003906 C 633.519531 761.003906 634.277344 760.839844 634.964844 760.550781 C 637.03125 759.675781 638.480469 757.628906 638.480469 755.246094 C 638.480469 754.773438 638.410156 754.320312 638.300781 753.878906 C 638.292969 753.851562 638.296875 753.820312 638.289062 753.792969 C 638.289062 753.800781 638.285156 753.808594 638.28125 753.816406 C 637.644531 751.332031 635.40625 749.488281 632.722656 749.488281 L 614.226562 749.488281 L 624.84375 736.695312 C 625.296875 736.160156 625.683594 735.585938 626.015625 734.992188 C 628.34375 730.835938 627.835938 725.558594 624.542969 721.910156 L 624.261719 721.601562 L 624.035156 721.347656 C 624.027344 721.339844 624.019531 721.339844 624.015625 721.332031 C 623.785156 721.085938 623.519531 720.910156 623.242188 720.761719 C 623.148438 720.710938 623.058594 720.664062 622.957031 720.625 C 622.90625 720.605469 622.859375 720.570312 622.808594 720.550781 C 622.816406 720.5625 622.820312 720.578125 622.828125 720.59375 C 621.859375 720.253906 620.746094 720.402344 619.929688 721.136719 C 613.140625 729.476562 605.34375 736.945312 596.722656 743.371094 L 588.519531 749.488281 L 571.945312 749.488281 L 571.945312 748.21875 C 571.945312 746.613281 570.644531 745.3125 569.039062 745.3125 L 551.066406 745.3125 C 549.460938 745.3125 548.160156 746.613281 548.160156 748.21875 L 548.160156 785.796875 C 548.160156 787.402344 549.460938 788.703125 551.066406 788.703125 L 569.039062 788.703125 C 570.644531 788.703125 571.945312 787.402344 571.945312 785.796875 L 571.945312 783.980469 L 578.792969 783.980469 C 580.148438 783.980469 581.417969 784.558594 582.304688 785.535156 C 582.601562 785.859375 582.855469 786.226562 583.054688 786.632812 C 583.722656 787.996094 584.574219 789.234375 585.566406 790.328125 C 587.054688 791.960938 588.867188 793.265625 590.875 794.160156 C 592.210938 794.757812 593.636719 795.171875 595.113281 795.382812 C 595.851562 795.484375 596.605469 795.542969 597.363281 795.542969 L 621.269531 795.542969 C 621.269531 795.542969 621.269531 795.542969 621.273438 795.542969 L 626.894531 795.542969 L 626.894531 795.488281 C 629.4375 795.257812 631.507812 793.398438 632.011719 790.941406 C 632.085938 790.566406 632.128906 790.179688 632.128906 789.785156 C 632.128906 789.3125 632.054688 788.859375 631.945312 788.417969 C 631.941406 788.390625 631.941406 788.359375 631.9375 788.332031 C 631.933594 788.339844 631.929688 788.347656 631.925781 788.355469 C 631.332031 786.035156 629.339844 784.304688 626.894531 784.078125 L 626.894531 784.027344 L 631.90625 784.027344 C 635.085938 784.027344 637.664062 781.449219 637.664062 778.269531 C 637.664062 777.796875 637.59375 777.34375 637.484375 776.90625 C 637.476562 776.878906 637.480469 776.847656 637.472656 776.820312 C 637.472656 776.828125 637.464844 776.832031 637.464844 776.84375 C 636.824219 774.359375 634.589844 772.515625 631.90625 772.515625 L 636.445312 772.515625 C 639.625 772.515625 642.203125 769.9375 642.203125 766.757812 "/>
<path style=" stroke:none;fill-rule:nonzero;fill:rgb(100%,100%,100%);fill-opacity:1;" d="M 624.847656 728.71875 C 628.433594 724.398438 628.300781 718.101562 624.539062 713.933594 L 624.03125 713.371094 C 622.957031 712.179688 621.121094 712.085938 619.929688 713.160156 C 613.140625 721.5 605.34375 728.964844 596.722656 735.394531 L 588.519531 741.511719 L 571.945312 741.511719 L 571.945312 776.003906 L 578.792969 776.003906 C 580.601562 776.003906 582.253906 777.03125 583.050781 778.65625 C 585.734375 784.109375 591.285156 787.5625 597.363281 787.5625 L 626.890625 787.5625 L 626.890625 741.511719 L 614.226562 741.511719 L 624.847656 728.71875 "/>
<path style=" stroke:none;fill-rule:nonzero;fill:rgb(81.959534%,82.749939%,83.139038%);fill-opacity:1;" d="M 626.890625 741.515625 L 626.890625 787.5625 L 600.5625 787.5625 C 605.71875 785.441406 609.34375 780.378906 609.34375 774.460938 C 609.34375 768.59375 605.777344 763.5625 600.695312 761.410156 C 599.730469 761.007812 599.730469 759.597656 600.695312 759.191406 C 605.386719 757.207031 608.78125 752.761719 609.277344 747.476562 C 609.320312 747.039062 609.34375 746.589844 609.34375 746.140625 C 609.34375 744.628906 609.109375 743.175781 608.660156 741.8125 C 608.632812 741.710938 608.601562 741.609375 608.566406 741.515625 L 626.890625 741.515625 "/>
<path style=" stroke:none;fill-rule:nonzero;fill:rgb(81.959534%,82.749939%,83.139038%);fill-opacity:1;" d="M 583.054688 775.027344 C 582.253906 773.402344 580.601562 772.375 578.792969 772.375 L 571.945312 772.375 L 571.945312 776.003906 L 578.792969 776.003906 C 580.601562 776.003906 582.253906 777.03125 583.054688 778.65625 C 585.738281 784.109375 591.285156 787.566406 597.363281 787.566406 L 626.890625 787.566406 L 626.890625 783.933594 L 597.363281 783.933594 C 591.285156 783.933594 585.738281 780.480469 583.054688 775.027344 "/>
<path style=" stroke:none;fill-rule:nonzero;fill:rgb(81.959534%,82.749939%,83.139038%);fill-opacity:1;" d="M 577.027344 741.511719 L 571.945312 741.511719 L 571.945312 776.003906 L 577.027344 776.003906 L 577.027344 741.511719 "/>
<path style=" stroke:none;fill-rule:nonzero;fill:rgb(99.609375%,87.059021%,22.749329%);fill-opacity:1;" d="M 551.066406 780.726562 L 569.039062 780.726562 C 570.644531 780.726562 571.945312 779.425781 571.945312 777.824219 L 571.945312 740.242188 C 571.945312 738.636719 570.644531 737.335938 569.039062 737.335938 L 551.066406 737.335938 C 549.460938 737.335938 548.160156 738.636719 548.160156 740.242188 L 548.160156 777.824219 C 548.160156 779.425781 549.460938 780.726562 551.066406 780.726562 "/>
<path style=" stroke:none;fill-rule:nonzero;fill:rgb(96.859741%,79.60968%,8.239746%);fill-opacity:1;" d="M 569.039062 773.464844 L 551.066406 773.464844 C 549.460938 773.464844 548.164062 772.164062 548.164062 770.558594 L 548.164062 777.820312 C 548.164062 779.425781 549.460938 780.726562 551.066406 780.726562 L 569.039062 780.726562 C 570.644531 780.726562 571.945312 779.425781 571.945312 777.820312 L 571.945312 770.558594 C 571.945312 772.164062 570.644531 773.464844 569.039062 773.464844 "/>
<path style=" stroke:none;fill-rule:nonzero;fill:rgb(100%,100%,100%);fill-opacity:1;" d="M 632.726562 753.023438 L 618.429688 753.023438 C 615.25 753.023438 612.671875 750.445312 612.671875 747.265625 C 612.671875 744.085938 615.25 741.511719 618.429688 741.511719 L 632.726562 741.511719 C 635.90625 741.511719 638.480469 744.085938 638.480469 747.265625 C 638.480469 750.445312 635.90625 753.023438 632.726562 753.023438 "/>
<path style=" stroke:none;fill-rule:nonzero;fill:rgb(90.19928%,90.589905%,90.979004%);fill-opacity:1;" d="M 632.722656 750.121094 L 618.429688 750.121094 C 615.75 750.121094 613.507812 748.289062 612.863281 745.816406 C 612.742188 746.28125 612.671875 746.765625 612.671875 747.269531 C 612.671875 750.449219 615.25 753.027344 618.429688 753.027344 L 632.722656 753.027344 C 635.90625 753.027344 638.480469 750.449219 638.480469 747.269531 C 638.480469 746.765625 638.410156 746.28125 638.289062 745.816406 C 637.644531 748.289062 635.398438 750.121094 632.722656 750.121094 "/>
<path style=" stroke:none;fill-rule:nonzero;fill:rgb(90.19928%,90.589905%,90.979004%);fill-opacity:1;" d="M 624.847656 728.71875 L 614.222656 741.515625 L 609.277344 747.476562 C 609.320312 747.039062 609.34375 746.589844 609.34375 746.136719 C 609.34375 744.628906 609.109375 743.175781 608.660156 741.808594 L 608.910156 741.515625 L 621.945312 725.8125 C 625.109375 722 625.371094 716.648438 622.808594 712.574219 C 623.257812 712.734375 623.6875 712.988281 624.035156 713.371094 L 624.542969 713.933594 C 628.304688 718.101562 628.433594 724.394531 624.847656 728.71875 "/>
<path style=" stroke:none;fill-rule:nonzero;fill:rgb(100%,100%,100%);fill-opacity:1;" d="M 636.445312 764.539062 L 617.035156 764.539062 C 613.855469 764.539062 611.277344 761.960938 611.277344 758.78125 C 611.277344 755.601562 613.855469 753.023438 617.035156 753.023438 L 636.445312 753.023438 C 639.625 753.023438 642.203125 755.601562 642.203125 758.78125 C 642.203125 761.960938 639.625 764.539062 636.445312 764.539062 "/>
<path style=" stroke:none;fill-rule:nonzero;fill:rgb(90.19928%,90.589905%,90.979004%);fill-opacity:1;" d="M 636.445312 761.632812 L 617.035156 761.632812 C 614.359375 761.632812 612.117188 759.804688 611.472656 757.328125 C 611.351562 757.792969 611.28125 758.28125 611.28125 758.78125 C 611.28125 761.960938 613.855469 764.539062 617.035156 764.539062 L 636.445312 764.539062 C 639.625 764.539062 642.203125 761.960938 642.203125 758.78125 C 642.203125 758.28125 642.128906 757.792969 642.011719 757.328125 C 641.367188 759.804688 639.125 761.632812 636.445312 761.632812 "/>
<path style=" stroke:none;fill-rule:nonzero;fill:rgb(100%,100%,100%);fill-opacity:1;" d="M 631.910156 776.050781 L 618.429688 776.050781 C 615.25 776.050781 612.671875 773.472656 612.671875 770.292969 C 612.671875 767.117188 615.25 764.539062 618.429688 764.539062 L 631.910156 764.539062 C 635.085938 764.539062 637.664062 767.117188 637.664062 770.292969 C 637.664062 773.472656 635.085938 776.050781 631.910156 776.050781 "/>
<path style=" stroke:none;fill-rule:nonzero;fill:rgb(90.19928%,90.589905%,90.979004%);fill-opacity:1;" d="M 631.910156 773.144531 L 618.429688 773.144531 C 615.75 773.144531 613.507812 771.316406 612.863281 768.839844 C 612.742188 769.308594 612.671875 769.792969 612.671875 770.292969 C 612.671875 773.472656 615.25 776.050781 618.429688 776.050781 L 631.910156 776.050781 C 635.085938 776.050781 637.664062 773.472656 637.664062 770.292969 C 637.664062 769.792969 637.59375 769.308594 637.472656 768.839844 C 636.828125 771.316406 634.582031 773.144531 631.910156 773.144531 "/>
<path style=" stroke:none;fill-rule:nonzero;fill:rgb(100%,100%,100%);fill-opacity:1;" d="M 626.371094 787.5625 L 621.273438 787.5625 C 618.09375 787.5625 615.515625 784.984375 615.515625 781.804688 C 615.515625 778.628906 618.09375 776.050781 621.273438 776.050781 L 626.371094 776.050781 C 629.550781 776.050781 632.128906 778.628906 632.128906 781.804688 C 632.128906 784.984375 629.550781 787.5625 626.371094 787.5625 "/>
<path style=" stroke:none;fill-rule:nonzero;fill:rgb(90.19928%,90.589905%,90.979004%);fill-opacity:1;" d="M 626.371094 784.660156 L 621.273438 784.660156 C 618.59375 784.660156 616.351562 782.828125 615.707031 780.355469 C 615.585938 780.820312 615.515625 781.304688 615.515625 781.804688 C 615.515625 784.988281 618.09375 787.566406 621.273438 787.566406 L 626.371094 787.566406 C 629.550781 787.566406 632.128906 784.988281 632.128906 781.804688 C 632.128906 781.304688 632.054688 780.820312 631.9375 780.355469 C 631.289062 782.828125 629.046875 784.660156 626.371094 784.660156 "/>
<path style=" stroke:none;fill-rule:nonzero;fill:rgb(96.859741%,79.60968%,8.239746%);fill-opacity:1;" d="M 566.136719 780.726562 L 561.050781 780.726562 L 561.050781 737.335938 L 566.136719 737.335938 L 566.136719 780.726562 "/>
</g>
</svg>
