<?xml version="1.0" encoding="UTF-8"?>
<svg xmlns="http://www.w3.org/2000/svg" xmlns:xlink="http://www.w3.org/1999/xlink" width="1190.25pt" height="1683.749945pt" viewBox="0 0 1190.25 1683.749945" version="1.2">
<defs>
<clipPath id="clip1">
  <path d="M 357.089844 604.058594 L 833.238281 604.058594 L 833.238281 1080.207031 L 357.089844 1080.207031 Z M 357.089844 604.058594 "/>
</clipPath>
</defs>
<g id="surface1">
<g clip-path="url(#clip1)" clip-rule="nonzero">
<path style=" stroke:none;fill-rule:nonzero;fill:rgb(14.898682%,7.058716%,0%);fill-opacity:1;" d="M 793.59375 604.058594 L 396.773438 604.058594 C 374.867188 604.058594 357.089844 621.816406 357.089844 643.738281 L 357.089844 1040.558594 C 357.089844 1062.484375 374.867188 1080.242188 396.773438 1080.242188 L 793.59375 1080.242188 C 815.496094 1080.242188 833.273438 1062.484375 833.273438 1040.558594 L 833.273438 643.738281 C 833.273438 621.816406 815.496094 604.058594 793.59375 604.058594 Z M 793.59375 604.058594 "/>
<path style=" stroke:none;fill-rule:nonzero;fill:rgb(100%,48.629761%,0%);fill-opacity:1;" d="M 793.59375 623.898438 C 804.523438 623.898438 813.433594 632.808594 813.433594 643.738281 L 813.433594 1040.558594 C 813.433594 1051.492188 804.523438 1060.402344 793.59375 1060.402344 L 396.773438 1060.402344 C 385.839844 1060.402344 376.929688 1051.492188 376.929688 1040.558594 L 376.929688 643.738281 C 376.929688 632.808594 385.839844 623.898438 396.773438 623.898438 Z M 793.59375 604.058594 L 396.773438 604.058594 C 374.867188 604.058594 357.089844 621.816406 357.089844 643.738281 L 357.089844 1040.558594 C 357.089844 1062.484375 374.867188 1080.242188 396.773438 1080.242188 L 793.59375 1080.242188 C 815.496094 1080.242188 833.273438 1062.484375 833.273438 1040.558594 L 833.273438 643.738281 C 833.273438 621.816406 815.496094 604.058594 793.59375 604.058594 Z M 793.59375 604.058594 "/>
</g>
<path style=" stroke:none;fill-rule:nonzero;fill:rgb(100%,48.629761%,0%);fill-opacity:1;" d="M 704.921875 926.316406 C 704.921875 927.960938 704.605469 928.617188 702.640625 928.617188 L 671.886719 928.617188 C 669.902344 928.617188 669.25 927.625 669.25 926.039062 L 669.25 769.53125 L 669.089844 769.550781 C 669.089844 767.964844 669.746094 767.367188 671.390625 767.367188 L 702.542969 767.367188 C 704.289062 767.367188 704.921875 768.023438 704.921875 769.671875 Z M 704.921875 926.316406 "/>
<path style=" stroke:none;fill-rule:nonzero;fill:rgb(100%,48.629761%,0%);fill-opacity:1;" d="M 686.828125 744.730469 C 674.921875 744.730469 666.789062 737.527344 666.789062 724.433594 L 666.867188 724.433594 C 666.867188 711.675781 675.699219 704.136719 687.164062 704.136719 C 699.269531 704.136719 707.460938 712.308594 707.460938 724.433594 C 707.460938 737.527344 698.929688 744.730469 686.828125 744.730469 Z M 686.828125 744.730469 "/>
<path style=" stroke:none;fill-rule:nonzero;fill:rgb(100%,48.629761%,0%);fill-opacity:1;" d="M 576.332031 711.675781 C 576.015625 710.046875 575.339844 709.691406 574.03125 709.691406 L 532.445312 709.691406 C 531.453125 709.691406 530.796875 710.367188 530.796875 711.675781 C 530.480469 721.496094 529.847656 724.632812 528.855469 728.203125 L 472.503906 925.523438 C 472.207031 927.804688 472.503906 928.457031 474.488281 928.457031 L 503.617188 928.457031 C 505.558594 928.457031 506.214844 928.082031 506.550781 926.433594 L 522.265625 866.949219 L 522.207031 866.929688 L 585.835938 866.929688 L 602.207031 926.75 C 602.523438 928.0625 603.496094 928.457031 605.144531 928.457031 L 637.878906 928.457031 C 639.527344 928.457031 639.863281 927.484375 639.527344 925.839844 Z M 530.757812 834.710938 C 538.953125 803.957031 549.429688 764.671875 553.675781 741.457031 L 554.011719 741.457031 C 558.933594 764.710938 572.027344 812.765625 577.582031 834.710938 Z M 530.757812 834.710938 "/>
</g>
</svg>
