<?xml version="1.0" encoding="UTF-8"?>
<svg xmlns="http://www.w3.org/2000/svg" xmlns:xlink="http://www.w3.org/1999/xlink" width="1190.25pt" height="1683.749945pt" viewBox="0 0 1190.25 1683.749945" version="1.2">
<defs>
<clipPath id="clip1">
  <path d="M 357.089844 604.058594 L 833.238281 604.058594 L 833.238281 1080.207031 L 357.089844 1080.207031 Z M 357.089844 604.058594 "/>
</clipPath>
</defs>
<g id="surface1">
<g clip-path="url(#clip1)" clip-rule="nonzero">
<path style=" stroke:none;fill-rule:nonzero;fill:rgb(12.159729%,2.349854%,25.099182%);fill-opacity:1;" d="M 357.089844 643.738281 L 357.089844 1040.558594 C 357.089844 1062.484375 374.847656 1080.242188 396.773438 1080.242188 L 793.59375 1080.242188 C 815.515625 1080.242188 833.273438 1062.484375 833.273438 1040.558594 L 833.273438 643.738281 C 833.273438 621.816406 815.515625 604.058594 793.59375 604.058594 L 396.773438 604.058594 C 374.847656 604.058594 357.089844 621.816406 357.089844 643.738281 Z M 357.089844 643.738281 "/>
<path style=" stroke:none;fill-rule:nonzero;fill:rgb(82.348633%,56.858826%,99.609375%);fill-opacity:1;" d="M 793.59375 623.898438 C 804.523438 623.898438 813.433594 632.808594 813.433594 643.738281 L 813.433594 1040.558594 C 813.433594 1051.492188 804.523438 1060.402344 793.59375 1060.402344 L 396.773438 1060.402344 C 385.839844 1060.402344 376.929688 1051.492188 376.929688 1040.558594 L 376.929688 643.738281 C 376.929688 632.808594 385.839844 623.898438 396.773438 623.898438 Z M 793.59375 604.058594 L 396.773438 604.058594 C 374.867188 604.058594 357.089844 621.816406 357.089844 643.738281 L 357.089844 1040.558594 C 357.089844 1062.484375 374.867188 1080.242188 396.773438 1080.242188 L 793.59375 1080.242188 C 815.496094 1080.242188 833.273438 1062.484375 833.273438 1040.558594 L 833.273438 643.738281 C 833.273438 621.816406 815.496094 604.058594 793.59375 604.058594 Z M 793.59375 604.058594 "/>
</g>
<path style=" stroke:none;fill-rule:nonzero;fill:rgb(82.348633%,56.858826%,99.609375%);fill-opacity:1;" d="M 684.507812 764.492188 C 641.949219 764.492188 617.703125 802.785156 617.703125 849.609375 C 617.703125 892.824219 637.34375 931.453125 689.726562 931.453125 C 706.113281 931.453125 719.148438 929.152344 729.605469 923.914062 C 730.933594 922.921875 731.589844 921.929688 731.589844 919.945312 L 731.589844 895.066406 C 731.589844 893.4375 730.597656 893.101562 729.269531 893.738281 C 718.8125 898.339844 708.710938 899.886719 696.925781 899.886719 C 666.828125 899.886719 654.070312 881.910156 653.714844 855.105469 L 705.398438 855.105469 C 722.761719 855.105469 734.546875 854.453125 738.472656 853.796875 C 740.101562 853.460938 740.757812 852.902344 741.09375 851.277344 C 742.085938 847.683594 742.78125 839.828125 742.78125 830.304688 C 742.78125 800.859375 727.71875 764.492188 684.507812 764.492188 Z M 708.710938 827.449219 C 707.742188 827.765625 704.148438 827.765625 693.992188 827.765625 L 693.949219 827.726562 L 654.011719 827.726562 C 655.957031 810.066406 664.148438 793.359375 683.136719 793.359375 C 703.773438 793.359375 709.050781 813.183594 709.050781 823.996094 C 709.050781 824.96875 708.710938 826.097656 708.710938 827.449219 Z M 708.710938 827.449219 "/>
<path style=" stroke:none;fill-rule:nonzero;fill:rgb(82.348633%,56.858826%,99.609375%);fill-opacity:1;" d="M 545.757812 712.113281 C 545.441406 710.484375 544.765625 710.128906 543.457031 710.128906 L 501.871094 710.128906 C 500.878906 710.128906 500.222656 710.800781 500.222656 712.113281 C 499.90625 721.933594 499.269531 724.808594 498.277344 728.382812 L 441.929688 925.460938 C 441.613281 927.742188 441.929688 928.4375 443.914062 928.4375 L 473.042969 928.4375 C 474.984375 928.4375 475.640625 927.84375 475.976562 926.195312 L 491.691406 866.949219 L 491.75 866.910156 L 555.242188 866.910156 L 571.609375 926.472656 C 571.949219 927.785156 572.902344 928.378906 574.527344 928.378906 L 607.265625 928.378906 C 608.914062 928.378906 609.230469 927.425781 608.914062 925.800781 Z M 499.90625 834.730469 C 508.121094 803.9375 518.875 764.691406 523.121094 741.476562 L 523.4375 741.476562 C 528.316406 764.691406 541.808594 812.785156 547.367188 834.730469 Z M 499.90625 834.730469 "/>
</g>
</svg>
