<?xml version="1.0" encoding="UTF-8"?>
<svg xmlns="http://www.w3.org/2000/svg" xmlns:xlink="http://www.w3.org/1999/xlink" width="1190.25pt" height="1683.749945pt" viewBox="0 0 1190.25 1683.749945" version="1.2">
<defs>
<clipPath id="clip1">
  <path d="M 357.089844 604.058594 L 833.238281 604.058594 L 833.238281 1080.207031 L 357.089844 1080.207031 Z M 357.089844 604.058594 "/>
</clipPath>
</defs>
<g id="surface1">
<g clip-path="url(#clip1)" clip-rule="nonzero">
<path style=" stroke:none;fill-rule:nonzero;fill:rgb(18.03894%,0.779724%,7.839966%);fill-opacity:1;" d="M 357.089844 643.738281 L 357.089844 1040.558594 C 357.089844 1062.484375 374.847656 1080.242188 396.773438 1080.242188 L 793.59375 1080.242188 C 815.515625 1080.242188 833.273438 1062.484375 833.273438 1040.558594 L 833.273438 643.738281 C 833.273438 621.816406 815.515625 604.058594 793.59375 604.058594 L 396.773438 604.058594 C 374.847656 604.058594 357.089844 621.816406 357.089844 643.738281 Z M 357.089844 643.738281 "/>
<path style=" stroke:none;fill-rule:nonzero;fill:rgb(100%,24.708557%,58.039856%);fill-opacity:1;" d="M 793.59375 623.898438 C 804.523438 623.898438 813.433594 632.808594 813.433594 643.738281 L 813.433594 1040.558594 C 813.433594 1051.492188 804.523438 1060.402344 793.59375 1060.402344 L 396.773438 1060.402344 C 385.839844 1060.402344 376.929688 1051.492188 376.929688 1040.558594 L 376.929688 643.738281 C 376.929688 632.808594 385.839844 623.898438 396.773438 623.898438 Z M 793.59375 604.058594 L 396.773438 604.058594 C 374.867188 604.058594 357.089844 621.816406 357.089844 643.738281 L 357.089844 1040.558594 C 357.089844 1062.484375 374.867188 1080.242188 396.773438 1080.242188 L 793.59375 1080.242188 C 815.496094 1080.242188 833.273438 1062.484375 833.273438 1040.558594 L 833.273438 643.738281 C 833.273438 621.816406 815.496094 604.058594 793.59375 604.058594 Z M 793.59375 604.058594 "/>
</g>
<path style=" stroke:none;fill-rule:nonzero;fill:rgb(100%,24.708557%,58.039856%);fill-opacity:1;" d="M 531.195312 925.839844 C 531.195312 927.824219 530.859375 928.457031 528.574219 928.457031 L 498.101562 928.457031 C 496.117188 928.457031 495.480469 927.464844 495.480469 925.839844 L 495.480469 712.824219 C 495.480469 710.84375 496.472656 710.207031 498.101562 710.207031 L 528.914062 710.207031 C 530.539062 710.207031 531.195312 710.863281 531.195312 712.507812 Z M 531.195312 925.839844 "/>
<path style=" stroke:none;fill-rule:nonzero;fill:rgb(100%,24.708557%,58.039856%);fill-opacity:1;" d="M 694.386719 897.488281 L 694.386719 711.875 C 694.386719 710.882812 694.070312 710.207031 692.402344 710.207031 L 660.160156 710.207031 C 659.167969 710.207031 658.175781 710.882812 658.175781 712.191406 L 658.175781 764.847656 C 654.25 764.550781 651.949219 764.550781 647.703125 764.550781 C 597.621094 764.550781 566.3125 801.535156 566.3125 849.015625 L 566.253906 849.015625 C 566.253906 904.332031 597.683594 931.515625 641.589844 931.515625 C 658.613281 931.515625 676.628906 927.902344 693.652344 919.707031 C 694.984375 919.054688 695.378906 918.714844 695.378906 917.40625 C 694.386719 909.886719 694.386719 903.042969 694.386719 897.488281 Z M 658.21875 897.445312 C 654.289062 899.09375 649.03125 899.726562 644.128906 899.726562 C 621.214844 899.726562 603 884.6875 603 847.347656 C 603 814.609375 620.894531 794.96875 646.390625 794.96875 C 651.292969 794.96875 655.242188 795.640625 658.175781 796.953125 L 658.21875 796.953125 Z M 658.21875 897.445312 "/>
</g>
</svg>
