<?xml version="1.0" encoding="UTF-8"?>
<svg xmlns="http://www.w3.org/2000/svg" xmlns:xlink="http://www.w3.org/1999/xlink" width="1190.25pt" height="1683.749945pt" viewBox="0 0 1190.25 1683.749945" version="1.2">
<defs>
<clipPath id="clip1">
  <path d="M 357.089844 604.058594 L 833.238281 604.058594 L 833.238281 1080.207031 L 357.089844 1080.207031 Z M 357.089844 604.058594 "/>
</clipPath>
</defs>
<g id="surface1">
<g clip-path="url(#clip1)" clip-rule="nonzero">
<path style=" stroke:none;fill-rule:nonzero;fill:rgb(77.648926%,15.689087%,15.689087%);fill-opacity:1;" d="M 780.367188 1080.242188 L 410 1080.242188 C 380.78125 1080.242188 357.089844 1056.550781 357.089844 1027.332031 L 357.089844 656.964844 C 357.089844 627.746094 380.78125 604.058594 410 604.058594 L 780.367188 604.058594 C 809.585938 604.058594 833.273438 627.746094 833.273438 656.964844 L 833.273438 1027.332031 C 833.273438 1056.550781 809.585938 1080.242188 780.367188 1080.242188 Z M 780.367188 1080.242188 "/>
</g>
<path style=" stroke:none;fill-rule:nonzero;fill:rgb(100%,100%,100%);fill-opacity:1;" d="M 767.136719 829.925781 L 767.136719 841.144531 C 767.03125 841.753906 766.898438 842.347656 766.820312 842.957031 C 766.238281 847.835938 765.855469 852.746094 765.046875 857.585938 C 762.402344 873.328125 756.6875 887.957031 748.195312 901.488281 C 735.300781 922.03125 717.867188 937.691406 695.960938 948.390625 C 683.316406 954.59375 669.679688 958.578125 655.671875 960.175781 C 652.5625 960.535156 649.441406 960.851562 646.332031 961.195312 L 525.515625 961.195312 C 524.90625 961.089844 524.296875 960.90625 523.6875 960.863281 C 511.507812 960.109375 499.785156 957.359375 488.609375 952.503906 C 464.285156 941.964844 446.148438 924.875 434.285156 901.339844 C 429.035156 890.972656 425.648438 879.769531 424.246094 868.246094 C 423.902344 865.441406 423.570312 862.652344 423.226562 859.847656 L 423.226562 848.960938 C 423.347656 848.351562 423.519531 847.757812 423.558594 847.148438 C 424.191406 836.6875 426.347656 826.542969 430.171875 816.777344 C 440.4375 790.523438 458.320312 771.039062 483.742188 758.433594 C 496.929688 751.886719 510.992188 748.445312 525.6875 747.691406 C 532.882812 747.324219 540.078125 747.71875 547.234375 748.671875 C 547.882812 748.765625 548.820312 748.472656 549.269531 748.011719 C 559.5625 737.601562 571.28125 729.136719 584.480469 722.734375 C 597.300781 716.515625 610.777344 712.507812 624.96875 710.90625 C 628.316406 710.523438 631.664062 710.21875 635.011719 709.875 L 645.3125 709.875 C 645.988281 709.980469 646.664062 710.101562 647.339844 710.179688 C 652.445312 710.773438 657.574219 711.144531 662.628906 711.980469 C 678.394531 714.597656 693.078125 720.207031 706.664062 728.539062 C 727.496094 741.316406 743.367188 758.617188 754.214844 780.390625 C 760.484375 792.929688 764.519531 806.449219 766.121094 820.351562 C 766.476562 823.539062 766.792969 826.738281 767.136719 829.925781 M 574.839844 757.347656 C 575.050781 757.613281 575.089844 757.746094 575.183594 757.785156 C 582.257812 761.238281 589.019531 765.285156 595.394531 769.886719 C 595.789062 770.179688 596.796875 770.058594 597.285156 769.757812 C 614.796875 758.765625 633.792969 754.96875 654.191406 758.550781 C 674.175781 762.058594 690.445312 771.953125 702.867188 787.757812 C 716.941406 805.640625 722.296875 825.867188 718.421875 848.367188 C 715.816406 863.445312 709.71875 876.976562 699.359375 888.3125 C 680.460938 908.972656 656.769531 917.519531 628.898438 913.90625 C 611.742188 911.6875 596.929688 904.34375 584.667969 892.070312 C 568.925781 876.316406 553.09375 860.679688 537.3125 844.964844 C 535.210938 842.875 532.867188 841.195312 529.839844 840.828125 C 524.546875 840.179688 519.746094 842.796875 517.457031 847.507812 C 515.421875 851.710938 515.6875 856.449219 520.105469 860.761719 C 537.695312 877.875 555.128906 895.136719 572.710938 912.265625 C 575.710938 915.21875 578.9375 917.929688 582.351562 920.402344 C 595.183594 929.636719 609.667969 934.742188 625.328125 936.804688 C 637.628906 938.417969 649.835938 938.074219 661.941406 935.375 C 685.050781 930.230469 704.175781 918.550781 719.253906 900.523438 C 731.703125 885.628906 739.226562 868.511719 741.847656 849.292969 C 743.367188 838.328125 743.050781 827.203125 740.90625 816.34375 C 737.417969 798.589844 729.835938 782.707031 717.679688 769.1875 C 694.507812 743.40625 665.355469 731.898438 630.65625 734.464844 C 617.3125 735.457031 604.691406 739.332031 592.816406 745.496094 C 586.425781 748.777344 580.394531 752.757812 574.839844 757.347656 M 566.359375 937.320312 C 565.882812 936.882812 565.40625 936.445312 564.929688 935.996094 C 557.734375 929.265625 550.5 922.585938 543.398438 915.773438 C 542.023438 914.449219 540.75 913.816406 538.808594 913.855469 C 531.613281 914.027344 524.402344 914.054688 517.3125 912.464844 C 482.050781 904.570312 461.558594 866.566406 474.5625 833.140625 C 484.8125 806.78125 513.199219 790.734375 541.1875 795.679688 C 553.726562 797.902344 564.746094 803.15625 573.78125 812.402344 C 584.800781 823.671875 596.148438 834.621094 607.296875 845.785156 C 609.839844 848.328125 612.75 849.492188 616.253906 848.988281 C 620.789062 848.339844 624.414062 846.195312 626.054688 841.792969 C 627.667969 837.453125 626.886719 833.339844 623.566406 830.007812 C 611.875 818.273438 600.460938 806.238281 588.289062 795.007812 C 564.695312 773.207031 536.875 766.714844 506.097656 775.984375 C 464.707031 788.445312 440.476562 830.800781 449.933594 872.585938 C 458.558594 910.652344 492.15625 937.386719 531.480469 937.414062 C 542.457031 937.425781 553.4375 937.414062 564.414062 937.414062 C 564.972656 937.414062 565.511719 937.371094 566.359375 937.320312 "/>
</g>
</svg>
