<?xml version="1.0" encoding="UTF-8"?>
<svg xmlns="http://www.w3.org/2000/svg" xmlns:xlink="http://www.w3.org/1999/xlink" width="1190.25pt" height="1683.749945pt" viewBox="0 0 1190.25 1683.749945" version="1.2">
<defs>
<clipPath id="clip1">
  <path d="M 357.089844 604.058594 L 833.238281 604.058594 L 833.238281 1080.207031 L 357.089844 1080.207031 Z M 357.089844 604.058594 "/>
</clipPath>
</defs>
<g id="surface1">
<g clip-path="url(#clip1)" clip-rule="nonzero">
<path style=" stroke:none;fill-rule:nonzero;fill:rgb(100%,25.489807%,78.42865%);fill-opacity:1;" d="M 357.089844 656.964844 C 357.089844 627.746094 380.78125 604.058594 410 604.058594 L 780.367188 604.058594 C 809.585938 604.058594 833.273438 627.746094 833.273438 656.964844 L 833.273438 1027.332031 C 833.273438 1056.550781 809.585938 1080.242188 780.367188 1080.242188 L 410 1080.242188 C 380.78125 1080.242188 357.089844 1056.550781 357.089844 1027.332031 Z M 357.089844 656.964844 "/>
</g>
<path style=" stroke:none;fill-rule:nonzero;fill:rgb(8.628845%,0.779724%,4.309082%);fill-opacity:1;" d="M 396.773438 643.738281 L 396.773438 1040.558594 L 793.59375 1040.558594 L 793.59375 643.738281 Z M 530.277344 811.660156 L 555.59375 747.070312 L 599.125 747.070312 L 554.945312 840.335938 L 600.15625 935.152344 L 556.109375 935.152344 L 530.277344 869.398438 L 504.574219 935.152344 L 460.527344 935.152344 L 505.738281 840.335938 L 461.425781 747.070312 L 504.957031 747.070312 Z M 609.324219 861.011719 C 609.324219 838.101562 613.199219 821.011719 620.949219 809.730469 C 628.699219 798.445312 639.96875 792.8125 654.796875 792.8125 C 665.550781 792.8125 674.519531 797.46875 681.664062 806.765625 L 681.664062 736.753906 L 718.472656 736.753906 L 718.472656 935.164062 L 685.273438 935.164062 L 683.59375 920.957031 C 676.105469 932.160156 666.453125 937.757812 654.652344 937.757812 C 640.023438 937.757812 628.847656 932.160156 621.132812 920.957031 C 613.421875 909.753906 609.480469 893.3125 609.308594 871.621094 L 609.308594 861.011719 Z M 646.015625 870.179688 C 646.015625 883.960938 647.46875 893.589844 650.40625 899.054688 C 653.34375 904.515625 658.289062 907.253906 665.261719 907.253906 C 672.496094 907.253906 677.960938 904.027344 681.664062 897.570312 L 681.664062 833.761719 C 678.050781 826.871094 672.617188 823.433594 665.394531 823.433594 C 658.671875 823.433594 653.765625 826.144531 650.671875 831.566406 C 647.574219 836.992188 646.015625 846.648438 646.015625 860.507812 Z M 646.015625 870.179688 "/>
</g>
</svg>
