<?xml version="1.0" encoding="UTF-8"?>
<svg xmlns="http://www.w3.org/2000/svg" xmlns:xlink="http://www.w3.org/1999/xlink" width="1190.25pt" height="1683.749945pt" viewBox="0 0 1190.25 1683.749945" version="1.2">
<defs>
<clipPath id="clip1">
  <path d="M 704 660 L 833.238281 660 L 833.238281 796 L 704 796 Z M 704 660 "/>
</clipPath>
<clipPath id="clip2">
  <path d="M 357.089844 717 L 449 717 L 449 899 L 357.089844 899 Z M 357.089844 717 "/>
</clipPath>
<clipPath id="clip3">
  <path d="M 357.089844 910 L 564 910 L 564 1080.207031 L 357.089844 1080.207031 Z M 357.089844 910 "/>
</clipPath>
<clipPath id="clip4">
  <path d="M 806 814 L 833.238281 814 L 833.238281 858 L 806 858 Z M 806 814 "/>
</clipPath>
<clipPath id="clip5">
  <path d="M 358 604.058594 L 829 604.058594 L 829 868 L 358 868 Z M 358 604.058594 "/>
</clipPath>
<clipPath id="clip6">
  <path d="M 504 829 L 833.238281 829 L 833.238281 1058 L 504 1058 Z M 504 829 "/>
</clipPath>
<clipPath id="clip7">
  <path d="M 670 1021 L 833.238281 1021 L 833.238281 1080.207031 L 670 1080.207031 Z M 670 1021 "/>
</clipPath>
</defs>
<g id="surface1">
<g clip-path="url(#clip1)" clip-rule="nonzero">
<path style=" stroke:none;fill-rule:nonzero;fill:rgb(95.289612%,30.589294%,22.349548%);fill-opacity:1;" d="M 833.273438 681.875 C 830.121094 678.042969 826.03125 672.886719 822.003906 667.667969 L 820.773438 665.980469 L 820.773438 665.78125 C 815.816406 659.035156 812.242188 660.027344 808.273438 661.019531 C 804.308594 662.011719 713.632812 678.28125 708.078125 678.878906 C 702.523438 679.871094 704.308594 682.847656 706.6875 686.019531 L 786.054688 795.1875 L 833.273438 783.894531 Z M 833.273438 681.875 "/>
</g>
<g clip-path="url(#clip2)" clip-rule="nonzero">
<path style=" stroke:none;fill-rule:nonzero;fill:rgb(95.289612%,30.589294%,22.349548%);fill-opacity:1;" d="M 357.488281 898.21875 L 443.398438 877.585938 C 450.34375 876 448.558594 875.203125 445.183594 869.054688 L 357.488281 717.585938 Z M 357.488281 898.21875 "/>
</g>
<g clip-path="url(#clip3)" clip-rule="nonzero">
<path style=" stroke:none;fill-rule:nonzero;fill:rgb(95.289612%,30.589294%,22.349548%);fill-opacity:1;" d="M 420.582031 1080.242188 L 563.238281 1080.242188 C 544.585938 1049.863281 493.792969 958.160156 467.40625 910.324219 L 467.207031 910.324219 L 467.207031 910.125 L 357.089844 938.914062 L 357.089844 1016.929688 C 357.210938 1051.910156 385.582031 1080.242188 420.582031 1080.242188 Z M 420.582031 1080.242188 "/>
</g>
<g clip-path="url(#clip4)" clip-rule="nonzero">
<path style=" stroke:none;fill-rule:nonzero;fill:rgb(95.289612%,30.589294%,22.349548%);fill-opacity:1;" d="M 833.273438 857.527344 L 833.273438 814.054688 L 806.488281 821.414062 L 808.472656 824.191406 Z M 833.273438 857.527344 "/>
</g>
<g clip-path="url(#clip5)" clip-rule="nonzero">
<path style=" stroke:none;fill-rule:nonzero;fill:rgb(95.289612%,30.589294%,22.349548%);fill-opacity:1;" d="M 757.085938 802.148438 L 667.207031 674.710938 C 659.664062 664.195312 667.207031 659.433594 679.507812 657.449219 C 691.410156 655.265625 795.378906 637.804688 804.503906 636.617188 C 811.847656 635.425781 817.996094 633.042969 828.316406 642.570312 C 818.789062 619.929688 796.371094 604.058594 770.179688 604.058594 L 420.582031 604.058594 C 420.5625 604.058594 420.523438 604.058594 420.480469 604.058594 C 389.769531 604.058594 364.191406 626 358.480469 655.464844 L 485.261719 867.25 Z M 757.085938 802.148438 "/>
</g>
<g clip-path="url(#clip6)" clip-rule="nonzero">
<path style=" stroke:none;fill-rule:nonzero;fill:rgb(95.289612%,30.589294%,22.349548%);fill-opacity:1;" d="M 833.273438 904.171875 L 782.480469 834.710938 C 779.308594 829.75 777.523438 828.757812 769.785156 831.335938 L 504.707031 900.402344 C 504.707031 900.402344 586.054688 1041.332031 592.207031 1050.261719 C 598.554688 1059.390625 602.324219 1058.59375 607.285156 1056.609375 C 610.855469 1055.023438 762.046875 1003.8125 833.273438 979.785156 Z M 833.273438 904.171875 "/>
</g>
<g clip-path="url(#clip7)" clip-rule="nonzero">
<path style=" stroke:none;fill-rule:nonzero;fill:rgb(95.289612%,30.589294%,22.349548%);fill-opacity:1;" d="M 833.078125 1021.890625 L 670.578125 1080.042969 L 770.179688 1080.042969 C 803.511719 1080.042969 830.695312 1054.230469 833.078125 1021.890625 Z M 833.078125 1021.890625 "/>
</g>
</g>
</svg>
