<?xml version="1.0" encoding="UTF-8"?>
<svg xmlns="http://www.w3.org/2000/svg" xmlns:xlink="http://www.w3.org/1999/xlink" width="1190.25pt" height="1683.749945pt" viewBox="0 0 1190.25 1683.749945" version="1.2">
<defs>
<clipPath id="clip1">
  <path d="M 357.089844 747 L 489 747 L 489 937 L 357.089844 937 Z M 357.089844 747 "/>
</clipPath>
<clipPath id="clip2">
  <path d="M 640 745.703125 L 833.238281 745.703125 L 833.238281 938.292969 L 640 938.292969 Z M 640 745.703125 "/>
</clipPath>
</defs>
<g id="surface1">
<path style=" stroke:none;fill-rule:nonzero;fill:rgb(16.468811%,59.21936%,74.119568%);fill-opacity:1;" d="M 825.515625 840.761719 C 825.515625 791.03125 785.144531 750.722656 735.351562 750.722656 C 685.550781 750.722656 645.183594 791.03125 645.183594 840.761719 C 645.183594 890.492188 685.550781 930.808594 735.351562 930.808594 C 785.144531 930.808594 825.515625 890.492188 825.515625 840.761719 "/>
<path style=" stroke:none;fill-rule:nonzero;fill:rgb(96.078491%,66.668701%,10.5896%);fill-opacity:1;" d="M 485.148438 876.992188 C 485.148438 888.042969 482.34375 897.851562 476.726562 906.421875 C 471.113281 914.992188 463.019531 921.65625 452.445312 926.410156 C 441.867188 931.160156 429.460938 933.535156 415.222656 933.535156 C 403.34375 933.535156 393.378906 932.703125 385.324219 931.042969 C 377.269531 929.375 368.890625 926.472656 360.183594 922.324219 L 360.183594 879.429688 C 369.378906 884.144531 378.9375 887.816406 388.863281 890.460938 C 398.789062 893.097656 407.902344 894.417969 416.199219 894.417969 C 423.359375 894.417969 428.605469 893.183594 431.941406 890.699219 C 435.277344 888.222656 436.945312 885.035156 436.945312 881.132812 C 436.945312 878.695312 436.273438 876.5625 434.929688 874.738281 C 433.589844 872.90625 431.433594 871.058594 428.464844 869.191406 C 425.492188 867.324219 417.582031 863.503906 404.726562 857.734375 C 393.09375 852.457031 384.367188 847.335938 378.550781 842.382812 C 372.734375 837.425781 368.421875 831.738281 365.617188 825.320312 C 362.808594 818.902344 361.40625 811.304688 361.40625 802.527344 C 361.40625 786.117188 367.382812 773.324219 379.34375 764.140625 C 391.304688 754.960938 407.738281 750.371094 428.648438 750.371094 C 447.113281 750.371094 465.945312 754.636719 485.148438 763.164062 L 470.382812 800.335938 C 453.703125 792.699219 439.304688 788.878906 427.179688 788.878906 C 420.917969 788.878906 416.359375 789.976562 413.515625 792.167969 C 410.664062 794.363281 409.242188 797.085938 409.242188 800.335938 C 409.242188 803.828125 411.050781 806.960938 414.671875 809.71875 C 418.292969 812.480469 428.117188 817.519531 444.144531 824.832031 C 459.519531 831.738281 470.199219 839.148438 476.179688 847.070312 C 482.160156 854.992188 485.148438 864.96875 485.148438 876.992188 "/>
<path style=" stroke:none;fill-rule:nonzero;fill:rgb(96.078491%,66.668701%,10.5896%);fill-opacity:1;" d="M 618.652344 931.097656 L 512.726562 931.097656 L 512.726562 752.925781 L 618.652344 752.925781 L 618.652344 791.5625 L 560.933594 791.5625 L 560.933594 819.589844 L 614.382812 819.589844 L 614.382812 858.222656 L 560.933594 858.222656 L 560.933594 891.855469 L 618.652344 891.855469 L 618.652344 931.097656 "/>
<g clip-path="url(#clip1)" clip-rule="nonzero">
<path style=" stroke:none;fill-rule:nonzero;fill:rgb(10.198975%,19.60907%,23.919678%);fill-opacity:1;" d="M 363.261719 920.371094 C 371.089844 923.964844 378.714844 926.539062 385.945312 928.03125 C 393.765625 929.648438 403.613281 930.46875 415.222656 930.46875 C 428.953125 930.46875 441.054688 928.160156 451.179688 923.609375 C 461.167969 919.117188 468.894531 912.773438 474.152344 904.738281 C 479.410156 896.71875 482.074219 887.382812 482.074219 876.992188 C 482.074219 865.707031 479.265625 856.257812 473.722656 848.921875 C 468.089844 841.457031 457.710938 834.292969 442.882812 827.632812 C 426.476562 820.148438 416.640625 815.089844 412.804688 812.160156 C 408.402344 808.800781 406.167969 804.820312 406.167969 800.335938 C 406.167969 796.160156 408.058594 792.492188 411.636719 789.738281 C 415.066406 787.097656 420.152344 785.808594 427.179688 785.808594 C 438.957031 785.808594 452.917969 789.308594 468.707031 796.21875 L 481.191406 764.796875 C 463.390625 757.261719 445.726562 753.441406 428.648438 753.441406 C 408.53125 753.441406 392.574219 757.859375 381.21875 766.574219 C 369.957031 775.222656 364.480469 786.984375 364.480469 802.527344 C 364.480469 810.835938 365.8125 818.089844 368.433594 824.089844 C 371.039062 830.050781 375.117188 835.417969 380.546875 840.042969 C 386.117188 844.792969 394.679688 849.804688 406 854.941406 C 419.097656 860.820312 426.984375 864.632812 430.101562 866.589844 C 433.433594 868.6875 435.824219 870.761719 437.410156 872.921875 C 439.144531 875.277344 440.019531 878.042969 440.019531 881.132812 C 440.019531 886.039062 437.917969 890.085938 433.777344 893.164062 C 429.859375 896.074219 424.109375 897.488281 416.199219 897.488281 C 407.671875 897.488281 398.207031 896.121094 388.070312 893.425781 C 379.582031 891.167969 371.257812 888.125 363.261719 884.363281 Z M 415.222656 936.609375 C 403.199219 936.609375 392.929688 935.746094 384.703125 934.046875 C 376.449219 932.339844 367.753906 929.328125 358.863281 925.101562 C 357.792969 924.589844 357.109375 923.511719 357.109375 922.324219 L 357.109375 879.429688 C 357.109375 878.355469 357.667969 877.363281 358.582031 876.808594 C 359.496094 876.25 360.636719 876.207031 361.589844 876.695312 C 370.546875 881.289062 379.988281 884.921875 389.652344 887.492188 C 399.273438 890.050781 408.203125 891.347656 416.199219 891.347656 C 422.648438 891.347656 427.328125 890.300781 430.105469 888.238281 C 432.671875 886.328125 433.871094 884.070312 433.871094 881.132812 C 433.871094 879.351562 433.40625 877.851562 432.453125 876.550781 C 431.347656 875.046875 429.453125 873.441406 426.824219 871.789062 C 423.992188 870.007812 416.132812 866.222656 403.46875 860.539062 C 391.613281 855.15625 382.5625 849.835938 376.554688 844.71875 C 370.410156 839.480469 365.78125 833.371094 362.796875 826.546875 C 359.832031 819.769531 358.332031 811.691406 358.332031 802.527344 C 358.332031 785.191406 364.769531 771.457031 377.46875 761.703125 C 389.925781 752.144531 407.140625 747.296875 428.648438 747.296875 C 447.460938 747.296875 466.890625 751.691406 486.398438 760.359375 C 487.90625 761.027344 488.613281 762.765625 488.007812 764.300781 L 473.242188 801.46875 C 472.929688 802.25 472.308594 802.871094 471.527344 803.183594 C 470.746094 803.5 469.867188 803.480469 469.101562 803.125 C 452.902344 795.710938 438.796875 791.953125 427.179688 791.953125 C 421.640625 791.953125 417.675781 792.839844 415.394531 794.601562 C 413.296875 796.21875 412.316406 798.039062 412.316406 800.335938 C 412.316406 802.839844 413.699219 805.113281 416.539062 807.277344 C 419.960938 809.890625 429.675781 814.855469 445.421875 822.039062 C 461.1875 829.117188 472.367188 836.921875 478.636719 845.222656 C 485 853.652344 488.222656 864.339844 488.222656 876.992188 C 488.222656 888.597656 485.222656 899.066406 479.300781 908.105469 C 473.390625 917.128906 464.777344 924.234375 453.707031 929.207031 C 442.777344 934.117188 429.832031 936.609375 415.222656 936.609375 "/>
</g>
<path style=" stroke:none;fill-rule:nonzero;fill:rgb(10.198975%,19.60907%,23.919678%);fill-opacity:1;" d="M 515.804688 928.03125 L 615.582031 928.03125 L 615.582031 894.929688 L 560.933594 894.929688 C 559.234375 894.929688 557.855469 893.554688 557.855469 891.855469 L 557.855469 858.222656 C 557.855469 856.527344 559.234375 855.152344 560.933594 855.152344 L 611.308594 855.152344 L 611.308594 822.660156 L 560.933594 822.660156 C 559.234375 822.660156 557.855469 821.285156 557.855469 819.589844 L 557.855469 791.5625 C 557.855469 789.863281 559.234375 788.488281 560.933594 788.488281 L 615.582031 788.488281 L 615.582031 756 L 515.804688 756 Z M 618.652344 934.171875 L 512.726562 934.171875 C 511.03125 934.171875 509.652344 932.796875 509.652344 931.097656 L 509.652344 752.925781 C 509.652344 751.234375 511.03125 749.859375 512.726562 749.859375 L 618.652344 749.859375 C 620.355469 749.859375 621.730469 751.234375 621.730469 752.925781 L 621.730469 791.5625 C 621.730469 793.253906 620.355469 794.628906 618.652344 794.628906 L 564.007812 794.628906 L 564.007812 816.519531 L 614.382812 816.519531 C 616.082031 816.519531 617.460938 817.894531 617.460938 819.589844 L 617.460938 858.222656 C 617.460938 859.917969 616.082031 861.296875 614.382812 861.296875 L 564.007812 861.296875 L 564.007812 888.789062 L 618.652344 888.789062 C 620.355469 888.789062 621.730469 890.164062 621.730469 891.855469 L 621.730469 931.097656 C 621.730469 932.796875 620.355469 934.171875 618.652344 934.171875 "/>
<g clip-path="url(#clip2)" clip-rule="nonzero">
<path style=" stroke:none;fill-rule:nonzero;fill:rgb(10.198975%,19.60907%,23.919678%);fill-opacity:1;" d="M 703.9375 795.949219 C 705.464844 791.351562 707.230469 787.027344 709.226562 783.039062 C 716.0625 769.390625 724.746094 761.292969 733.941406 759.890625 L 733.941406 799.25 C 723.460938 799.078125 713.324219 797.945312 703.9375 795.949219 Z M 697.058594 839.140625 C 697.28125 825.734375 699.074219 812.890625 702.257812 801.464844 C 712.179688 803.617188 722.886719 804.824219 733.941406 805 L 733.941406 839.140625 Z M 702.257812 882.566406 C 699.074219 871.136719 697.28125 858.296875 697.058594 844.890625 L 733.941406 844.890625 L 733.941406 879.027344 C 722.886719 879.207031 712.179688 880.414062 702.257812 882.566406 Z M 709.226562 900.988281 C 707.230469 897.003906 705.464844 892.679688 703.941406 888.082031 C 713.324219 886.082031 723.460938 884.953125 733.941406 884.777344 L 733.941406 924.140625 C 724.746094 922.738281 716.0625 914.640625 709.226562 900.988281 Z M 677.769531 896.929688 C 683.894531 893.867188 690.824219 891.347656 698.316406 889.40625 C 699.96875 894.453125 701.886719 899.195312 704.074219 903.5625 C 709.394531 914.183594 715.890625 921.84375 723.050781 926.132812 C 703.539062 922.96875 686.246094 913.203125 673.546875 899.195312 C 674.886719 898.421875 676.296875 897.664062 677.769531 896.929688 Z M 691.300781 844.890625 C 691.523438 858.722656 693.371094 872.015625 696.65625 883.898438 C 688.847656 885.9375 681.613281 888.578125 675.191406 891.785156 C 673.289062 892.734375 671.484375 893.722656 669.773438 894.742188 C 658.875 880.9375 652.15625 863.683594 651.53125 844.890625 Z M 673.546875 784.832031 C 686.246094 770.832031 703.539062 761.0625 723.050781 757.898438 C 715.890625 762.183594 709.394531 769.84375 704.074219 780.46875 C 701.886719 784.835938 699.96875 789.578125 698.316406 794.625 C 690.824219 792.679688 683.894531 790.160156 677.769531 787.101562 C 676.296875 786.367188 674.886719 785.609375 673.546875 784.832031 Z M 675.191406 792.242188 C 681.613281 795.449219 688.847656 798.09375 696.65625 800.128906 C 693.371094 812.011719 691.523438 825.304688 691.300781 839.140625 L 651.53125 839.140625 C 652.15625 820.34375 658.875 803.09375 669.773438 789.289062 C 671.484375 790.308594 673.289062 791.292969 675.191406 792.242188 Z M 782.34375 839.140625 C 782.117188 825.304688 780.273438 812.011719 776.984375 800.128906 C 784.796875 798.09375 792.03125 795.449219 798.453125 792.242188 C 800.351562 791.292969 802.15625 790.308594 803.867188 789.289062 C 814.769531 803.09375 821.484375 820.34375 822.109375 839.140625 Z M 798.453125 891.785156 C 792.03125 888.578125 784.796875 885.9375 776.984375 883.898438 C 780.273438 872.015625 782.117188 858.722656 782.34375 844.890625 L 822.109375 844.890625 C 821.484375 863.683594 814.769531 880.9375 803.867188 894.742188 C 802.15625 893.722656 800.351562 892.734375 798.453125 891.785156 Z M 750.59375 926.132812 C 757.753906 921.84375 764.25 914.183594 769.566406 903.5625 C 771.753906 899.195312 773.675781 894.453125 775.328125 889.40625 C 782.820312 891.347656 789.746094 893.867188 795.878906 896.929688 C 797.347656 897.664062 798.753906 898.421875 800.097656 899.195312 C 787.402344 913.203125 770.109375 922.96875 750.59375 926.132812 Z M 769.707031 888.082031 C 768.183594 892.679688 766.410156 897.003906 764.417969 900.988281 C 757.582031 914.640625 748.894531 922.738281 739.699219 924.140625 L 739.699219 884.777344 C 750.183594 884.953125 760.316406 886.082031 769.707031 888.082031 Z M 776.578125 844.890625 C 776.355469 858.296875 774.566406 871.136719 771.386719 882.566406 C 761.464844 880.414062 750.757812 879.207031 739.699219 879.027344 L 739.699219 844.890625 Z M 771.386719 801.464844 C 774.566406 812.890625 776.355469 825.734375 776.578125 839.140625 L 739.699219 839.140625 L 739.699219 805 C 750.757812 804.824219 761.464844 803.617188 771.386719 801.464844 Z M 750.59375 757.898438 C 770.109375 761.0625 787.402344 770.832031 800.097656 784.832031 C 798.753906 785.609375 797.347656 786.367188 795.878906 787.101562 C 789.746094 790.160156 782.820312 792.679688 775.328125 794.625 C 773.675781 789.578125 771.753906 784.835938 769.566406 780.46875 C 764.25 769.84375 757.753906 762.183594 750.59375 757.898438 Z M 764.417969 783.039062 C 766.410156 787.027344 768.183594 791.351562 769.707031 795.949219 C 760.316406 797.945312 750.183594 799.078125 739.699219 799.25 L 739.699219 759.890625 C 748.894531 761.292969 757.582031 769.390625 764.417969 783.039062 Z M 736.820312 745.714844 C 683.5625 745.714844 640.390625 788.832031 640.390625 842.015625 C 640.390625 895.199219 683.5625 938.3125 736.820312 938.3125 C 790.074219 938.3125 833.25 895.199219 833.25 842.015625 C 833.25 788.832031 790.074219 745.714844 736.820312 745.714844 "/>
</g>
</g>
</svg>
