<svg xmlns="http://www.w3.org/2000/svg" viewBox="0 0 18.77 21.58"><title>Asset 14</title><g id="Layer_2" data-name="Layer 2"><g id="Layer_11" data-name="Layer 11"><path d="M13.71,21.58H5.06a1.76,1.76,0,0,1-1.75-1.75v-3.3A9.3,9.3,0,0,1,2.55,3,9.35,9.35,0,0,1,18.77,9.39a9.31,9.31,0,0,1-3.31,7.14v3.3A1.76,1.76,0,0,1,13.71,21.58ZM9.39,1.5H9.16A7.79,7.79,0,0,0,3.65,4a7.81,7.81,0,0,0,.88,11.55.74.74,0,0,1,.28.59v3.65a.25.25,0,0,0,.25.25h8.65a.25.25,0,0,0,.25-.25V16.18a.75.75,0,0,1,.29-.59A7.88,7.88,0,0,0,9.39,1.5Z"/><path d="M13,13.23a3.14,3.14,0,1,1,3.14-3.14A3.15,3.15,0,0,1,13,13.23Zm0-4.78a1.64,1.64,0,1,0,1.64,1.64A1.65,1.65,0,0,0,13,8.45Z"/><path d="M5.79,13.23a3.14,3.14,0,1,1,3.14-3.14A3.15,3.15,0,0,1,5.79,13.23Zm0-4.78a1.64,1.64,0,1,0,1.64,1.64A1.65,1.65,0,0,0,5.79,8.45Z"/><path d="M7.78,21.58A.76.76,0,0,1,7,20.83V17.12a.75.75,0,1,1,1.5,0v3.71A.76.76,0,0,1,7.78,21.58Z"/><path d="M11,21.58a.76.76,0,0,1-.75-.75V17.12a.75.75,0,0,1,1.5,0v3.71A.75.75,0,0,1,11,21.58Z"/></g></g></svg>