<svg xmlns="http://www.w3.org/2000/svg" viewBox="0 0 21.55 21.96"><title>Asset 31</title><g id="Layer_2" data-name="Layer 2"><g id="Layer_22" data-name="Layer 22"><path d="M16.8,22h-8A2.75,2.75,0,0,1,6,19.21V14.62a.75.75,0,1,1,1.5,0v4.59a1.25,1.25,0,0,0,1.25,1.25H16.8a1.25,1.25,0,0,0,1.25-1.25V14.62a.75.75,0,0,1,1.5,0v4.59A2.75,2.75,0,0,1,16.8,22Z"/><path d="M18.8,15.37a2.75,2.75,0,1,1,2.75-2.75A2.75,2.75,0,0,1,18.8,15.37Zm0-4a1.25,1.25,0,1,0,1.25,1.25A1.25,1.25,0,0,0,18.8,11.37Z"/><circle cx="9.53" cy="1.54" r="1.54"/><path d="M6.75,15.37A6.76,6.76,0,0,1,0,8.62V2.53A1.76,1.76,0,0,1,1.75.78H4a.75.75,0,1,1,0,1.5H1.75a.25.25,0,0,0-.25.25V8.62A5.25,5.25,0,1,0,12,8.62V2.53a.25.25,0,0,0-.25-.25H9.54a.75.75,0,0,1,0-1.5h2.2a1.75,1.75,0,0,1,1.75,1.75V8.62A6.75,6.75,0,0,1,6.75,15.37Z"/><circle cx="3.96" cy="1.54" r="1.54"/></g></g></svg>