<svg xmlns="http://www.w3.org/2000/svg" viewBox="0 0 20.03 20.03"><title>Asset 32</title><g id="Layer_2" data-name="Layer 2"><g id="Layer_23" data-name="Layer 23"><path d="M6.18,20a3.38,3.38,0,0,1-2.4-1,3.34,3.34,0,0,1-.93-1.85,3.38,3.38,0,1,1,2-6.38l6-6A3.35,3.35,0,0,1,11.46,1a3.39,3.39,0,0,1,4.79,0,3.36,3.36,0,0,1,.94,1.85A3.38,3.38,0,0,1,19,8.57a3.39,3.39,0,0,1-3.83.65l-6,6A3.38,3.38,0,0,1,6.18,20ZM3.56,15.72a.75.75,0,0,1,.53.22.8.8,0,0,1,.22.58A1.85,1.85,0,0,0,4.84,18a1.94,1.94,0,0,0,2.67,0,1.87,1.87,0,0,0,.17-2.45.76.76,0,0,1,.07-1l6.81-6.8a.75.75,0,0,1,1-.07A1.88,1.88,0,0,0,18,4.84a1.85,1.85,0,0,0-1.46-.53.8.8,0,0,1-.58-.22.74.74,0,0,1-.21-.58,1.89,1.89,0,0,0-.54-1.46,1.93,1.93,0,0,0-2.66,0,1.86,1.86,0,0,0-.18,2.45.74.74,0,0,1-.07,1l-6.8,6.8a.76.76,0,0,1-1,.07,1.87,1.87,0,0,0-2.45.17,1.9,1.9,0,0,0,0,2.67,1.86,1.86,0,0,0,1.46.53Z"/></g></g></svg>