<svg xmlns="http://www.w3.org/2000/svg" viewBox="0 0 21.58 21.58"><title>Asset 34</title><g id="Layer_2" data-name="Layer 2"><g id="Layer_25" data-name="Layer 25"><path d="M7.44,21.58a7.45,7.45,0,1,1,7.45-7.44A7.45,7.45,0,0,1,7.44,21.58Zm0-13.39a5.95,5.95,0,1,0,6,6A6,6,0,0,0,7.44,8.19Z"/><path d="M20.83,8.19a.75.75,0,0,1-.75-.75V1.5H14.14a.75.75,0,0,1,0-1.5h6.69a.76.76,0,0,1,.75.75V7.44A.75.75,0,0,1,20.83,8.19Z"/><path d="M12.27,10.06a.73.73,0,0,1-.53-.22.75.75,0,0,1,0-1.06L20.2.32a.75.75,0,1,1,1.06,1.06L12.8,9.84A.74.74,0,0,1,12.27,10.06Z"/></g></g></svg>