<svg xmlns="http://www.w3.org/2000/svg" viewBox="0 0 24.04 20.53"><title>Asset 4</title><g id="Layer_2" data-name="Layer 2"><g id="Layer_5" data-name="Layer 5"><path d="M12,20.53A1.75,1.75,0,0,1,10.78,20L1.91,11.15a6.53,6.53,0,0,1,9.24-9.24l.87.87.87-.87a6.53,6.53,0,0,1,9.24,9.24L13.26,20A1.75,1.75,0,0,1,12,20.53ZM6.53,1.5A5,5,0,0,0,3,10.09L11.84,19a.22.22,0,0,0,.36,0l8.87-8.87A5,5,0,0,0,14,3l-1,1a1.24,1.24,0,0,1-1.76,0h0l-1-1A5,5,0,0,0,6.53,1.5ZM12.19,3h0Z"/><path d="M13.6,13.74a.74.74,0,0,1-.65-.37L10.44,9l-.93,1.62a.76.76,0,0,1-.65.37H2.12a.75.75,0,1,1,0-1.5h6.3L9.79,7.14a.74.74,0,0,1,.65-.37h0a.76.76,0,0,1,.65.37l2.51,4.35.93-1.61a.74.74,0,0,1,.65-.37h6.74a.75.75,0,0,1,0,1.5H15.61l-1.36,2.36A.74.74,0,0,1,13.6,13.74Z"/></g></g></svg>