<svg xmlns="http://www.w3.org/2000/svg" viewBox="0 0 18.18 21.58"><title>Asset 38</title><g id="Layer_2" data-name="Layer 2"><g id="Layer_44" data-name="Layer 44"><path d="M2.77,21.58h-1A1.74,1.74,0,0,1,.47,21,1.8,1.8,0,0,1,0,19.69c.41-5.5,3.76-6.45,5.77-7l.3-.08c1.09-.37,1.73-.84,1.87-1.37S7.69,9.74,6.77,8.69A7.57,7.57,0,0,1,5.22,1.18,1.73,1.73,0,0,1,6.87,0H8A1.72,1.72,0,0,1,9.35.69a1.76,1.76,0,0,1,.3,1.52,2.55,2.55,0,0,0,0,2c.18.1.71-.09,1.06-.21a5.59,5.59,0,0,1,4.64-.07c2.38,1.32,3.5,6.15,2.29,9.77S13.31,19,9,18.41c-1.73-.29-3.19-.49-3.83,0A2.18,2.18,0,0,0,4.51,20,1.75,1.75,0,0,1,2.77,21.58ZM6.87,1.5a.23.23,0,0,0-.23.16A6,6,0,0,0,7.9,7.71c1.3,1.48,1.79,2.76,1.49,3.89S8.17,13.46,6.52,14l-.34.1c-1.94.55-4.35,1.23-4.68,5.68a.25.25,0,0,0,.07.2.25.25,0,0,0,.18.08h1A.26.26,0,0,0,3,19.84a3.5,3.5,0,0,1,1.2-2.62c1.12-.86,2.77-.66,5-.29,4.61.63,6.4-1.68,7.08-3.73,1.1-3.3-.15-7.18-1.56-8a4.16,4.16,0,0,0-3.44.15c-.89.32-2.11.76-2.84-.4A3.94,3.94,0,0,1,8.2,1.82a.23.23,0,0,0,0-.22A.24.24,0,0,0,8,1.5Z"/></g></g></svg>