<svg xmlns="http://www.w3.org/2000/svg" viewBox="0 0 24.04 20.46"><title>Asset 37</title><g id="Layer_2" data-name="Layer 2"><g id="Layer_31" data-name="Layer 31"><path d="M19.55,14.36a.66.66,0,0,1-.3-.07L12,11.05,4.79,14.29a.75.75,0,1,1-.61-1.37l7.53-3.37a.75.75,0,0,1,.62,0l7.53,3.37a.75.75,0,0,1,.38,1A.76.76,0,0,1,19.55,14.36Z"/><path d="M12,11a.76.76,0,0,1-.75-.75V.75a.75.75,0,0,1,1.5,0v9.48A.75.75,0,0,1,12,11Z"/><path d="M4.79,20.46a3.56,3.56,0,0,1-.8-.08A4,4,0,0,1,1,18,13.1,13.1,0,0,1,1,7.8,4,4,0,0,1,4,5.45a4.19,4.19,0,0,1,4.83,5.29,8,8,0,0,0-.3,2.18,7.9,7.9,0,0,0,.3,2.17,4.23,4.23,0,0,1-1,4.14h0A4.2,4.2,0,0,1,4.79,20.46Zm0-13.58a2.29,2.29,0,0,0-.52,0A2.48,2.48,0,0,0,2.42,8.39a11.59,11.59,0,0,0,0,9.05,2.47,2.47,0,0,0,1.85,1.47,2.68,2.68,0,0,0,3.1-3.41A9.4,9.4,0,0,1,7,12.92a9.29,9.29,0,0,1,.36-2.58A2.68,2.68,0,0,0,4.79,6.88ZM7.24,18.7h0Z"/><path d="M19.25,20.46a4.2,4.2,0,0,1-3-1.23h0a4.23,4.23,0,0,1-1-4.14,7.9,7.9,0,0,0,.3-2.17,8,8,0,0,0-.3-2.18,4.19,4.19,0,0,1,4.83-5.29A4,4,0,0,1,23,7.8,13.1,13.1,0,0,1,23,18a4,4,0,0,1-2.94,2.35A3.71,3.71,0,0,1,19.25,20.46Zm-1.92-2.29a2.74,2.74,0,0,0,2.44.74,2.47,2.47,0,0,0,1.85-1.47,11.59,11.59,0,0,0,0-9,2.48,2.48,0,0,0-1.85-1.46,2.69,2.69,0,0,0-2.44.74,2.72,2.72,0,0,0-.65,2.67A9.67,9.67,0,0,1,17,12.92a9.79,9.79,0,0,1-.35,2.58,2.72,2.72,0,0,0,.65,2.67Z"/></g></g></svg>