<svg xmlns="http://www.w3.org/2000/svg" viewBox="0 0 21.17 21.17"><title>Asset 11</title><g id="Layer_2" data-name="Layer 2"><g id="Layer_34" data-name="Layer 34"><path d="M15.82,21.17a15.51,15.51,0,0,1-11-4.86A15.35,15.35,0,0,1,0,4.77,2.73,2.73,0,0,1,.82,3L3.26.51A1.74,1.74,0,0,1,4.5,0h0A1.74,1.74,0,0,1,5.74.51L9.27,4a1.76,1.76,0,0,1,0,2.48L7,8.76a.24.24,0,0,0,0,.35l5,5a.26.26,0,0,0,.36,0l2.24-2.23h0a1.78,1.78,0,0,1,2.47,0l3.53,3.53a1.73,1.73,0,0,1,0,2.47l-2.44,2.45a2.74,2.74,0,0,1-1.81.8ZM4.5,1.5a.26.26,0,0,0-.18.07L1.88,4a1.27,1.27,0,0,0-.37.83,13.87,13.87,0,0,0,4.4,10.4,13.84,13.84,0,0,0,10.41,4.4,1.24,1.24,0,0,0,.83-.36l2.44-2.45a.22.22,0,0,0,.08-.17.24.24,0,0,0-.08-.18L16.06,13a.21.21,0,0,0-.35,0L13.47,15.2a1.76,1.76,0,0,1-2.48,0l-5-5A1.75,1.75,0,0,1,6,7.7L8.21,5.46a.26.26,0,0,0,0-.35L4.67,1.57A.24.24,0,0,0,4.5,1.5Z"/><path d="M16.18,7.71A.76.76,0,0,1,15.43,7V1.23a.75.75,0,0,1,1.5,0V7A.75.75,0,0,1,16.18,7.71Z"/><path d="M19.05,4.85H13.32a.75.75,0,0,1,0-1.5h5.73a.75.75,0,1,1,0,1.5Z"/></g></g></svg>