<svg xmlns="http://www.w3.org/2000/svg" viewBox="0 0 24.46 18.35"><title>Asset 19</title><g id="Layer_2" data-name="Layer 2"><g id="Layer_14" data-name="Layer 14"><path d="M6.84,18.35H2.75a2.7,2.7,0,0,1-2.19-1.1,2.76,2.76,0,0,1-.44-2.47,17.19,17.19,0,0,1,6.74-9.7A1.7,1.7,0,0,1,8.65,5a1.74,1.74,0,0,1,.94,1.55V15.6A2.75,2.75,0,0,1,6.84,18.35Zm1-12.08a.18.18,0,0,0-.13.05A15.72,15.72,0,0,0,1.56,15.2a1.27,1.27,0,0,0,.2,1.15,1.2,1.2,0,0,0,1,.5H6.84A1.25,1.25,0,0,0,8.09,15.6V6.53A.25.25,0,0,0,8,6.3.24.24,0,0,0,7.84,6.27Z"/><path d="M21.71,18.35H17.62a2.75,2.75,0,0,1-2.75-2.75V6.53A1.74,1.74,0,0,1,15.81,5a1.7,1.7,0,0,1,1.79.1,17.23,17.23,0,0,1,6.74,9.7,2.79,2.79,0,0,1-.44,2.47A2.7,2.7,0,0,1,21.71,18.35ZM16.62,6.27a.24.24,0,0,0-.11,0,.25.25,0,0,0-.14.23V15.6a1.25,1.25,0,0,0,1.25,1.25h4.09a1.2,1.2,0,0,0,1-.5,1.28,1.28,0,0,0,.2-1.15,15.72,15.72,0,0,0-6.15-8.88A.18.18,0,0,0,16.62,6.27Z"/><path d="M18.92,13.92a.8.8,0,0,1-.3-.06L12.23,11,5.84,13.86a.75.75,0,0,1-.61-1.37l6.69-3a.75.75,0,0,1,.62,0l6.69,3a.75.75,0,0,1-.31,1.43Z"/><path d="M12.23,10.92a.75.75,0,0,1-.75-.75V.75a.75.75,0,0,1,1.5,0v9.42A.75.75,0,0,1,12.23,10.92Z"/></g></g></svg>