<svg xmlns="http://www.w3.org/2000/svg" viewBox="0 0 24.42 14.79"><title>Asset 36</title><g id="Layer_2" data-name="Layer 2"><g id="Layer_50" data-name="Layer 50"><path d="M19.81,14.79a2.5,2.5,0,0,1-.65-.1,23.82,23.82,0,0,0-6.95-1.13,23.76,23.76,0,0,0-7,1.13,2.25,2.25,0,0,1-2.8-1.48L.13,5.83A2.72,2.72,0,0,1,1.54,2.54,25.19,25.19,0,0,1,12.21,0,25.09,25.09,0,0,1,22.87,2.54a2.73,2.73,0,0,1,1.42,3.29L22,13.21A2.26,2.26,0,0,1,19.81,14.79Zm-7.6-2.73a25.69,25.69,0,0,1,7.39,1.19.75.75,0,0,0,.93-.49l2.33-7.38a1.25,1.25,0,0,0-.64-1.49,23.67,23.67,0,0,0-10-2.39,23.67,23.67,0,0,0-10,2.39,1.23,1.23,0,0,0-.64,1.49l2.33,7.38a.73.73,0,0,0,.92.49A25.76,25.76,0,0,1,12.21,12.06Z"/><path d="M12.21,9.41a.75.75,0,0,1-.75-.75V4.75a.75.75,0,0,1,1.5,0V8.66A.76.76,0,0,1,12.21,9.41Z"/><path d="M14.16,7.45h-3.9a.75.75,0,0,1,0-1.5h3.9a.75.75,0,0,1,0,1.5Z"/></g></g></svg>