<svg xmlns="http://www.w3.org/2000/svg" viewBox="0 0 15.28 21.58"><title>Asset 29</title><g id="Layer_2" data-name="Layer 2"><g id="Layer_36" data-name="Layer 36"><path d="M13.53,21.58H1.75A1.76,1.76,0,0,1,0,19.83V11.47a2.74,2.74,0,0,1,.81-2L2,8.37a1.28,1.28,0,0,0,.37-.89v-2h1.5v2A2.74,2.74,0,0,1,3,9.43L1.87,10.58a1.26,1.26,0,0,0-.37.89v8.36a.25.25,0,0,0,.25.25H13.53a.25.25,0,0,0,.25-.25V11.47a1.29,1.29,0,0,0-.36-.89L12.26,9.43a2.73,2.73,0,0,1-.8-1.95v-2H13v2a1.27,1.27,0,0,0,.36.89l1.16,1.15a2.73,2.73,0,0,1,.8,2v8.36A1.75,1.75,0,0,1,13.53,21.58Z"/><path d="M13.53,6.19H1.75A1.76,1.76,0,0,1,0,4.44V1.75A1.76,1.76,0,0,1,1.75,0H13.53a1.75,1.75,0,0,1,1.75,1.75V4.44A1.75,1.75,0,0,1,13.53,6.19ZM1.75,1.5a.25.25,0,0,0-.25.25V4.44a.25.25,0,0,0,.25.25H13.53a.25.25,0,0,0,.25-.25V1.75a.25.25,0,0,0-.25-.25Z"/><rect x="0.75" y="11.69" width="13.78" height="1.5"/><rect x="0.75" y="16.43" width="13.78" height="1.5"/><rect x="4.54" y="0.75" width="1.5" height="4.69"/><rect x="9.24" y="0.75" width="1.5" height="4.69"/></g></g></svg>