<svg xmlns="http://www.w3.org/2000/svg" viewBox="0 0 9.79 21.58"><title>Asset 25</title><g id="Layer_2" data-name="Layer 2"><g id="Layer_18" data-name="Layer 18"><path d="M4.89,21.58A3.9,3.9,0,0,1,1,17.69V.75A.76.76,0,0,1,1.75,0H8a.76.76,0,0,1,.75.75V17.69A3.9,3.9,0,0,1,4.89,21.58ZM2.5,1.5V17.69a2.4,2.4,0,0,0,4.79,0V1.5Z"/><path d="M9,1.5H.75A.76.76,0,0,1,0,.75.76.76,0,0,1,.75,0H9a.76.76,0,0,1,.75.75A.76.76,0,0,1,9,1.5Z"/><path d="M8,8.29H1.75a.75.75,0,1,1,0-1.5H8a.75.75,0,0,1,0,1.5Z"/></g></g></svg>