<svg xmlns="http://www.w3.org/2000/svg" viewBox="0 0 21.39 21.39"><title>Asset 26</title><g id="Layer_2" data-name="Layer 2"><g id="Layer_19" data-name="Layer 19"><path d="M7.35,18.71a1.75,1.75,0,0,1-1.24-.51L3.19,15.28a1.74,1.74,0,0,1,0-2.48l8.15-8.15a.77.77,0,0,1,1.06,0L16.74,9a.75.75,0,0,1,0,1.06L8.59,18.2A1.75,1.75,0,0,1,7.35,18.71ZM11.87,6.24,4.25,13.86a.24.24,0,0,0,0,.36l2.92,2.92a.25.25,0,0,0,.36,0l7.62-7.62Z"/><path d="M.75,21.39a.74.74,0,0,1-.53-.22.75.75,0,0,1,0-1.06l4.43-4.43a.75.75,0,0,1,1.06,1.06L1.28,21.17A.74.74,0,0,1,.75,21.39Z"/><path d="M14,8.1a.74.74,0,0,1-.53-.22.75.75,0,0,1,0-1.06l4.43-4.43A.75.75,0,0,1,19,3.45L14.57,7.88A.74.74,0,0,1,14,8.1Z"/><path d="M17.57,11.63a.74.74,0,0,1-.53-.22L10,4.35A.75.75,0,1,1,11,3.29l7.06,7.06a.74.74,0,0,1,0,1.06A.71.71,0,0,1,17.57,11.63Z"/><path d="M20.64,5.84a.74.74,0,0,1-.53-.22L15.77,1.28A.75.75,0,1,1,16.83.22l4.34,4.34a.75.75,0,0,1,0,1.06A.74.74,0,0,1,20.64,5.84Z"/></g></g></svg>