<svg xmlns="http://www.w3.org/2000/svg" viewBox="0 0 12.88 21.58"><title>Asset 15</title><g id="Layer_2" data-name="Layer 2"><g id="Layer_12" data-name="Layer 12"><path d="M4.54,15.34a.78.78,0,0,1-.41-.12L1.19,13.31A2.62,2.62,0,0,1,0,11.11V2.62A2.63,2.63,0,0,1,2.62,0H6.47A2.63,2.63,0,0,1,9.09,2.62v8.49a2.61,2.61,0,0,1-1.2,2.2L5,15.22A.73.73,0,0,1,4.54,15.34ZM2.62,1.5A1.12,1.12,0,0,0,1.5,2.62v8.49a1.11,1.11,0,0,0,.51.94l2.53,1.64,2.54-1.64h0a1.11,1.11,0,0,0,.51-.94V2.62A1.12,1.12,0,0,0,6.47,1.5Z"/><path d="M8.34,21.58A4.55,4.55,0,0,1,3.79,17V14.59a.75.75,0,0,1,1.5,0V17a3,3,0,0,0,6.09,0V8.35a.75.75,0,0,1,1.5,0V17A4.55,4.55,0,0,1,8.34,21.58Z"/><path d="M8.34,8.42H.75a.75.75,0,0,1,0-1.5H8.34a.75.75,0,0,1,0,1.5Z"/></g></g></svg>