<svg xmlns="http://www.w3.org/2000/svg" viewBox="0 0 21.93 21.93"><title>Asset 7</title><g id="Layer_2" data-name="Layer 2"><g id="Layer_6" data-name="Layer 6"><path d="M7,21.93a1.73,1.73,0,0,1-1.23-.51L.51,16.13a1.75,1.75,0,0,1,0-2.47L13.66.51a1.75,1.75,0,0,1,2.47,0L21.42,5.8a1.75,1.75,0,0,1,0,2.47L8.27,21.42A1.75,1.75,0,0,1,7,21.93ZM14.89,1.5a.23.23,0,0,0-.17.07L1.57,14.72a.24.24,0,0,0,0,.35l5.29,5.29a.26.26,0,0,0,.35,0L20.36,7.21a.26.26,0,0,0,0-.35L15.07,1.57A.24.24,0,0,0,14.89,1.5Z"/><path d="M9.83,15.2A1.22,1.22,0,0,1,9,14.83L7.09,13a1.27,1.27,0,0,1,0-1.77l4.12-4.12a1.27,1.27,0,0,1,.89-.36h0a1.27,1.27,0,0,1,.88.36L14.83,9a1.22,1.22,0,0,1,.37.88,1.24,1.24,0,0,1-.37.89l-4.11,4.11A1.24,1.24,0,0,1,9.83,15.2Zm-1.5-3.1,1.5,1.5L13.6,9.83l-1.5-1.5Zm3.41-4.48h0Z"/></g></g></svg>