<svg xmlns="http://www.w3.org/2000/svg" viewBox="0 0 18.76 21.51"><title>Asset 23</title><g id="Layer_2" data-name="Layer 2"><g id="Layer_46" data-name="Layer 46"><path d="M17,21.51H8.17a1.75,1.75,0,0,1-1.75-1.75V17.37a1.75,1.75,0,0,1,1.75-1.75H17a1.75,1.75,0,0,1,1.75,1.75v2.39A1.75,1.75,0,0,1,17,21.51ZM8.17,17.12a.25.25,0,0,0-.25.25v2.39a.25.25,0,0,0,.25.25H17a.25.25,0,0,0,.25-.25V17.37a.25.25,0,0,0-.25-.25Z"/><path d="M8.17,21.51A8.17,8.17,0,0,1,4.62,6a.75.75,0,0,1,1,.34.76.76,0,0,1-.35,1A6.67,6.67,0,0,0,8.17,20a.75.75,0,0,1,0,1.5Z"/><path d="M9.64,11.69h0a1.73,1.73,0,0,1-1.23-.52L2.91,5.68a1.75,1.75,0,0,1,0-2.47L5.47.65A1.74,1.74,0,0,1,6.71.14h0A1.74,1.74,0,0,1,8,.65l5.49,5.49a1.76,1.76,0,0,1,0,2.48l-2.56,2.55A1.75,1.75,0,0,1,9.64,11.69Zm-2.93-10a.26.26,0,0,0-.18.07L4,4.27a.25.25,0,0,0-.07.17A.26.26,0,0,0,4,4.62l5.5,5.49a.22.22,0,0,0,.17.08h0a.24.24,0,0,0,.18-.08l2.56-2.55a.27.27,0,0,0,0-.36L6.88,1.71h0A.26.26,0,0,0,6.71,1.64Z"/><path d="M4.72,3.21A.74.74,0,0,1,4.19,3L2.48,1.28A.75.75,0,0,1,3.54.22L5.25,1.93A.74.74,0,0,1,5.25,3,.71.71,0,0,1,4.72,3.21Z"/></g></g></svg>