<svg xmlns="http://www.w3.org/2000/svg" viewBox="0 0 21.55 21.55"><title>Asset 3</title><g id="Layer_2" data-name="Layer 2"><g id="Layer_4" data-name="Layer 4"><path d="M13.49,21.55H8.06a1.74,1.74,0,0,1-1.74-1.74V15.24H1.75A1.75,1.75,0,0,1,0,13.49V8.06A1.74,1.74,0,0,1,1.75,6.32H6.32V1.75A1.74,1.74,0,0,1,8.06,0h5.43a1.75,1.75,0,0,1,1.75,1.75V6.32h4.57a1.74,1.74,0,0,1,1.74,1.74v5.43a1.75,1.75,0,0,1-1.74,1.75H15.24v4.57A1.75,1.75,0,0,1,13.49,21.55ZM1.75,7.82a.25.25,0,0,0-.25.24v5.43a.25.25,0,0,0,.25.25H6.57A1.25,1.25,0,0,1,7.82,15v4.82a.24.24,0,0,0,.24.24h5.43a.25.25,0,0,0,.25-.24V15A1.25,1.25,0,0,1,15,13.74h4.82a.25.25,0,0,0,.24-.25V8.06a.24.24,0,0,0-.24-.24H15a1.25,1.25,0,0,1-1.25-1.25V1.75a.25.25,0,0,0-.25-.25H8.06a.25.25,0,0,0-.24.25V6.57A1.25,1.25,0,0,1,6.57,7.82Z"/></g></g></svg>