<svg xmlns="http://www.w3.org/2000/svg" viewBox="0 0 13.91 21.58"><title>Asset 39</title><g id="Layer_2" data-name="Layer 2"><g id="Layer_49" data-name="Layer 49"><path d="M8.75,21.58C5.29,21.58,0,15.23,0,9.75a7.49,7.49,0,0,1,2.79-5.9,1.25,1.25,0,0,0,.46-1V2.75A2.75,2.75,0,0,1,6,0h5.16a1.75,1.75,0,0,1,1.75,1.75V2.83a1.75,1.75,0,0,1-1.75,1.75H9.79C9,4.58,8.64,4.87,8.6,5s.11.3.42.46a9.21,9.21,0,0,1,4.89,8.12C13.91,16.81,12.27,21.58,8.75,21.58ZM6,1.5A1.25,1.25,0,0,0,4.75,2.75v.13A2.74,2.74,0,0,1,3.74,5,6,6,0,0,0,1.5,9.75c0,4.75,4.79,10.33,7.25,10.33s3.66-3.84,3.66-6.5A7.66,7.66,0,0,0,8.27,6.76,1.91,1.91,0,0,1,7.15,4.64c.18-.75,1-1.56,2.64-1.56h1.37a.25.25,0,0,0,.25-.25V1.75a.25.25,0,0,0-.25-.25Z"/></g></g></svg>