<svg xmlns="http://www.w3.org/2000/svg" viewBox="0 0 20.72 21.58"><title>Asset 40</title><g id="Layer_2" data-name="Layer 2"><g id="Layer_32" data-name="Layer 32"><path d="M19,14.89H1.75A1.76,1.76,0,0,1,0,13.14V1.75A1.76,1.76,0,0,1,1.75,0H19a1.75,1.75,0,0,1,1.75,1.75V13.14A1.75,1.75,0,0,1,19,14.89ZM1.75,1.5a.25.25,0,0,0-.25.25V13.14a.25.25,0,0,0,.25.25H19a.25.25,0,0,0,.25-.25V1.75A.25.25,0,0,0,19,1.5Z"/><rect x="9.61" y="14.14" width="1.5" height="6.69"/><path d="M15.17,21.58H5.55a.75.75,0,0,1,0-1.5h9.62a.75.75,0,1,1,0,1.5Z"/><path d="M11.89,10.85a.74.74,0,0,1-.64-.37L8.83,6.29,7.94,7.83a.74.74,0,0,1-.65.37H.75a.75.75,0,1,1,0-1.5H6.86L8.17,4.41A.77.77,0,0,1,8.83,4h0a.74.74,0,0,1,.64.37L11.89,8.6l.89-1.53a.75.75,0,0,1,.65-.38H20a.75.75,0,0,1,0,1.5H13.86l-1.32,2.29A.74.74,0,0,1,11.89,10.85Z"/></g></g></svg>