<svg xmlns="http://www.w3.org/2000/svg" viewBox="0 0 17.91 21.72"><title>Asset 20</title><g id="Layer_2" data-name="Layer 2"><g id="Layer_15" data-name="Layer 15"><path d="M13.15,21.72h-.06a1.76,1.76,0,0,1-1.58-1.13L9.19,14.42c-.1-.27-.37-.27-.47,0L6.4,20.59a1.76,1.76,0,0,1-1.58,1.13,1.73,1.73,0,0,1-1.65-1L1.41,16.81A15.57,15.57,0,0,1,0,10.3V5.75A5.76,5.76,0,0,1,5.75,0h6.41a5.76,5.76,0,0,1,5.75,5.75V10.3a15.57,15.57,0,0,1-1.41,6.51h0l-1.76,3.88A1.75,1.75,0,0,1,13.15,21.72ZM9,12.76a1.73,1.73,0,0,1,1.63,1.13l2.32,6.17a.24.24,0,0,0,.23.16.23.23,0,0,0,.23-.15l1.76-3.88h0a14.21,14.21,0,0,0,1.27-5.89V5.75A4.26,4.26,0,0,0,12.16,1.5H5.75A4.26,4.26,0,0,0,1.5,5.75V10.3a14.21,14.21,0,0,0,1.27,5.89l1.77,3.88a.22.22,0,0,0,.23.15A.24.24,0,0,0,5,20.06l2.32-6.17A1.73,1.73,0,0,1,9,12.76Z"/><path d="M3.63,8.25a.75.75,0,0,1-.75-.75V5.7A2.74,2.74,0,0,1,5.62,3h.67a.75.75,0,0,1,0,1.5H5.62A1.25,1.25,0,0,0,4.38,5.7V7.5A.76.76,0,0,1,3.63,8.25Z"/></g></g></svg>