<svg xmlns="http://www.w3.org/2000/svg" viewBox="0 0 16.62 21.62"><title>Asset 5</title><g id="Layer_2" data-name="Layer 2"><g id="Layer_45" data-name="Layer 45"><path d="M8.32,10.79l-.54,0A5.55,5.55,0,0,1,2.91,5.2V1.75A1.76,1.76,0,0,1,4.66,0H12a1.76,1.76,0,0,1,1.75,1.75V5.4a5.42,5.42,0,0,1-1.77,4A5.37,5.37,0,0,1,8.32,10.79ZM4.66,1.5a.25.25,0,0,0-.25.25V5.2A4,4,0,0,0,7.92,9.27a3.85,3.85,0,0,0,3-1A3.92,3.92,0,0,0,12.21,5.4V1.75A.25.25,0,0,0,12,1.5Z"/><path d="M14.87,21.62H1.75A1.75,1.75,0,0,1,0,19.87V17.6A8.25,8.25,0,0,1,8.24,9.36h.14a8.25,8.25,0,0,1,8.24,8.24v2.27A1.75,1.75,0,0,1,14.87,21.62ZM8.24,10.86A6.74,6.74,0,0,0,1.5,17.6v2.27a.25.25,0,0,0,.25.25H14.87a.25.25,0,0,0,.25-.25V17.6a6.74,6.74,0,0,0-6.74-6.74Z"/><path d="M8.31,18.52a.76.76,0,0,1-.75-.75V13.22a.75.75,0,0,1,1.5,0v4.55A.76.76,0,0,1,8.31,18.52Z"/><path d="M10.59,16.24H6a.75.75,0,1,1,0-1.5h4.56a.75.75,0,0,1,0,1.5Z"/><rect x="3.66" y="4.65" width="9.29" height="1.5"/></g></g></svg>