<svg xmlns="http://www.w3.org/2000/svg" viewBox="0 0 23.69 21.58"><title>Asset 17</title><g id="Layer_2" data-name="Layer 2"><g id="Layer_39" data-name="Layer 39"><path d="M6,21.58a6,6,0,1,1,6-6A6,6,0,0,1,6,21.58ZM6,11.12a4.48,4.48,0,1,0,4.48,4.48A4.49,4.49,0,0,0,6,11.12Z"/><path d="M18.3,21.58a3.37,3.37,0,1,1,3.36-3.37A3.37,3.37,0,0,1,18.3,21.58Zm0-5.23a1.87,1.87,0,1,0,1.86,1.86A1.87,1.87,0,0,0,18.3,16.35Z"/><path d="M22.94,16.35H18.3a.75.75,0,0,1-.75-.75V13.39a.25.25,0,0,0-.25-.25H10.11a.75.75,0,0,1,0-1.5H17.3a1.76,1.76,0,0,1,1.75,1.75v1.46h3.89a.75.75,0,1,1,0,1.5Z"/><path d="M6,11.12a.76.76,0,0,1-.75-.75V1.75A.25.25,0,0,0,5,1.5H.75A.76.76,0,0,1,0,.75.76.76,0,0,1,.75,0H5A1.75,1.75,0,0,1,6.73,1.75v8.62A.75.75,0,0,1,6,11.12Z"/><path d="M16.27,13.14a.75.75,0,0,1-.75-.75V5.8a.25.25,0,0,0-.25-.25H6a.75.75,0,0,1,0-1.5h9.29A1.75,1.75,0,0,1,17,5.8v6.59A.74.74,0,0,1,16.27,13.14Z"/></g></g></svg>