<svg xmlns="http://www.w3.org/2000/svg" viewBox="0 0 19.54 21.62"><title>Asset 6</title><g id="Layer_2" data-name="Layer 2"><g id="Layer_28" data-name="Layer 28"><path d="M17.79,21.62h-16A1.75,1.75,0,0,1,0,19.87V7.39A1.76,1.76,0,0,1,1.75,5.64h16a1.76,1.76,0,0,1,1.75,1.75V19.87A1.75,1.75,0,0,1,17.79,21.62ZM1.75,7.14a.25.25,0,0,0-.25.25V19.87a.25.25,0,0,0,.25.25h16a.25.25,0,0,0,.25-.25V7.39a.26.26,0,0,0-.25-.25Z"/><path d="M14.74,7.14A.74.74,0,0,1,14,6.39V1.75a.25.25,0,0,0-.25-.25H5.8a.25.25,0,0,0-.25.25V6.39a.75.75,0,0,1-1.5,0V1.75A1.75,1.75,0,0,1,5.8,0h7.94a1.76,1.76,0,0,1,1.75,1.75V6.39A.75.75,0,0,1,14.74,7.14Z"/><path d="M9.77,17.33A.75.75,0,0,1,9,16.58V10.69a.75.75,0,0,1,1.5,0v5.89A.76.76,0,0,1,9.77,17.33Z"/><path d="M12.71,14.38H6.82a.75.75,0,0,1,0-1.5h5.89a.75.75,0,0,1,0,1.5Z"/></g></g></svg>