<svg xmlns="http://www.w3.org/2000/svg" viewBox="0 0 16.64 21.58"><title>Asset 9</title><g id="Layer_2" data-name="Layer 2"><g id="Layer_9" data-name="Layer 9"><path d="M14.89,21.58H1.75A1.76,1.76,0,0,1,0,19.83V1.75A1.76,1.76,0,0,1,1.75,0H8.32V1.5H1.75a.25.25,0,0,0-.25.25V19.83a.25.25,0,0,0,.25.25H14.89a.25.25,0,0,0,.25-.25V8.32h1.5V19.83A1.76,1.76,0,0,1,14.89,21.58Z"/><path d="M15.89,9.07H9.32A1.75,1.75,0,0,1,7.57,7.32V.75A.74.74,0,0,1,8,.06a.75.75,0,0,1,.82.16l7.57,7.57a.75.75,0,0,1,.16.82A.74.74,0,0,1,15.89,9.07ZM9.07,2.56V7.32a.25.25,0,0,0,.25.25h4.76Z"/></g></g></svg>