<svg xmlns="http://www.w3.org/2000/svg" viewBox="0 0 14.81 21.55"><title>Asset 2</title><g id="Layer_2" data-name="Layer 2"><g id="Layer_3" data-name="Layer 3"><path d="M7.4,21.55A7.41,7.41,0,0,1,0,14.23C0,9.14,4.09,3.07,5.87.7A1.76,1.76,0,0,1,7.26,0,1.71,1.71,0,0,1,8.65.67C10.49,3,14.76,9,14.81,14.07h0a7.39,7.39,0,0,1-7.33,7.48Zm-.13-20s-.13,0-.2.1c-1.69,2.25-5.62,8-5.57,12.61a5.91,5.91,0,0,0,5.9,5.84h.07a5.89,5.89,0,0,0,5.84-6h0C13.26,9.46,9.21,3.81,7.47,1.6A.23.23,0,0,0,7.27,1.5Z"/><path d="M7.41,18.41a4.56,4.56,0,0,1-4.34-4.69.75.75,0,0,1,1.5,0,3,3,0,0,0,2.87,3.21h0a.76.76,0,0,1,.75.75.75.75,0,0,1-.74.75Z"/></g></g></svg>