<svg xmlns="http://www.w3.org/2000/svg" viewBox="0 0 16.64 21.58"><title>Asset 10</title><g id="Layer_2" data-name="Layer 2"><g id="Layer_7" data-name="Layer 7"><path d="M14.89,21.58H1.75A1.76,1.76,0,0,1,0,19.83V1.75A1.76,1.76,0,0,1,1.75,0H14.89a1.76,1.76,0,0,1,1.75,1.75V19.83A1.76,1.76,0,0,1,14.89,21.58ZM1.75,1.5a.25.25,0,0,0-.25.25V19.83a.25.25,0,0,0,.25.25H14.89a.25.25,0,0,0,.25-.25V1.75a.25.25,0,0,0-.25-.25Z"/><path d="M11.36,7.54H5.28a.75.75,0,0,1,0-1.5h6.08a.75.75,0,0,1,0,1.5Z"/><path d="M11.36,11.54H5.28a.75.75,0,0,1,0-1.5h6.08a.75.75,0,0,1,0,1.5Z"/><path d="M11.36,15.54H5.28a.75.75,0,0,1,0-1.5h6.08a.75.75,0,0,1,0,1.5Z"/></g></g></svg>