<svg xmlns="http://www.w3.org/2000/svg" viewBox="0 0 25.5 21.58"><title>Asset 41</title><g id="Layer_2" data-name="Layer 2"><g id="Layer_21" data-name="Layer 21"><path d="M18.75,21.58h-12A.76.76,0,0,1,6,20.83V1.75A1.76,1.76,0,0,1,7.75,0h10A1.76,1.76,0,0,1,19.5,1.75V20.83A.76.76,0,0,1,18.75,21.58ZM7.5,20.08H18V1.75a.25.25,0,0,0-.25-.25h-10a.25.25,0,0,0-.25.25Z"/><path d="M24.25,21.58h-5.5v-1.5H24V11.79a.25.25,0,0,0-.25-.25h-5V10h5a1.76,1.76,0,0,1,1.75,1.75v8.54A1.25,1.25,0,0,1,24.25,21.58Z"/><path d="M6.75,21.58H1.25A1.25,1.25,0,0,1,0,20.33V11.79A1.76,1.76,0,0,1,1.75,10h5v1.5h-5a.25.25,0,0,0-.25.25v8.29H6.75Z"/><path d="M14.87,20.83h-1.5V16.56H12.13v4.27h-1.5v-5a.75.75,0,0,1,.75-.75h2.74a.75.75,0,0,1,.75.75Z"/><path d="M14.93,8.9H10.57a.75.75,0,0,1,0-1.5h4.36a.75.75,0,0,1,0,1.5Z"/><path d="M12.75,11.08a.75.75,0,0,1-.75-.75V6a.75.75,0,0,1,1.5,0v4.35A.75.75,0,0,1,12.75,11.08Z"/></g></g></svg>