<svg xmlns="http://www.w3.org/2000/svg" viewBox="0 0 21.68 21.69"><title>Asset 1</title><g id="Layer_2" data-name="Layer 2"><g id="Layer_2-2" data-name="Layer 2"><path d="M6.24,21.69A6.24,6.24,0,0,1,1.82,11L11,1.83a6.24,6.24,0,1,1,8.83,8.82l-9.21,9.21A6.2,6.2,0,0,1,6.24,21.69ZM15.44,1.5a4.71,4.71,0,0,0-3.35,1.39L2.89,12.1a4.74,4.74,0,1,0,6.7,6.7l9.2-9.21h0a4.74,4.74,0,0,0,0-6.7A4.67,4.67,0,0,0,15.44,1.5Z"/><rect x="10.09" y="5.35" width="1.5" height="10.98" transform="translate(-4.49 10.84) rotate(-45)"/><path d="M17.24,5.19A.74.74,0,0,1,16.71,5,2,2,0,0,0,14,5a.75.75,0,0,1-1.06-1.06,3.45,3.45,0,0,1,4.88,0,.74.74,0,0,1,0,1.06A.73.73,0,0,1,17.24,5.19Z"/></g></g></svg>