<svg xmlns="http://www.w3.org/2000/svg" viewBox="0 0 24.04 19.15"><title>Asset 12</title><g id="Layer_2" data-name="Layer 2"><g id="Layer_37" data-name="Layer 37"><rect x="9.3" y="14.37" width="5.45" height="1.5"/><path d="M22.29,15.87h-1a.75.75,0,0,1,0-1.5h1a.25.25,0,0,0,.25-.25V8.65a1.25,1.25,0,0,0-.28-.79L17.37,2a1.27,1.27,0,0,0-1-.45H1.75a.25.25,0,0,0-.25.25V14.12a.25.25,0,0,0,.25.25h1a.75.75,0,0,1,0,1.5h-1A1.76,1.76,0,0,1,0,14.12V1.75A1.76,1.76,0,0,1,1.75,0H16.41a2.74,2.74,0,0,1,2.12,1l4.88,5.9A2.74,2.74,0,0,1,24,8.65v5.47A1.75,1.75,0,0,1,22.29,15.87Z"/><path d="M6,19.15a4,4,0,1,1,4-4A4,4,0,0,1,6,19.15Zm0-6.56a2.53,2.53,0,1,0,2.54,2.53A2.53,2.53,0,0,0,6,12.59Z"/><path d="M18,19.15a4,4,0,1,1,4-4A4,4,0,0,1,18,19.15Zm0-6.56a2.53,2.53,0,1,0,2.53,2.53A2.53,2.53,0,0,0,18,12.59Z"/><path d="M6,9.15a.75.75,0,0,1-.75-.75V4.25a.75.75,0,0,1,1.5,0V8.4A.74.74,0,0,1,6,9.15Z"/><path d="M8.09,7.08H3.94a.75.75,0,1,1,0-1.5H8.09a.75.75,0,0,1,0,1.5Z"/></g></g></svg>