<svg xmlns="http://www.w3.org/2000/svg" viewBox="0 0 21.58 21.58"><title>Asset 27</title><g id="Layer_2" data-name="Layer 2"><g id="Layer_20" data-name="Layer 20"><path d="M19.83,21.58H1.75A1.76,1.76,0,0,1,0,19.83V1.75A1.76,1.76,0,0,1,1.75,0H19.83a1.76,1.76,0,0,1,1.75,1.75V19.83A1.76,1.76,0,0,1,19.83,21.58ZM1.75,1.5a.25.25,0,0,0-.25.25V19.83a.25.25,0,0,0,.25.25H19.83a.25.25,0,0,0,.25-.25V1.75a.25.25,0,0,0-.25-.25Z"/><path d="M12.09,17.16H9.49a1.25,1.25,0,0,1-1.25-1.25V13.29H5.67A1.25,1.25,0,0,1,4.42,12V9.44A1.25,1.25,0,0,1,5.67,8.19H8.24V5.67A1.25,1.25,0,0,1,9.49,4.42h2.6a1.25,1.25,0,0,1,1.25,1.25V8.19h2.57a1.25,1.25,0,0,1,1.25,1.25V12a1.25,1.25,0,0,1-1.25,1.25H13.34v2.62A1.25,1.25,0,0,1,12.09,17.16Zm-2.35-1.5h2.1V12.54a.76.76,0,0,1,.75-.75h3.07V9.69H12.59a.76.76,0,0,1-.75-.75v-3H9.74v3A.76.76,0,0,1,9,9.69H5.92v2.1H9a.76.76,0,0,1,.75.75Zm6.17-6h0Z"/></g></g></svg>