<svg xmlns="http://www.w3.org/2000/svg" viewBox="0 0 21.58 21.58"><title>Asset 13</title><g id="Layer_2" data-name="Layer 2"><g id="Layer_48" data-name="Layer 48"><path d="M10.79,15A4.24,4.24,0,1,1,15,10.79,4.24,4.24,0,0,1,10.79,15Zm0-7a2.74,2.74,0,1,0,2.74,2.74A2.74,2.74,0,0,0,10.79,8.05Z"/><path d="M13.26,9.07a.71.71,0,0,1-.53-.22.74.74,0,0,1,0-1.06l4.13-4.13a.75.75,0,1,1,1.06,1.06L13.79,8.85A.74.74,0,0,1,13.26,9.07Z"/><path d="M18.82,5.53a2.77,2.77,0,1,1,2.76-2.77A2.77,2.77,0,0,1,18.82,5.53Zm0-4a1.27,1.27,0,1,0,1.26,1.26A1.27,1.27,0,0,0,18.82,1.5Z"/><path d="M4.18,18.15a.79.79,0,0,1-.53-.22.75.75,0,0,1,0-1.06l4.14-4.14a.75.75,0,1,1,1.06,1.06L4.71,17.93A.75.75,0,0,1,4.18,18.15Z"/><path d="M2.76,21.58a2.77,2.77,0,1,1,2.77-2.76A2.77,2.77,0,0,1,2.76,21.58Zm0-4A1.27,1.27,0,1,0,4,18.82,1.27,1.27,0,0,0,2.76,17.55Z"/><path d="M8.32,9.07a.74.74,0,0,1-.53-.22L5.63,6.69A.75.75,0,0,1,6.69,5.63L8.85,7.79a.74.74,0,0,1,0,1.06A.73.73,0,0,1,8.32,9.07Z"/><path d="M4.78,7.54A2.77,2.77,0,1,1,7.54,4.78,2.77,2.77,0,0,1,4.78,7.54Zm0-4A1.27,1.27,0,1,0,6,4.78,1.27,1.27,0,0,0,4.78,3.51Z"/><path d="M15.38,16.13a.74.74,0,0,1-.53-.22l-2.12-2.12a.75.75,0,0,1,1.06-1.06l2.12,2.12a.75.75,0,0,1,0,1.06A.74.74,0,0,1,15.38,16.13Z"/><path d="M16.8,19.57a2.77,2.77,0,1,1,2.77-2.77A2.77,2.77,0,0,1,16.8,19.57Zm0-4a1.27,1.27,0,1,0,1.27,1.26A1.27,1.27,0,0,0,16.8,15.54Z"/></g></g></svg>