<svg xmlns="http://www.w3.org/2000/svg" viewBox="0 0 16.22 21.79"><title>Asset 21</title><g id="Layer_2" data-name="Layer 2"><g id="Layer_42" data-name="Layer 42"><path d="M14.47,21.79H1.75A1.76,1.76,0,0,1,0,20V4.61A1.75,1.75,0,0,1,1.75,2.86H14.47a1.75,1.75,0,0,1,1.75,1.75V20A1.76,1.76,0,0,1,14.47,21.79ZM1.75,4.36a.25.25,0,0,0-.25.25V20a.25.25,0,0,0,.25.25H14.47a.25.25,0,0,0,.25-.25V4.61a.25.25,0,0,0-.25-.25Z"/><path d="M10.71,7.21H5.51a.75.75,0,0,1-.75-.75V.75A.76.76,0,0,1,5.51,0h5.2a.76.76,0,0,1,.75.75V6.46A.75.75,0,0,1,10.71,7.21ZM6.26,5.71H10V1.5H6.26Z"/><path d="M10.71,12.3H5.51a.75.75,0,0,1,0-1.5h5.2a.75.75,0,0,1,0,1.5Z"/><path d="M10.71,17H5.51a.75.75,0,0,1,0-1.5h5.2a.75.75,0,0,1,0,1.5Z"/></g></g></svg>