<svg xmlns="http://www.w3.org/2000/svg" viewBox="0 0 25.5 13.15"><title>Asset 16</title><g id="Layer_2" data-name="Layer 2"><g id="Layer_13" data-name="Layer 13"><path d="M12.75,13.15a16.24,16.24,0,0,1-8.11-2.51A.74.74,0,0,1,4.31,10V3.13a.76.76,0,0,1,.33-.63A16.28,16.28,0,0,1,12.75,0a16.28,16.28,0,0,1,8.11,2.5.76.76,0,0,1,.33.63V10a.74.74,0,0,1-.33.62A16.24,16.24,0,0,1,12.75,13.15ZM5.81,9.6a14.78,14.78,0,0,0,6.94,2.05A14.7,14.7,0,0,0,19.69,9.6v-6a14.66,14.66,0,0,0-6.94-2A14.58,14.58,0,0,0,5.81,3.55Z"/><path d="M21.3,10.77h-.86a.76.76,0,0,1-.75-.75V3.13a.75.75,0,0,1,.75-.75h.86a4.2,4.2,0,1,1,0,8.39Zm-.11-1.5h.11a2.7,2.7,0,1,0,0-5.39h-.11Z"/><path d="M5.06,10.77H4.19a4.2,4.2,0,0,1,0-8.39h.87a.75.75,0,0,1,.75.75V10A.76.76,0,0,1,5.06,10.77ZM4.19,3.88a2.7,2.7,0,0,0,0,5.39h.12V3.88Z"/><path d="M9.33,5.93a.75.75,0,0,1-.73-.56.76.76,0,0,1,.54-.92,14.66,14.66,0,0,1,7.21,0,.76.76,0,0,1,.55.91.75.75,0,0,1-.9.55,13.2,13.2,0,0,0-6.49,0Z"/><path d="M12.8,9.14a15.38,15.38,0,0,1-3.65-.45A.75.75,0,1,1,9.5,7.24a13.2,13.2,0,0,0,6.49,0,.75.75,0,0,1,.37,1.45A14.18,14.18,0,0,1,12.8,9.14Z"/></g></g></svg>