<svg xmlns="http://www.w3.org/2000/svg" viewBox="0 0 20.53 20.53"><title>Asset 24</title><g id="Layer_2" data-name="Layer 2"><g id="Layer_29" data-name="Layer 29"><path d="M10.26,20.53A10.27,10.27,0,1,1,20.53,10.27,10.27,10.27,0,0,1,10.26,20.53Zm0-19A8.77,8.77,0,1,0,19,10.27,8.77,8.77,0,0,0,10.26,1.5Z"/><rect x="-0.48" y="8.05" width="18.57" height="1.5" transform="translate(-3.65 8.8) rotate(-45)"/><rect x="2.44" y="10.98" width="18.57" height="1.5" transform="translate(-4.86 11.73) rotate(-45)"/><path d="M4.31,8A.69.69,0,0,1,4,7.92a.74.74,0,0,1-.33-1A7.51,7.51,0,0,1,7,3.62.75.75,0,0,1,8,4a.76.76,0,0,1-.34,1A5.92,5.92,0,0,0,5,7.59.77.77,0,0,1,4.31,8Z"/></g></g></svg>