<svg xmlns="http://www.w3.org/2000/svg" viewBox="0 0 21.58 21.58"><title>Asset 35</title><g id="Layer_2" data-name="Layer 2"><g id="Layer_26" data-name="Layer 26"><path d="M14.14,14.89a7.45,7.45,0,1,1,7.44-7.45A7.46,7.46,0,0,1,14.14,14.89Zm0-13.39a5.95,5.95,0,1,0,5.94,5.94A6,6,0,0,0,14.14,1.5Z"/><path d="M7.44,21.58a.74.74,0,0,1-.53-.22L.22,14.67a.75.75,0,0,1,0-1.06.74.74,0,0,1,1.06,0L8,20.3a.74.74,0,0,1,0,1.06A.71.71,0,0,1,7.44,21.58Z"/><path d="M.75,21.58a.74.74,0,0,1-.53-.22.75.75,0,0,1,0-1.06l8.51-8.51a.75.75,0,0,1,1.06,1.06L1.28,21.36A.74.74,0,0,1,.75,21.58Z"/></g></g></svg>