<svg xmlns="http://www.w3.org/2000/svg" viewBox="0 0 21.58 21.58"><title>Asset 8</title><g id="Layer_2" data-name="Layer 2"><g id="Layer_8" data-name="Layer 8"><path d="M16.13,21.58a1.75,1.75,0,0,1-1.24-.51l-4.63-4.64,1.06-1.06L16,20a.26.26,0,0,0,.36,0L20,16.31A.26.26,0,0,0,20,16l-4.63-4.63,1.06-1.06,4.64,4.63a1.76,1.76,0,0,1,0,2.48l-3.7,3.7A1.75,1.75,0,0,1,16.13,21.58Z"/><path d="M5.15,11.32.51,6.68a1.75,1.75,0,0,1,0-2.47L4.21.51a1.75,1.75,0,0,1,2.47,0l4.64,4.64L10.26,6.21,5.62,1.57a.24.24,0,0,0-.35,0l-3.7,3.7a.24.24,0,0,0,0,.35l4.64,4.64Z"/><path d="M5.45,21.58a1.75,1.75,0,0,1-1.24-.51l-3.7-3.7a1.76,1.76,0,0,1,0-2.48L14.89.51a1.76,1.76,0,0,1,2.48,0h0l3.7,3.7a1.75,1.75,0,0,1,0,2.47L6.68,21.07A1.74,1.74,0,0,1,5.45,21.58ZM16.13,1.5a.26.26,0,0,0-.18.07L1.57,16a.25.25,0,0,0,0,.36L5.27,20a.25.25,0,0,0,.35,0L20,5.62a.25.25,0,0,0,0-.35l-3.69-3.7A.26.26,0,0,0,16.13,1.5Z"/></g></g></svg>