<svg xmlns="http://www.w3.org/2000/svg" viewBox="0 0 21.4 21.4"><title>Asset 30</title><g id="Layer_2" data-name="Layer 2"><g id="Layer_47" data-name="Layer 47"><path d="M6.87,21.4h0a1.74,1.74,0,0,1-1.24-.51L.51,15.77a1.75,1.75,0,0,1,0-2.47L13.3.51A1.73,1.73,0,0,1,14.53,0h0a1.73,1.73,0,0,1,1.23.51l5.12,5.12a1.74,1.74,0,0,1,.51,1.24,1.77,1.77,0,0,1-.51,1.24L8.11,20.89A1.76,1.76,0,0,1,6.87,21.4ZM14.53,1.5a.25.25,0,0,0-.17.07L1.57,14.36a.26.26,0,0,0-.07.18.25.25,0,0,0,.07.17l5.12,5.12a.37.37,0,0,0,.18.07A.24.24,0,0,0,7,19.83L19.83,7a.24.24,0,0,0,.07-.17.26.26,0,0,0-.07-.18L14.71,1.57C14.65,1.51,14.53,1.48,14.53,1.5Z"/><path d="M16.67,12a.74.74,0,0,1-.53-.22L9.61,5.26A.75.75,0,0,1,10.67,4.2l6.53,6.53a.74.74,0,0,1,0,1.06A.71.71,0,0,1,16.67,12Z"/><path d="M11.26,17.42a.74.74,0,0,1-.53-.22L4.2,10.67A.75.75,0,0,1,5.26,9.61l6.53,6.53a.75.75,0,0,1,0,1.06A.74.74,0,0,1,11.26,17.42Z"/><circle cx="10.7" cy="9.04" r="0.72"/><circle cx="9.04" cy="10.7" r="0.72"/><circle cx="12.36" cy="10.7" r="0.72"/><circle cx="10.7" cy="12.36" r="0.72"/></g></g></svg>