<svg xmlns="http://www.w3.org/2000/svg" viewBox="0 0 23.39 16.11"><title>Asset 18</title><g id="Layer_2" data-name="Layer 2"><g id="Layer_27" data-name="Layer 27"><path d="M12,16.11A14.12,14.12,0,0,1,.48,9.63a2.82,2.82,0,0,1,0-3.15A14,14,0,0,1,12.35,0,12.81,12.81,0,0,1,23,6.61a2.81,2.81,0,0,1,0,2.88A12.8,12.8,0,0,1,12.35,16.1Zm0-14.61A12.46,12.46,0,0,0,1.72,7.32a1.3,1.3,0,0,0,0,1.46h0A12.42,12.42,0,0,0,12.3,14.6a11.35,11.35,0,0,0,9.4-5.87,1.31,1.31,0,0,0,0-1.35,11.31,11.31,0,0,0-9.4-5.87Z"/><path d="M11.65,11.9A3.85,3.85,0,1,1,15.5,8.05,3.85,3.85,0,0,1,11.65,11.9Zm0-6.2A2.35,2.35,0,1,0,14,8.05,2.35,2.35,0,0,0,11.65,5.7Z"/></g></g></svg>