<svg xmlns="http://www.w3.org/2000/svg" viewBox="0 0 10.91 21.79"><title>Asset 22</title><g id="Layer_2" data-name="Layer 2"><g id="Layer_17" data-name="Layer 17"><path d="M5.45,21.79A5.46,5.46,0,0,1,0,16.33a5.4,5.4,0,0,1,1.88-4.1V3.57A3.57,3.57,0,0,1,9,3.57v8.66a5.38,5.38,0,0,1,1.89,4.1A5.47,5.47,0,0,1,5.45,21.79Zm0-20.29A2.07,2.07,0,0,0,3.38,3.57v9a.76.76,0,0,1-.29.6A3.92,3.92,0,0,0,1.5,16.33a4,4,0,1,0,7.91,0,3.92,3.92,0,0,0-1.59-3.14.74.74,0,0,1-.3-.6v-9A2.07,2.07,0,0,0,5.45,1.5Z"/><path d="M6.71,14.3a1,1,0,0,1-.51-.86V3.61a.75.75,0,0,0-1.5,0v9.83a1,1,0,0,1-.47.84,2.4,2.4,0,1,0,2.48,0Z"/></g></g></svg>